<svg width="1526" height="910" viewBox="0 0 1526 910" fill="none" xmlns="http://www.w3.org/2000/svg">
<path d="M1409.61 855.43C1409.63 855.337 1411.77 842.361 1417.12 832.509C1420.86 825.822 1420.8 825.303 1420.5 818.778C1420.38 815.928 1420.17 811.946 1420.17 805.808C1420.23 790.736 1423.8 786.818 1427.96 782.263C1429.59 780.51 1431.12 778.73 1432.39 776.776C1436.08 770.981 1432.34 765.698 1430.03 762.629C1428.85 760.988 1428.09 760.067 1428.83 759.27C1429.12 758.952 1429.49 758.753 1429.82 758.647C1429.73 758.62 1429.76 758.527 1429.69 758.407L1429.51 757.954L1429.9 757.662C1430.02 757.596 1430.05 757.503 1430.26 757.464L1430.29 756.265C1430.92 756.24 1434.29 756.29 1435.28 756.772C1435.57 756.853 1435.8 757.12 1435.91 757.453C1435.92 757.759 1435.85 758.038 1435.48 758.237C1435.12 758.436 1434.78 758.541 1434.35 758.62C1434.73 758.728 1435.13 758.742 1435.32 758.796L1442.36 760.387L1435.12 760.247C1434.4 760.245 1433.61 760.123 1432.95 759.934C1431.97 759.758 1431.01 759.889 1430.12 760.139C1430.46 760.74 1430.81 761.34 1431.27 761.874C1433.65 765.063 1437.92 771 1433.68 777.645C1432.29 779.665 1430.8 781.658 1429.08 783.384C1425.09 787.687 1421.69 791.353 1421.67 805.932C1421.61 811.95 1421.82 815.932 1422.03 818.809C1422.38 825.547 1422.38 826.253 1418.51 833.405C1413.24 842.977 1411.15 855.767 1411.13 855.86L1409.61 855.43Z" fill="#231F20"/>
<path d="M1504.56 665.732L1389.38 728.589C1399.33 742.77 1412.71 752.395 1427.14 755.071C1428.19 755.367 1429.15 755.942 1429.88 756.65C1430.5 757.331 1430.89 758.144 1430.23 758.662C1427.57 760.825 1428.45 760.973 1428.45 760.973C1428.72 761.454 1429.27 761.708 1429.79 761.656C1430.35 761.511 1430.94 761.58 1431.49 761.834C1432.06 761.996 1432.51 762.223 1432.9 761.931C1433.29 761.639 1434.42 762.362 1434.75 762.256C1435.09 762.151 1436.45 762.434 1436.51 761.848C1436.57 761.263 1434.2 759.485 1435.33 757.691C1435.76 756.906 1436.42 756.389 1437.24 756.018C1437.91 755.807 1438.68 755.623 1439.5 755.652L1439.31 755.598C1468.16 753.003 1495.65 723.667 1503.2 683.251C1504.14 677.382 1504.65 671.591 1504.56 665.732Z" fill="#4FB8A4"/>
<path d="M1442.98 594.378C1401.41 591.159 1369.23 628.324 1371.17 672.935C1372.14 694.534 1378.95 713.966 1389.29 728.562L1504.47 665.706C1503.71 628.874 1478.91 597.209 1442.98 594.378ZM1379.03 665.5C1380.55 629.315 1407.75 600.298 1442.27 603.031C1446.38 603.389 1450.38 604.119 1454.25 605.315C1418.39 605.121 1389.32 630.591 1379.03 665.5Z" fill="#92E2D8"/>
<path d="M256.097 877.9C256.066 877.728 249.06 855.107 250.186 834.899C251.132 821.096 250.604 820.307 244.698 810.054C242.149 805.562 238.512 799.321 233.444 789.446C221.132 765.137 224.069 755.928 227.501 745.213C228.861 741.07 230.035 736.962 230.62 732.784C232.22 720.455 221.417 714.989 214.899 711.928C211.515 710.243 209.436 709.383 210.054 707.5C210.302 706.747 210.766 706.131 211.262 705.687C211.076 705.721 211.045 705.549 210.827 705.412L210.144 704.828L210.578 704.041C210.733 703.836 210.701 703.665 211.042 703.426L210.11 701.471C211.164 700.925 217.024 698.264 219.134 698.234C219.692 698.132 220.313 698.373 220.779 698.819C221.059 699.3 221.152 699.814 220.688 700.429C220.223 701.045 219.727 701.489 219.045 701.968C219.789 701.832 220.503 701.525 220.875 701.457L234.336 698.297L221.715 703.959C220.475 704.539 219.017 704.982 217.715 705.219C215.885 705.73 214.335 706.72 213.002 707.848C214.089 708.535 215.175 709.222 216.417 709.704C223.152 712.903 235.414 718.989 233.568 733.132C232.828 737.515 231.902 741.932 230.356 746.109C227.016 756.276 224.172 764.937 236.142 788.424C240.993 798.161 244.629 804.402 247.365 808.86C253.519 819.422 254.11 820.554 253.319 835.213C252.1 854.907 259.043 877.186 259.075 877.357L256.097 877.9Z" fill="#231F20"/>
<path d="M263.708 495.394L116.715 690.164C145.553 704.913 176.582 709.527 203.689 702.11C205.736 701.737 207.877 701.878 209.708 702.43C211.352 703.015 212.688 704.011 211.976 705.38C209.159 711.026 210.802 710.55 210.802 710.55C211.672 711.1 212.82 711.068 213.688 710.555C214.525 709.872 215.61 709.497 216.758 709.465C217.874 709.262 218.836 709.263 219.27 708.476C219.703 707.689 222.247 707.934 222.743 707.489C223.239 707.045 225.813 706.399 225.44 705.405C225.067 704.411 219.512 703.476 219.973 699.674C220.065 698.064 220.777 696.696 221.892 695.43C222.884 694.542 224.062 693.619 225.488 693.005L225.116 693.073C272.769 665.45 296.053 595.889 275.777 524.704C272.571 514.49 268.682 504.755 263.708 495.394Z" fill="#DEA635"/>
<path d="M98.6499 430.584C24.2552 459.184 -0.65466 545.151 39.4443 615.379C58.903 649.361 86.667 675.104 116.529 690.198L263.521 495.428C231.874 436.759 162.997 405.938 98.6499 430.584ZM46.8696 597.032C19.6886 537.55 42.7251 468.741 104.561 445.085C111.941 442.324 119.447 440.248 127.108 439.03C65.0613 467.858 35.8775 532.476 46.8696 597.032Z" fill="#F5C940"/>
<path d="M1377.66 396.746C1377.7 396.682 1382.65 387.304 1389.26 381.14C1393.83 376.982 1393.92 376.57 1395.35 371.501C1395.99 369.292 1396.85 366.194 1398.42 361.498C1402.32 349.987 1406.05 347.904 1410.4 345.485C1412.09 344.56 1413.72 343.59 1415.19 342.421C1419.49 338.934 1417.99 333.938 1417 331C1416.52 329.444 1416.17 328.544 1416.94 328.123C1417.25 327.955 1417.58 327.896 1417.86 327.902C1417.8 327.857 1417.84 327.792 1417.82 327.683L1417.8 327.29L1418.17 327.167C1418.28 327.148 1418.32 327.083 1418.5 327.108L1418.83 326.2C1419.31 326.34 1421.88 327.24 1422.52 327.863C1422.71 327.997 1422.82 328.261 1422.82 328.544C1422.76 328.782 1422.62 328.976 1422.29 329.035C1421.97 329.093 1421.68 329.088 1421.33 329.037C1421.59 329.217 1421.9 329.332 1422.03 329.421L1427.01 332.438L1421.5 330.478C1420.95 330.293 1420.38 329.999 1419.92 329.685C1419.22 329.301 1418.45 329.155 1417.71 329.118C1417.82 329.665 1417.93 330.212 1418.14 330.739C1419.15 333.786 1420.9 339.419 1415.96 343.416C1414.37 344.605 1412.73 345.749 1410.97 346.629C1406.82 348.9 1403.28 350.834 1399.54 361.978C1397.95 366.564 1397.09 369.662 1396.52 371.916C1395.06 377.159 1394.89 377.7 1390.1 382.18C1383.61 388.151 1378.75 397.4 1378.71 397.464L1377.66 396.746Z" fill="#231F20"/>
<path d="M1498.78 275.957L1394.62 294.574C1398.6 307.962 1406.38 318.745 1416.73 324.481C1417.45 324.975 1418.04 325.662 1418.41 326.388C1418.72 327.069 1418.81 327.79 1418.17 328.017C1415.58 328.989 1416.22 329.329 1416.22 329.329C1416.3 329.766 1416.65 330.1 1417.07 330.195C1417.53 330.226 1417.97 330.43 1418.32 330.764C1418.71 331.033 1419 331.322 1419.37 331.199C1419.75 331.075 1420.43 331.917 1420.71 331.922C1421 331.928 1421.96 332.491 1422.16 332.06C1422.36 331.628 1421 329.663 1422.32 328.578C1422.84 328.087 1423.48 327.86 1424.21 327.787C1424.78 327.798 1425.41 327.854 1426.03 328.084L1425.89 327.995C1448.62 333.387 1477.15 317.984 1493.25 289.004C1495.48 284.757 1497.35 280.459 1498.78 275.957Z" fill="#BA2B1C"/>
<path d="M1469.93 205.642C1438.96 192.55 1404.85 212.745 1394.93 247.357C1390.14 264.122 1390.38 280.724 1394.56 294.529L1498.71 275.912C1507.55 247.551 1496.68 216.995 1469.93 205.642ZM1402.83 243.679C1413.25 216.395 1441.47 201.16 1467.17 212.078C1470.22 213.402 1473.1 214.983 1475.75 216.887C1448.37 207.569 1419.63 219.614 1402.83 243.679Z" fill="#F76251"/>
<path d="M144.655 207.584C144.699 207.52 149.65 198.142 156.263 191.977C160.833 187.82 160.922 187.408 162.355 182.339C162.994 180.13 163.854 177.032 165.419 172.336C169.318 160.825 173.052 158.742 177.4 156.323C179.091 155.398 180.716 154.428 182.188 153.259C186.494 149.772 184.987 144.776 184.003 141.837C183.522 140.281 183.172 139.381 183.941 138.961C184.249 138.793 184.578 138.734 184.863 138.739C184.797 138.695 184.841 138.63 184.819 138.521L184.798 138.128L185.171 138.005C185.281 137.985 185.325 137.921 185.501 137.946L185.831 137.038C186.314 137.178 188.88 138.078 189.516 138.7C189.713 138.835 189.822 139.099 189.822 139.382C189.756 139.62 189.624 139.813 189.295 139.872C188.965 139.931 188.68 139.926 188.329 139.875C188.592 140.055 188.899 140.169 189.031 140.259L194.008 143.276L188.503 141.316C187.954 141.131 187.384 140.837 186.924 140.523C186.222 140.138 185.454 139.993 184.708 139.956C184.817 140.503 184.926 141.05 185.145 141.577C186.15 144.624 187.898 150.257 182.955 154.254C181.373 155.443 179.726 156.587 177.969 157.467C173.819 159.737 170.283 161.672 166.537 172.816C164.951 177.402 164.091 180.5 163.518 182.754C162.062 187.997 161.886 188.538 157.096 193.017C150.614 198.989 145.752 208.237 145.708 208.302L144.655 207.584Z" fill="#231F20"/>
<path d="M265.779 86.7944L161.623 105.412C165.6 118.799 173.376 129.582 183.727 135.319C184.45 135.812 185.042 136.499 185.414 137.226C185.72 137.907 185.807 138.627 185.17 138.854C182.579 139.827 183.215 140.166 183.215 140.166C183.303 140.604 183.653 140.937 184.07 141.033C184.531 141.064 184.969 141.268 185.32 141.602C185.715 141.871 186 142.16 186.373 142.037C186.746 141.913 187.425 142.754 187.711 142.76C187.996 142.766 188.961 143.329 189.159 142.897C189.357 142.466 187.999 140.5 189.317 139.415C189.844 138.925 190.481 138.698 191.205 138.625C191.776 138.636 192.412 138.692 193.027 138.922L192.895 138.832C215.623 144.225 244.151 128.821 260.253 99.8419C262.475 95.5946 264.346 91.2969 265.779 86.7944Z" fill="#BA2B1C"/>
<path d="M236.926 16.4793C205.957 3.38757 171.849 23.5823 161.928 58.1945C157.143 74.9595 157.384 91.5622 161.558 105.367L265.713 86.7495C274.551 58.3892 263.685 27.8326 236.926 16.4793ZM169.833 54.5167C180.249 27.2331 208.469 11.9975 234.175 22.9161C237.223 24.2396 240.096 25.821 242.749 27.7247C215.374 18.4068 186.631 30.452 169.833 54.5167Z" fill="#F76251"/>
<path d="M540.294 445.938L540.452 445.629C540.452 445.629 540.452 445.783 540.294 445.938Z" fill="#BA2B1C"/>
<path d="M1129.67 223.976C1129.2 225.215 1123.66 226.764 1114.5 224.596C1118.45 223.511 1122.72 223.047 1126.82 223.047C1129.99 223.357 1129.67 223.976 1129.67 223.976Z" fill="#DEA635"/>
<path d="M1124.61 49.1013L1124.77 49.566L1124.61 49.1013Z" fill="#DEA635"/>
<path d="M642.21 55.7617C642.21 57.4655 640.788 58.8596 639.05 58.8596C637.312 58.8596 635.89 57.4655 635.89 55.7617C635.89 54.0579 637.312 52.6638 639.05 52.6638C640.788 52.6638 642.21 54.0579 642.21 55.7617Z" fill="white"/>
<path d="M663.383 44.4545C663.383 46.3132 661.803 47.8621 659.907 47.8621C658.011 47.8621 656.431 46.3132 656.431 44.4545C656.431 42.5958 658.011 41.0468 659.907 41.0468C661.803 40.8919 663.383 42.4409 663.383 44.4545Z" fill="#4FB8A4"/>
<path d="M724.849 54.9872C724.849 57.7753 722.479 60.0987 719.635 60.0987C716.791 60.0987 714.421 57.7753 714.421 54.9872C714.421 52.1991 716.791 49.8757 719.635 49.8757C722.479 49.8757 724.849 52.0442 724.849 54.9872C724.849 54.8323 724.849 54.8323 724.849 54.9872Z" fill="#ED6D5F"/>
<path d="M551.987 96.3438C551.987 98.3574 550.407 99.9064 548.353 99.9064C546.299 99.9064 544.718 98.3574 544.718 96.3438C544.718 94.3302 546.299 92.7812 548.353 92.7812C550.407 92.7812 551.987 94.3302 551.987 96.3438Z" fill="white"/>
<path d="M810.806 88.1345C813.599 88.1345 815.863 85.9154 815.863 83.1779C815.863 80.4405 813.599 78.2213 810.806 78.2213C808.014 78.2213 805.75 80.4405 805.75 83.1779C805.75 85.9154 808.014 88.1345 810.806 88.1345Z" fill="#F5C940"/>
<path d="M898.659 73.8843C898.659 76.3626 896.605 78.3762 894.077 78.3762C891.549 78.3762 889.495 76.3626 889.495 73.8843C889.495 71.406 891.549 69.3923 894.077 69.3923C896.605 69.3923 898.659 71.406 898.659 73.8843Z" fill="#ED6D5F"/>
<path d="M693.405 11.3073C693.405 14.0954 691.035 16.4188 688.191 16.4188C685.347 16.4188 682.977 14.0954 682.977 11.3073C682.977 8.51921 685.347 6.1958 688.191 6.1958C691.035 6.35069 693.405 8.51921 693.405 11.3073Z" fill="#ED6D5F"/>
<path d="M712.208 -5.11147C712.208 -1.8587 709.522 0.619598 706.362 0.619598C703.044 0.619598 700.516 -2.01359 700.516 -5.11147C700.516 -8.20934 703.202 -10.8425 706.362 -10.8425C709.68 -10.8425 712.208 -8.20934 712.208 -5.11147Z" fill="white"/>
<path d="M1014.01 5.11149C1014.01 6.35064 1012.9 7.4349 1011.64 7.4349C1010.37 7.4349 1009.27 6.35064 1009.27 5.11149C1009.27 3.87234 1010.37 2.78809 1011.64 2.78809C1012.9 2.78809 1014.01 3.71745 1014.01 5.11149Z" fill="white"/>
<path d="M977.19 10.5328C977.19 11.7719 976.242 12.7013 974.978 12.7013C973.714 12.7013 972.766 11.7719 972.766 10.5328C972.766 9.29362 973.714 8.36426 974.978 8.36426C976.242 8.36426 977.19 9.29362 977.19 10.5328Z" fill="#4FB8A4"/>
<path d="M627.673 24.783C627.673 26.6417 626.093 28.1907 624.197 28.1907C622.301 28.1907 620.721 26.6417 620.721 24.783C620.721 22.9243 622.301 21.3754 624.197 21.3754C626.093 21.3754 627.673 22.9243 627.673 24.783Z" fill="white"/>
<path d="M783.945 53.9029C783.945 56.3812 781.89 58.3948 779.362 58.3948C776.834 58.3948 774.78 56.3812 774.78 53.9029C774.78 51.4246 776.834 49.411 779.362 49.411C781.89 49.411 783.945 51.4246 783.945 53.9029Z" fill="#8AA5BC"/>
<path d="M919.359 67.6885C919.359 69.857 917.621 71.5608 915.408 71.5608C913.196 71.5608 911.458 69.857 911.458 67.6885C911.458 65.52 913.196 63.8162 915.408 63.8162C917.621 63.8162 919.359 65.52 919.359 67.6885Z" fill="#F5C940"/>
<path d="M548.511 72.8C548.511 74.8136 546.773 76.3625 544.718 76.3625C542.664 76.3625 541.084 74.6587 541.084 72.6451C541.084 70.6315 542.822 69.0825 544.718 69.0825C546.931 69.0825 548.511 70.7864 548.511 72.8Z" fill="#4FB8A4"/>
<path d="M633.046 102.694C633.046 104.553 631.466 106.102 629.569 106.102C627.673 106.102 626.251 104.553 626.251 102.694C626.251 100.836 627.831 99.2867 629.727 99.2867C631.466 99.2867 633.046 100.836 633.046 102.694Z" fill="#ED6D5F"/>
<path d="M816.811 129.956C816.811 132.589 814.757 134.603 812.07 134.603C809.384 134.603 807.33 132.589 807.33 129.956C807.33 127.323 809.384 125.309 812.07 125.309C814.757 125.309 816.811 127.323 816.811 129.956Z" fill="white"/>
<path d="M569.368 147.459C569.368 150.092 567.156 152.26 564.47 152.26C561.783 152.26 559.571 150.092 559.571 147.459C559.571 144.825 561.783 142.657 564.47 142.657C567.156 142.657 569.368 144.825 569.368 147.459Z" fill="white"/>
<path d="M604.92 167.44C604.92 170.228 602.708 172.397 599.864 172.397C597.02 172.397 594.807 170.228 594.807 167.44C594.807 164.652 597.02 162.483 599.864 162.483C602.708 162.483 604.92 164.652 604.92 167.44Z" fill="white"/>
<path d="M722.005 185.253C722.005 188.196 719.635 190.674 716.475 190.674C713.472 190.674 710.944 188.351 710.944 185.253C710.944 182.155 713.314 179.832 716.475 179.832C719.477 179.986 722.005 182.31 722.005 185.253Z" fill="#ED6D5F"/>
<path d="M472.034 197.489C472.034 201.362 468.874 204.46 464.924 204.46C460.973 204.46 457.813 201.362 457.813 197.489C457.813 193.617 460.973 190.519 464.924 190.519C468.874 190.519 472.034 193.772 472.034 197.489Z" fill="#4FB8A4"/>
<path d="M525.283 210.036C525.283 213.753 522.281 216.696 518.489 216.696C514.697 216.696 511.694 213.753 511.694 210.036C511.694 206.318 514.697 203.375 518.489 203.375C522.281 203.375 525.283 206.318 525.283 210.036Z" fill="#8AA5BC"/>
<path d="M693.563 193.772C693.563 196.56 691.351 198.729 688.507 198.729C685.663 198.729 683.451 196.56 683.451 193.772C683.451 190.984 685.663 188.815 688.507 188.815C691.351 188.815 693.563 190.984 693.563 193.772Z" fill="#F5C940"/>
<path d="M652.481 179.057C652.481 181.535 650.427 183.394 648.057 183.394C645.528 183.394 643.632 181.38 643.632 179.057C643.632 176.579 645.686 174.72 648.057 174.72C650.585 174.72 652.481 176.734 652.481 179.057Z" fill="white"/>
<path d="M590.383 93.7106C592.303 93.7106 593.859 92.1849 593.859 90.3029C593.859 88.4209 592.303 86.8953 590.383 86.8953C588.463 86.8953 586.907 88.4209 586.907 90.3029C586.907 92.1849 588.463 93.7106 590.383 93.7106Z" fill="#ED6D5F"/>
<path d="M575.214 19.9813C575.214 22.3047 573.318 24.0086 571.106 24.0086C568.894 24.0086 566.998 22.1498 566.998 19.9813C566.998 17.8128 568.894 15.9541 571.106 15.9541C573.318 15.7992 575.214 17.6579 575.214 19.9813Z" fill="#F5C940"/>
<path d="M618.035 43.68C618.035 45.5387 616.613 46.9328 614.717 46.9328C612.821 46.9328 611.398 45.5387 611.398 43.68C611.398 41.8213 612.821 40.4272 614.717 40.4272C616.455 40.4272 618.035 41.8213 618.035 43.68Z" fill="#ED6D5F"/>
<path d="M694.353 79.1507C694.353 81.3192 692.615 83.023 690.403 83.023C688.191 83.023 686.453 81.3192 686.453 79.1507C686.453 76.9822 688.191 75.2783 690.403 75.2783C692.615 75.2783 694.353 76.9822 694.353 79.1507Z" fill="white"/>
<path d="M559.887 114.776C559.887 116.945 558.149 118.648 555.937 118.648C553.725 118.648 551.987 116.945 551.987 114.776C551.987 112.608 553.725 110.904 555.937 110.904C558.149 110.904 559.887 112.608 559.887 114.776Z" fill="#ED6D5F"/>
<path d="M606.5 153.19C606.5 155.668 604.446 157.682 601.918 157.682C599.39 157.682 597.336 155.668 597.336 153.19C597.336 150.711 599.39 148.698 601.918 148.698C604.446 148.543 606.5 150.557 606.5 153.19C606.5 153.19 606.5 153.035 606.5 153.19Z" fill="#F5C940"/>
<path d="M672.706 178.283C672.706 180.761 670.652 182.774 668.124 182.774C665.596 182.774 663.542 180.761 663.542 178.283C663.542 175.804 665.596 173.791 668.124 173.791C670.652 173.636 672.706 175.804 672.706 178.283Z" fill="white"/>
<path d="M579.955 200.587C579.955 203.995 577.11 206.783 573.634 206.783C570.158 206.783 567.314 203.995 567.314 200.587C567.314 197.18 570.158 194.391 573.634 194.391C577.11 194.391 579.955 197.18 579.955 200.587Z" fill="#8AA5BC"/>
<path d="M566.366 191.139C566.366 194.546 563.68 197.18 560.203 197.18C556.727 197.18 554.041 194.546 554.041 191.139C554.041 187.731 556.727 185.098 560.203 185.098C563.68 185.098 566.366 187.886 566.366 191.139Z" fill="#4FB8A4"/>
<path d="M575.53 111.214C577.625 111.214 579.322 109.549 579.322 107.496C579.322 105.443 577.625 103.779 575.53 103.779C573.436 103.779 571.738 105.443 571.738 107.496C571.738 109.549 573.436 111.214 575.53 111.214Z" fill="#8AA5BC"/>
<path d="M582.009 30.0494C582.009 32.2179 580.271 33.9217 578.216 33.9217C576.004 33.9217 574.266 32.2179 574.266 30.2042C574.266 28.1906 576.004 26.3319 578.058 26.3319C580.113 26.3319 581.851 28.0357 582.009 30.0494Z" fill="#8AA5BC"/>
<path d="M587.381 6.81531C587.381 9.13872 585.485 10.8425 583.273 10.8425C580.903 10.8425 579.164 8.98382 579.164 6.81531C579.164 4.49191 581.061 2.78808 583.273 2.78808C585.485 2.63319 587.381 4.49191 587.381 6.81531Z" fill="white"/>
<path d="M602.076 13.4758C604.257 13.4758 606.026 11.7421 606.026 9.60342C606.026 7.46478 604.257 5.73108 602.076 5.73108C599.894 5.73108 598.126 7.46478 598.126 9.60342C598.126 11.7421 599.894 13.4758 602.076 13.4758Z" fill="#ED6D5F"/>
<path d="M614.243 76.6723C616.075 76.6723 617.561 75.216 617.561 73.4195C617.561 71.6231 616.075 70.1667 614.243 70.1667C612.41 70.1667 610.924 71.6231 610.924 73.4195C610.924 75.216 612.41 76.6723 614.243 76.6723Z" fill="#F5C940"/>
<path d="M614.875 110.439C614.875 112.453 613.295 114.002 611.24 114.002C609.186 114.002 607.606 112.453 607.606 110.439C607.606 108.426 609.186 106.877 611.24 106.877C613.295 106.877 614.875 108.426 614.875 110.439Z" fill="white"/>
<path d="M618.667 131.195C618.667 133.363 616.929 135.067 614.717 135.067C612.504 135.067 610.766 133.363 610.766 131.195C610.766 129.026 612.504 127.323 614.717 127.323C616.929 127.323 618.667 129.026 618.667 131.195Z" fill="#4FB8A4"/>
<path d="M616.613 175.959C616.613 178.592 614.401 180.761 611.714 180.761C609.028 180.761 606.816 178.592 606.816 175.959C606.816 173.326 609.028 171.157 611.714 171.157C614.401 171.157 616.613 173.326 616.613 175.959Z" fill="#ED6D5F"/>
<path d="M618.983 231.101C618.983 234.044 616.613 236.523 613.453 236.523C610.292 236.523 607.922 234.199 607.922 231.101C607.922 228.003 610.292 225.68 613.453 225.68C616.613 225.68 618.983 228.003 618.983 231.101Z" fill="#ED6D5F"/>
<path d="M629.886 292.749C632.678 292.749 634.942 290.53 634.942 287.792C634.942 285.055 632.678 282.836 629.886 282.836C627.093 282.836 624.829 285.055 624.829 287.792C624.829 290.53 627.093 292.749 629.886 292.749Z" fill="#4FB8A4"/>
<path d="M634.468 315.054C634.468 317.687 632.256 320.01 629.412 320.01C626.725 320.01 624.355 317.842 624.355 315.054C624.355 312.42 626.567 310.097 629.412 310.097C632.256 310.252 634.468 312.42 634.468 315.054Z" fill="#F5C940"/>
<path d="M631.782 344.328C631.782 346.807 629.728 348.82 627.199 348.82C624.671 348.82 622.617 346.807 622.617 344.328C622.617 341.85 624.671 339.837 627.199 339.837C629.728 339.837 631.782 341.85 631.782 344.328Z" fill="#ED6D5F"/>
<path d="M635.574 392.5C635.574 394.669 633.836 396.373 631.624 396.373C629.411 396.373 627.673 394.669 627.673 392.5C627.673 390.332 629.411 388.628 631.624 388.628C633.836 388.473 635.574 390.332 635.574 392.5Z" fill="#ED6D5F"/>
<path d="M608.396 434.012C610.665 434.012 612.504 432.209 612.504 429.985C612.504 427.761 610.665 425.958 608.396 425.958C606.127 425.958 604.288 427.761 604.288 429.985C604.288 432.209 606.127 434.012 608.396 434.012Z" fill="#4FB8A4"/>
<path d="M621.037 462.358C621.037 464.216 619.457 465.765 617.561 465.765C615.665 465.765 614.085 464.216 614.085 462.358C614.085 460.499 615.665 458.95 617.561 458.95C619.457 458.95 621.037 460.499 621.037 462.358Z" fill="#F5C940"/>
<path d="M646.476 489.928C646.476 491.477 645.212 492.871 643.632 492.871C642.052 492.871 640.63 491.632 640.63 490.083C640.63 488.534 641.894 487.14 643.474 487.14C645.054 487.14 646.476 488.38 646.476 489.928Z" fill="#8AA5BC"/>
<path d="M636.996 531.44C636.996 532.989 635.732 534.383 633.994 534.383C632.256 534.383 630.992 533.144 630.992 531.44C630.992 529.891 632.256 528.497 633.994 528.497C635.732 528.497 636.996 529.891 636.996 531.44Z" fill="#4FB8A4"/>
<path d="M626.883 591.694C626.883 593.243 625.619 594.482 623.881 594.482C622.301 594.482 621.037 593.243 621.037 591.539C621.037 589.835 622.301 588.751 624.039 588.751C625.461 588.751 626.883 590.145 626.883 591.694Z" fill="#F5C940"/>
<path d="M631.94 614.308C631.94 615.857 630.676 617.096 629.095 617.096C627.515 617.096 626.251 615.857 626.251 614.308C626.251 612.759 627.515 611.52 629.095 611.52C630.676 611.52 631.94 612.759 631.94 614.308Z" fill="#4FB8A4"/>
<path d="M635.574 633.67C637.145 633.67 638.418 632.421 638.418 630.882C638.418 629.342 637.145 628.094 635.574 628.094C634.003 628.094 632.73 629.342 632.73 630.882C632.73 632.421 634.003 633.67 635.574 633.67Z" fill="white"/>
<path d="M741.124 585.963C741.124 589.525 738.122 592.468 734.488 592.468C730.853 592.468 727.851 589.525 727.851 585.963C727.851 582.4 730.853 579.457 734.488 579.457C738.122 579.457 741.124 582.4 741.124 585.963Z" fill="#4FB8A4"/>
<path d="M959.809 444.235C959.809 448.262 956.491 451.515 952.383 451.515C948.274 451.515 944.956 448.262 944.956 444.235C944.956 440.208 948.274 436.955 952.383 436.955C956.649 436.955 959.809 440.208 959.809 444.235Z" fill="#ED6D5F"/>
<path d="M1039.76 312.266C1039.76 314.899 1037.71 316.912 1035.02 316.912C1032.34 316.912 1030.28 314.899 1030.28 312.266C1030.28 309.632 1032.34 307.619 1035.02 307.619C1037.71 307.619 1039.76 309.787 1039.76 312.266Z" fill="#4FB8A4"/>
<path d="M1046.08 155.513C1046.08 158.921 1043.24 161.709 1039.76 161.709C1036.29 161.709 1033.44 158.921 1033.44 155.513C1033.44 152.105 1036.29 149.317 1039.76 149.317C1043.24 149.317 1046.08 152.105 1046.08 155.513Z" fill="#F5C940"/>
<path d="M1117.98 -2.01367C1117.98 1.0842 1115.45 3.5625 1112.29 3.5625C1109.13 3.5625 1106.6 1.0842 1106.6 -2.01367C1106.6 -5.11155 1109.13 -7.58984 1112.13 -7.58984C1115.45 -7.58984 1117.98 -5.11155 1117.98 -2.01367Z" fill="white"/>
<path d="M1081.63 -1.39404C1081.63 0.92936 1079.74 2.78808 1077.37 2.78808C1075 2.78808 1073.1 0.92936 1073.1 -1.39404C1073.1 -3.71745 1075 -5.57617 1077.37 -5.57617C1079.74 -5.57617 1081.63 -3.71745 1081.63 -1.39404Z" fill="white"/>
<path d="M1097.12 -2.63323C1097.12 -4.22384e-05 1094.91 2.16847 1092.22 2.16847C1089.53 2.16847 1087.32 -4.22384e-05 1087.32 -2.63323C1087.32 -5.26643 1089.53 -7.43494 1092.22 -7.43494C1094.91 -7.43494 1097.12 -5.42132 1097.12 -2.63323Z" fill="#ED6D5F"/>
<path d="M1081.49 16.9706C1081.5 15.0031 1079.88 13.3999 1077.87 13.39C1075.87 13.38 1074.23 14.967 1074.22 16.9345C1074.21 18.9021 1075.83 20.5051 1077.84 20.5151C1079.84 20.5251 1081.48 18.9381 1081.49 16.9706Z" fill="white"/>
<path d="M1134.88 33.4571C1134.88 36.4 1132.51 38.7234 1129.51 38.7234C1126.51 38.7234 1124.14 36.4 1124.14 33.4571C1124.14 30.5141 1126.51 28.1907 1129.51 28.1907C1132.51 28.1907 1134.88 30.5141 1134.88 33.4571Z" fill="#ED6D5F"/>
<path d="M1090.8 75.5881C1092.89 75.5881 1094.59 73.9237 1094.59 71.8706C1094.59 69.8176 1092.89 68.1532 1090.8 68.1532C1088.7 68.1532 1087.01 69.8176 1087.01 71.8706C1087.01 73.9237 1088.7 75.5881 1090.8 75.5881Z" fill="#8AA5BC"/>
<path d="M1057.46 99.9064C1057.46 102.54 1055.25 104.708 1052.56 104.708C1049.87 104.708 1047.66 102.54 1047.66 99.9064C1047.66 97.2732 1049.87 95.1047 1052.56 95.1047C1055.25 95.1047 1057.46 97.2732 1057.46 99.9064Z" fill="#4FB8A4"/>
<path d="M1122.24 111.988C1122.24 114.621 1120.03 116.79 1117.34 116.79C1114.66 116.79 1112.45 114.621 1112.45 111.988C1112.45 109.355 1114.66 107.186 1117.34 107.186C1120.03 107.186 1122.24 109.355 1122.24 111.988Z" fill="white"/>
<path d="M1145 111.059C1145 113.847 1142.78 116.015 1139.94 116.015C1137.1 116.015 1134.88 113.847 1134.88 111.059C1134.88 108.271 1137.1 106.102 1139.94 106.102C1142.78 105.947 1145 108.271 1145 111.059Z" fill="#4FB8A4"/>
<path d="M1120.82 151.641C1120.82 154.894 1118.13 157.527 1114.82 157.527C1111.5 157.527 1108.81 154.894 1108.81 151.641C1108.81 148.388 1111.5 145.755 1114.82 145.755C1118.13 145.755 1120.82 148.388 1120.82 151.641Z" fill="#ED6D5F"/>
<path d="M1154.48 168.214C1154.48 171.467 1151.79 174.1 1148.47 174.1C1145.15 174.1 1142.47 171.467 1142.47 168.214C1142.47 164.962 1145.15 162.328 1148.47 162.328C1151.79 162.328 1154.48 164.962 1154.48 168.214Z" fill="#F5C940"/>
<path d="M1167.91 211.585C1170.7 211.585 1172.96 209.366 1172.96 206.628C1172.96 203.891 1170.7 201.672 1167.91 201.672C1165.11 201.672 1162.85 203.891 1162.85 206.628C1162.85 209.366 1165.11 211.585 1167.91 211.585Z" fill="#4FB8A4"/>
<path d="M1188.76 241.634C1188.76 244.267 1186.55 246.436 1183.87 246.436C1181.18 246.436 1178.97 244.267 1178.97 241.634C1178.97 239.001 1181.18 236.832 1183.87 236.832C1186.55 236.832 1188.76 239.001 1188.76 241.634Z" fill="#ED6D5F"/>
<path d="M1157.95 248.449C1157.95 250.618 1156.21 252.322 1154 252.322C1151.79 252.322 1150.05 250.618 1150.05 248.449C1150.05 246.281 1151.79 244.577 1154 244.577C1156.21 244.577 1157.95 246.281 1157.95 248.449Z" fill="white"/>
<path d="M1074.21 268.895C1074.21 270.909 1072.47 272.613 1070.42 272.613C1068.36 272.613 1066.62 270.909 1066.62 268.895C1066.62 266.882 1068.36 265.178 1070.42 265.178C1072.47 265.178 1074.21 266.882 1074.21 268.895Z" fill="#8AA5BC"/>
<path d="M1134.88 295.382C1134.88 297.705 1132.99 299.564 1130.62 299.564C1128.25 299.564 1126.35 297.705 1126.35 295.382C1126.35 293.059 1128.25 291.2 1130.62 291.2C1132.99 291.2 1134.88 293.059 1134.88 295.382Z" fill="#ED6D5F"/>
<path d="M1168.38 317.532C1168.38 320.785 1165.7 323.418 1162.38 323.418C1159.06 323.418 1156.37 320.785 1156.37 317.532C1156.37 314.279 1159.06 311.646 1162.38 311.646C1165.85 311.801 1168.38 314.279 1168.38 317.532Z" fill="#F5C940"/>
<path d="M1084.95 377.476C1084.95 380.109 1082.9 382.123 1080.21 382.123C1077.53 382.123 1075.47 380.109 1075.47 377.476C1075.47 374.843 1077.53 372.829 1080.21 372.829C1082.9 372.829 1084.95 374.843 1084.95 377.476Z" fill="#F5C940"/>
<path d="M1135.2 426.112C1135.2 427.661 1133.94 428.9 1132.36 428.9C1130.78 428.9 1129.51 427.661 1129.51 426.112C1129.51 424.563 1130.78 423.324 1132.36 423.324C1133.94 423.324 1135.2 424.563 1135.2 426.112Z" fill="#4FB8A4"/>
<path d="M1186.24 526.019C1186.24 527.877 1184.81 529.271 1182.92 529.271C1181.02 529.271 1179.6 527.877 1179.6 526.019C1179.6 524.16 1181.02 522.766 1182.92 522.766C1184.81 522.766 1186.24 524.16 1186.24 526.019Z" fill="#F5C940"/>
<path d="M1205.04 585.188C1205.04 586.737 1203.78 588.131 1202.04 588.131C1200.3 588.131 1199.04 586.892 1199.04 585.188C1199.04 583.484 1200.3 582.245 1202.04 582.245C1203.62 582.245 1205.04 583.484 1205.04 585.188Z" fill="#4FB8A4"/>
<path d="M1203.14 595.101C1203.14 596.96 1201.56 598.354 1199.83 598.354C1197.93 598.354 1196.51 596.805 1196.51 595.101C1196.51 593.243 1198.09 591.848 1199.83 591.848C1201.56 591.848 1203.14 593.243 1203.14 595.101Z" fill="white"/>
<path d="M448.41 396.18C466.739 405.474 485.858 408.417 502.607 403.46C503.871 403.151 505.135 403.306 506.399 403.615C507.506 404.08 508.296 404.7 507.98 405.474C506.399 409.192 507.347 408.882 507.347 408.882C507.822 409.192 508.612 409.192 509.086 408.882C509.56 408.417 510.35 408.107 510.982 408.107C511.772 407.952 512.246 407.952 512.562 407.488C512.878 407.023 514.458 407.178 514.774 406.868C515.09 406.558 516.67 406.094 516.354 405.474C516.038 404.855 512.72 404.235 512.72 401.757C512.72 400.672 513.194 399.743 513.826 398.814C514.458 398.194 515.248 397.575 516.038 397.265L515.722 397.42C542.11 380.846 555.224 341.658 547.008 299.527L448.41 396.18Z" fill="#6DB3A9"/>
<path d="M539.581 520.095C539.423 519.476 534.525 504.916 534.841 491.44C534.999 482.301 534.841 481.992 530.733 475.021C528.995 472.078 526.625 467.896 523.148 461.391C514.774 445.127 516.512 438.931 518.408 431.806C519.198 429.173 519.672 426.385 519.988 423.597C520.778 415.542 513.984 412.135 509.876 410.121C507.664 409.037 506.241 408.262 506.557 406.868C506.715 406.558 506.873 406.094 507.031 405.784L506.399 405.319L506.873 403.925L506.241 402.841C507.98 401.912 510.034 401.137 511.93 400.518C512.404 400.518 512.878 400.672 513.194 401.137C513.51 401.602 513.51 402.066 513.194 402.531C513.194 402.686 513.036 402.686 513.036 402.841H513.194L524.412 399.898L514.142 404.855C513.352 405.164 512.404 405.474 511.614 405.629C510.666 405.939 509.718 406.403 508.928 407.023C509.402 407.333 510.192 407.643 510.824 407.952C515.09 410.121 523.148 414.148 522.358 423.752C522.042 426.695 521.41 429.638 520.62 432.426C518.724 439.396 517.302 444.817 525.203 460.306C528.521 466.812 530.891 470.839 532.629 473.782C536.895 480.907 537.211 481.837 537.053 491.44C536.737 504.606 541.636 519.166 541.636 519.321L539.581 520.095Z" fill="#231F20"/>
<path d="M543.532 285.277C541.478 278.461 538.791 271.956 535.315 265.76C514.142 226.882 470.215 206.591 430.397 223.319C384.416 242.526 370.827 299.837 397.689 346.305C410.646 368.764 428.659 385.803 447.778 395.716L448.568 396.026L547.166 299.217C546.218 294.57 544.954 289.923 543.532 285.277ZM401.797 334.068C383.31 294.57 396.109 248.877 434.347 232.923C438.929 231.064 443.512 229.67 448.41 228.741C410.172 248.102 393.265 291.163 401.797 334.068Z" fill="#92E2D8"/>
<path d="M627.302 337.51C637.066 346.249 648.371 351.254 659.525 351.052C660.356 351.076 661.11 351.383 661.839 351.784C662.444 352.252 662.828 352.762 662.505 353.181C660.914 355.178 661.55 355.149 661.55 355.149C661.791 355.417 662.278 355.55 662.622 355.441C662.991 355.238 663.53 355.182 663.92 355.288C664.433 355.327 664.725 355.406 664.997 355.177C665.269 354.947 666.218 355.307 666.465 355.171C666.711 355.036 667.763 355.019 667.671 354.588C667.579 354.158 665.635 353.223 666.046 351.715C666.225 351.055 666.672 350.569 667.216 350.109C667.709 349.838 668.299 349.594 668.838 349.538L668.617 349.579C687.643 343.926 702.233 322.275 704.154 295.247L627.302 337.51Z" fill="#527FA7"/>
<path d="M662.331 429.063C662.341 428.657 661.859 418.932 664.3 410.716C665.921 405.136 665.879 404.921 664.599 399.979C664.056 397.891 663.345 394.942 662.363 390.387C660.098 379.052 662.168 375.533 664.487 371.47C665.398 369.983 666.146 368.35 666.8 366.691C668.617 361.878 665.142 358.686 663.034 356.784C661.898 355.76 661.181 355.055 661.602 354.251C661.748 354.086 661.92 353.827 662.066 353.663L661.767 353.275L662.283 352.497L662.088 351.729C663.277 351.441 664.629 351.299 665.862 351.226C666.144 351.303 666.4 351.475 666.51 351.812C666.621 352.148 666.543 352.433 666.277 352.667C666.251 352.762 666.157 352.736 666.132 352.831L666.226 352.857L673.395 352.871L666.453 354.246C665.931 354.308 665.315 354.344 664.819 354.311C664.203 354.347 663.561 354.478 662.987 354.73C663.218 354.997 663.636 355.315 663.96 355.608C666.137 357.63 670.26 361.407 668.185 367.17C667.505 368.924 666.637 370.627 665.7 372.209C663.407 376.177 661.654 379.272 663.767 390.055C664.655 394.584 665.392 397.439 665.935 399.526C667.283 404.589 667.316 405.21 665.616 411.075C663.227 419.1 663.709 428.826 663.683 428.921L662.331 429.063Z" fill="#231F20"/>
<path d="M704.185 285.347C704.066 280.817 703.508 276.372 702.413 271.985C695.936 244.563 672.394 224.758 645.175 228.38C613.761 232.494 595.833 265.429 604.528 298.464C608.714 314.426 616.909 327.903 626.975 337.188L627.407 337.51L704.08 294.518C704.277 291.505 704.279 288.439 704.185 285.347ZM609.096 291.634C604.37 264.28 619.868 238.349 645.989 234.939C649.111 234.563 652.154 234.473 655.314 234.72C628.622 240.224 611.046 263.851 609.096 291.634Z" fill="#79A3C7"/>
<path d="M871.675 404.856L869.779 403.462C869.779 403.307 876.889 393.394 877.679 373.103C878.311 357.149 885.105 348.63 889.688 343.054C890.952 341.66 892.058 340.111 893.006 338.562C893.954 336.703 895.06 335.154 896.482 333.45C900.906 327.564 906.437 320.284 901.38 313.314C898.536 309.442 897.43 305.724 898.062 302.627C898.536 300.458 899.8 298.599 901.696 297.36L902.961 299.374L902.329 298.444L902.961 299.374C901.696 300.303 900.748 301.697 900.432 303.246C899.958 305.724 900.906 308.822 903.435 312.075C909.597 320.439 902.803 329.113 898.536 334.999C897.272 336.393 896.324 337.942 895.376 339.646C894.428 341.505 893.164 343.054 891.742 344.603C887.318 349.869 880.839 358.079 880.207 373.258C879.259 394.324 871.991 404.392 871.675 404.856Z" fill="black"/>
<path d="M893.954 286.982C896.64 289.151 899.484 291.01 902.645 292.559C903.593 293.023 904.225 293.798 904.699 294.727C905.015 295.502 905.173 296.276 904.541 296.586C901.539 297.825 902.171 298.135 902.171 298.135C902.171 298.135 902.329 299.064 903.119 299.064C903.751 299.064 904.225 299.219 904.699 299.684C905.173 299.993 905.489 300.303 905.963 300.148C906.437 299.993 907.227 300.923 907.543 300.923C907.859 300.923 909.123 301.542 909.281 301.078C909.439 300.613 907.859 298.29 909.281 296.896C909.913 296.276 910.703 295.966 911.493 295.811C912.283 295.811 912.915 295.811 913.705 295.966L913.547 295.811C940.883 300.923 974.381 281.251 992.552 246.09C1003.14 225.799 1004.4 203.34 997.45 184.907L893.954 286.982Z" fill="#DEA635"/>
<path d="M962.214 149.747C924.924 135.961 884.789 161.673 874.203 203.03C865.196 237.726 874.361 271.028 894.112 287.137L997.766 185.527C991.762 168.953 978.805 155.787 962.214 149.747ZM879.733 216.815C878.153 223.011 877.047 229.362 876.257 235.713C875.467 225.025 876.415 214.492 879.101 204.114C887.002 173.445 912.757 152.07 940.409 151.915C912.125 159.505 888.108 183.978 879.733 216.815Z" fill="#F5C940"/>
<path d="M925.712 252.893L827.115 349.547C844.022 360.544 862.351 365.036 878.942 361.474C880.206 361.319 881.312 361.474 882.418 361.938C883.366 362.403 884.156 363.023 883.682 363.797C881.944 367.05 882.892 366.895 882.892 366.895C883.366 367.205 883.998 367.36 884.472 367.05C884.946 366.74 885.578 366.43 886.368 366.43C887 366.43 887.632 366.43 887.948 365.966C888.264 365.501 889.686 365.811 890.002 365.501C890.318 365.191 891.898 365.036 891.582 364.417C891.266 363.797 888.264 362.868 888.422 360.699C888.58 359.77 889.054 358.84 889.686 358.066C890.318 357.446 891.108 356.982 891.898 356.672L891.582 356.827C920.182 341.802 935.983 299.516 926.028 254.442C926.028 253.977 925.87 253.358 925.712 252.893Z" fill="#BA2B1C"/>
<path d="M886.368 460.296C886.21 459.521 881.944 439.54 889.37 421.727C893.953 410.73 891.74 404.689 890.16 399.887C889.212 396.944 888.264 394.621 889.212 391.833C891.266 385.792 891.582 380.835 886.842 376.498C882.102 372.161 883.366 367.824 884.472 365.966L886.526 367.205C886.368 367.36 884.314 370.922 888.422 374.795C894.269 380.371 893.163 386.876 891.424 392.452C890.792 394.466 891.424 396.48 892.372 399.113C894.111 404.069 896.481 410.73 891.582 422.502C884.472 439.695 888.738 459.521 888.738 459.831L886.368 460.296Z" fill="#231F20"/>
<path d="M825.219 188.458C780.818 203.018 763.753 255.372 785.242 300.6C795.355 321.976 810.366 338.859 826.957 349.547L925.554 252.893C914.336 205.031 869.145 174.052 825.219 188.458ZM839.123 192.33C798.357 205.651 778.29 247.472 785.716 290.068C771.337 249.64 787.928 205.96 826.799 193.259C833.593 190.936 840.861 189.852 848.13 190.006C845.128 190.471 842.125 191.246 839.123 192.33Z" fill="#F76251"/>
<path d="M1114.58 693.731C1114.58 693.576 1112.21 672.666 1116.16 655.163C1119 643.236 1118.69 642.461 1115.37 632.548C1113.95 628.211 1111.89 622.17 1109.21 612.722C1102.73 589.488 1106.52 581.898 1110.94 573.069C1112.68 569.661 1114.26 566.254 1115.37 562.691C1118.53 552.158 1110.47 545.653 1105.57 541.935C1103.04 539.922 1101.46 538.837 1102.25 537.289C1102.57 536.669 1103.04 536.204 1103.52 535.895C1103.36 535.895 1103.36 535.74 1103.2 535.585L1102.73 534.965L1103.2 534.346C1103.36 534.191 1103.36 534.036 1103.67 533.881L1103.2 532.022C1104.15 531.712 1109.36 530.318 1111.1 530.628C1111.58 530.628 1112.05 530.938 1112.37 531.403C1112.52 531.867 1112.52 532.332 1112.05 532.797C1111.58 533.261 1111.1 533.571 1110.47 533.881C1111.1 533.881 1111.73 533.726 1112.05 533.726L1123.58 533.106L1112.37 536.049C1111.26 536.359 1110 536.514 1108.89 536.514C1107.31 536.669 1105.89 537.289 1104.62 538.063C1105.41 538.837 1106.2 539.612 1107.15 540.232C1112.21 544.104 1121.37 551.384 1117.74 563.466C1116.47 567.183 1115.05 570.9 1113.16 574.308C1108.89 582.672 1105.25 589.797 1111.58 612.257C1114.1 621.551 1116.16 627.592 1117.74 631.929C1121.21 642.152 1121.53 643.236 1118.69 655.937C1114.74 672.975 1117.11 693.576 1117.11 693.731H1114.58Z" fill="#231F20"/>
<path d="M1178.1 360.245L1028.15 507.239C1049.64 524.742 1074.44 533.726 1097.83 531.557C1099.57 531.557 1101.3 532.022 1102.73 532.797C1103.99 533.571 1104.94 534.655 1104.15 535.74C1100.99 540.232 1102.41 540.077 1102.41 540.077C1103.04 540.696 1103.99 540.851 1104.78 540.541C1105.57 540.077 1106.52 539.922 1107.47 540.077C1108.42 540.077 1109.21 540.232 1109.68 539.612C1110.15 538.992 1112.21 539.612 1112.68 539.302C1113.16 538.992 1115.37 538.837 1115.21 537.908C1115.05 536.979 1110.63 535.275 1111.58 532.022C1111.89 530.628 1112.68 529.544 1113.79 528.614C1114.74 527.995 1115.84 527.375 1117.11 527.066H1116.79C1160.08 510.492 1189.63 453.336 1183.63 387.816C1182.52 378.368 1180.78 369.229 1178.1 360.245Z" fill="#527FA7"/>
<path d="M1052.16 277.222C986.748 290.388 953.408 361.639 975.845 429.483C986.748 462.32 1005.71 489.272 1027.99 507.239L1177.94 360.245C1160.72 303.864 1108.73 265.915 1052.16 277.222ZM984.694 414.613C971.263 358.232 1000.49 301.695 1054.85 290.853C1061.33 289.614 1067.81 288.994 1074.29 289.149C1018.98 304.483 985.326 356.373 984.694 414.613Z" fill="#79A3C7"/>
<path d="M278.715 187.896L262.18 147.004L299.205 148.243L278.715 187.896Z" fill="#F76251"/>
<path d="M316.639 188.98L299.205 148.243L336.41 149.018L316.639 188.98Z" fill="#F5C940"/>
<path d="M354.203 189.6L336.41 149.018L373.615 149.637L354.203 189.6Z" fill="#92E2D8"/>
<path d="M391.588 190.065L373.615 149.637L410.64 149.792L391.588 190.065Z" fill="#79A3C7"/>
<path d="M429.512 190.065L410.64 149.792L447.845 149.637L429.512 190.065Z" fill="#F76251"/>
<path d="M467.256 189.6L447.845 149.637L485.049 149.173L467.256 189.6Z" fill="#F5C940"/>
<path d="M504.281 189.135L485.049 149.173L522.075 148.553L504.281 189.135Z" fill="#92E2D8"/>
<path d="M542.205 188.206L522.075 148.553L559.279 147.469L542.205 188.206Z" fill="#79A3C7"/>
<path d="M579.769 186.967L559.279 147.469L596.304 146.075L579.769 186.967Z" fill="#F76251"/>
<path d="M617.154 185.573L596.304 146.075L633.509 144.526L617.154 185.573Z" fill="#F5C940"/>
<path d="M654.898 183.714L633.509 144.526L670.534 142.512L654.898 183.714Z" fill="#92E2D8"/>
<path d="M692.462 181.545L670.534 142.512L707.56 140.189L692.462 181.545Z" fill="#79A3C7"/>
<path d="M729.487 179.222L707.56 140.189L744.585 137.865L729.487 179.222Z" fill="#F76251"/>
<path d="M767.231 176.589L744.585 137.865L781.61 135.077L767.231 176.589Z" fill="#F5C940"/>
<path d="M804.795 173.491L781.61 135.077L818.635 131.825L804.795 173.491Z" fill="#92E2D8"/>
<path d="M842 170.083L818.635 131.825L855.48 128.417L842 170.083Z" fill="#79A3C7"/>
<path d="M879.565 166.521L855.48 128.417L892.326 124.545L879.565 166.521Z" fill="#F76251"/>
<path d="M916.949 162.339L892.326 124.545L929.171 120.363L916.949 162.339Z" fill="#F5C940"/>
<path d="M954.154 157.847L929.171 120.363L966.016 115.716L954.154 157.847Z" fill="#92E2D8"/>
<path d="M991.718 153.045L966.016 115.716L1002.68 110.759L991.718 153.045Z" fill="#79A3C7"/>
<path d="M1028.74 147.779L1002.68 110.759L1039.35 105.338L1028.74 147.779Z" fill="#F76251"/>
<path d="M1066.13 142.048L1039.35 105.338L1075.83 99.4519L1066.13 142.048Z" fill="#F5C940"/>
<path d="M1103.33 135.852L1075.83 99.4518L1112.14 93.1012L1103.33 135.852Z" fill="#92E2D8"/>
<path d="M1140.18 129.191L1112.14 93.1012L1148.45 86.4408L1140.18 129.191Z" fill="#79A3C7"/>
<path d="M1177.38 122.066L1148.45 86.4408L1184.75 79.1608L1177.38 122.066Z" fill="#F76251"/>
<path d="M1214.05 114.322L1184.75 79.1608L1220.7 71.2612L1214.05 114.322Z" fill="#F5C940"/>
<path d="M1250.53 106.267L1220.7 71.2613L1256.65 63.2068L1250.53 106.267Z" fill="#92E2D8"/>
<path d="M1287.56 97.4382L1256.65 63.2067L1292.23 54.2229L1287.56 97.4382Z" fill="#79A3C7"/>
<path d="M1323.87 87.9897L1292.23 54.2229L1327.82 44.7744L1323.87 87.9897Z" fill="#F76251"/>
<path d="M1327.46 44C1083.38 111.689 806.772 135.697 617.693 144.061C412.796 153.2 263.618 146.075 262.18 146.075L262 147.934C263.438 148.089 412.617 155.059 617.693 146.075C630.094 145.455 642.855 144.836 655.796 144.216C842.899 134.458 1099.74 109.055 1328 45.8587L1327.46 44Z" fill="black"/>
<path d="M746.925 462.483C746.925 462.483 761.778 433.518 789.43 413.536C802.07 404.398 820.399 388.753 817.239 379.615C814.079 370.476 809.971 362.576 807.601 360.408C807.601 360.408 809.655 363.506 802.702 369.082C795.75 374.658 770.785 397.737 758.302 415.86C745.819 433.982 734.6 460.469 734.6 460.469L746.925 462.483Z" fill="#79A3C7"/>
<path d="M807.917 337.019C807.917 337.019 797.804 346.777 786.269 355.606C774.735 364.435 765.254 370.94 766.044 376.517L759.092 352.663C759.092 352.663 755.774 344.454 766.834 335.78C777.895 327.106 824.982 295.662 807.127 279.398C807.127 279.398 813.289 282.651 815.659 302.942C818.661 327.415 812.025 333.146 807.917 337.019Z" fill="#79A3C7"/>
<path d="M747.557 280.483L744.239 255.854C744.239 255.854 742.185 249.194 764.306 236.028C784.373 224.101 817.239 213.104 805.705 199.009C805.705 199.009 810.603 203.346 811.077 217.751C811.709 236.803 810.919 239.746 798.752 246.871C786.586 253.996 768.098 264.374 768.098 264.374C768.098 264.374 747.241 274.906 747.557 280.483Z" fill="#79A3C7"/>
<path d="M742.975 196.84C742.975 196.84 742.501 183.054 742.659 177.014C742.817 170.973 743.449 165.087 757.354 160.75C771.259 156.413 807.443 149.907 802.86 133.953C802.86 133.953 804.915 137.051 801.754 158.736C798.278 183.054 770.468 181.97 763.358 184.294C756.248 186.617 742.501 189.715 742.975 196.84Z" fill="#79A3C7"/>
<path d="M802.702 369.082C808.391 364.59 808.075 361.647 807.759 360.717C807.759 360.563 807.601 360.563 807.601 360.408C805.231 356.38 787.376 357 784.373 357.155C773.787 365.364 765.254 371.405 766.044 376.672C769.362 381.783 789.114 381.473 789.114 381.473C795.118 375.587 800.174 371.095 802.702 369.082Z" fill="#527FA7"/>
<path d="M742.975 196.53C742.975 202.726 755.458 207.992 771.259 210.935C787.059 213.878 795.434 219.145 795.434 219.145C805.547 212.794 811.709 206.289 805.705 199.009C803.65 196.066 793.538 192.968 785.479 190.799C778.211 188.786 766.202 184.758 763.832 183.984L763.358 184.139C756.406 186.462 742.817 189.715 742.975 196.53Z" fill="#527FA7"/>
<path d="M747.557 280.483C748.347 285.129 752.139 287.143 770.153 291.945C781.845 295.043 793.222 298.915 804.283 303.407C810.919 295.043 813.921 286.678 807.917 280.328L807.127 279.553C791.8 268.091 767.94 264.374 767.94 264.374C767.94 264.374 747.241 274.906 747.557 280.483Z" fill="#527FA7"/>
<path d="M803.176 135.192C803.176 134.728 803.018 134.263 802.86 133.798C798.91 122.026 781.055 111.184 756.722 91.8222C739.815 78.3464 732.862 67.8137 730.176 62.5473C728.28 58.2102 728.122 53.2536 730.018 48.9166C725.91 57.126 723.224 65.9549 722.276 75.0936V75.2485C722.276 75.4034 722.276 75.7132 722.276 75.7132C721.802 99.7217 745.819 120.787 764.464 129.926C783.741 139.375 790.852 149.597 791.01 149.907C792.432 149.288 793.696 148.513 794.96 147.739L795.276 147.429L796.066 146.809L796.54 146.5L797.33 146.035L797.804 145.57C797.962 145.415 798.278 145.26 798.436 145.106L798.91 144.641C799.068 144.486 799.226 144.331 799.542 144.176C799.858 144.021 799.858 143.866 800.016 143.712L800.49 143.247C800.806 142.937 800.964 142.627 801.28 142.163L801.438 141.853L801.912 141.078C801.912 140.923 802.07 140.769 802.07 140.614C802.07 140.459 802.228 140.149 802.386 139.839C802.544 139.529 802.544 139.529 802.544 139.374L802.702 138.6L802.86 138.135C802.86 137.826 802.86 137.671 802.86 137.361C802.86 137.051 802.86 137.051 802.86 136.896C802.86 136.586 802.86 136.277 802.86 135.967C803.176 135.502 803.176 135.347 803.176 135.192Z" fill="#527FA7"/>
<path d="M796.54 -7H755.458C738.235 6.94043 726.7 26.457 722.592 47.9872C721.96 57.2808 721.802 66.5745 722.276 76.023C722.276 76.023 723.066 21.9651 796.54 -7Z" fill="#79A3C7"/>
<path d="M422.655 144.478C427.711 160.123 438.771 173.134 453.624 180.724C454.888 181.343 455.994 181.808 456.785 182.118C456.943 177.626 457.575 173.134 458.523 168.797C458.839 167.248 459.155 165.699 459.945 164.15C430.239 159.503 423.445 146.182 422.655 144.478Z" fill="#BA2B1C"/>
<path d="M503.239 175.457C501.501 164.46 472.585 168.642 463.263 183.666C462.947 184.131 462.789 184.441 462.631 184.751C462.631 184.751 472.743 189.088 489.018 186.3C505.293 183.511 503.239 175.457 503.239 175.457Z" fill="#BA2B1C"/>
<path d="M498.815 151.913C498.815 151.913 498.657 148.97 494.391 146.957C490.125 144.943 471.795 142 459.945 164.15C459.313 165.699 458.839 167.248 458.523 168.797C457.575 173.134 456.943 177.626 456.785 182.118H456.627L456.785 182.737C456.785 182.737 455.362 201.789 461.999 213.251C461.525 212.322 454.098 198.381 463.263 183.821C472.743 168.797 501.501 164.615 503.239 175.612L498.815 151.913Z" fill="#F76251"/>
<path d="M510.508 239.893L510.666 213.716C510.666 212.322 509.718 211.083 508.454 210.618C505.767 209.843 491.863 209.379 478.432 215.884C465.001 222.39 459.945 232.613 459.155 237.724C459.155 237.724 457.417 255.227 456.626 262.507C455.836 269.787 456.31 275.518 464.843 283.573C464.843 283.573 456.152 275.054 457.575 266.844C458.997 258.635 463.421 251.51 480.96 243.3C498.499 235.091 509.876 238.034 510.508 239.893Z" fill="#F76251"/>
<path d="M461.367 186.764C457.891 194.199 457.733 202.563 460.577 210.153C462.315 214.49 464.843 218.517 467.845 222.08L468.161 222.39C471.163 219.757 474.482 217.433 478.274 215.729C482.54 213.716 486.964 212.167 491.705 211.237C478.59 207.83 467.529 198.846 461.367 186.764Z" fill="#BA2B1C"/>
<path d="M510.508 239.893C510.034 238.499 503.713 236.64 493.285 239.118C497.867 240.358 502.607 240.822 507.348 240.822C510.824 240.667 510.508 239.893 510.508 239.893Z" fill="#BA2B1C"/>
<path d="M513.51 304.793V275.208C513.51 275.208 513.826 273.969 508.138 273.814C508.138 273.814 459.945 276.293 451.57 305.877C442.564 337.786 442.406 351.261 448.568 358.541C448.568 358.541 442.564 350.642 447.304 339.18C452.044 327.717 462.315 318.734 476.378 312.848C490.441 306.962 507.506 304.019 513.51 304.793Z" fill="#F76251"/>
<path d="M460.261 277.687C461.367 279.546 462.631 281.249 464.053 282.798L464.843 283.728C465.633 284.502 466.581 285.277 467.529 285.896C481.592 277.067 499.921 274.589 506.083 274.124V273.969C476.536 270.252 464.527 253.988 464.527 253.833C460.735 257.241 458.365 261.888 457.575 266.999C457.259 270.097 457.733 273.195 459.313 275.828C459.471 276.293 459.945 276.912 460.261 277.687Z" fill="#BA2B1C"/>
<path d="M514.3 369.849C514.3 369.849 511.298 386.267 509.402 396.026C507.506 405.784 506.241 406.558 499.921 407.798C493.601 409.037 472.269 411.515 459.945 416.627C447.62 421.738 444.302 425.146 448.726 432.271C448.726 432.271 445.25 429.173 446.198 416.627C447.304 402.531 448.41 398.039 449.042 392.928C449.042 392.928 449.2 389.21 457.575 384.873C465.317 381.001 473.692 378.523 482.382 377.284C488.86 376.509 513.036 374.805 514.3 369.849Z" fill="#F76251"/>
<path d="M471.005 379.762C474.64 378.677 478.432 377.903 482.382 377.438C488.86 376.509 513.036 374.805 514.3 369.849C513.984 366.131 493.917 355.908 477.484 345.995C460.419 335.617 455.994 326.169 455.994 326.014C452.202 329.731 449.2 334.223 447.146 339.025C442.564 350.487 448.41 358.386 448.41 358.386C448.41 358.386 448.568 358.541 448.726 358.696C459.471 371.552 468.161 377.903 471.005 379.762Z" fill="#BA2B1C"/>
<path d="M484.436 440.79C478.906 440.48 473.376 440.79 468.003 442.029C464.211 442.803 464.211 443.733 462.315 448.534C460.419 453.336 455.204 469.6 455.204 469.6C453.624 475.796 454.888 476.26 454.888 476.26C453.308 472.233 461.841 472.388 468.951 472.233C476.062 472.078 481.276 471.614 489.018 471.149C496.761 470.684 497.077 466.657 499.605 457.983C501.817 450.238 504.345 440.635 504.977 438.157C503.397 442.339 491.231 441.254 484.436 440.79Z" fill="#F76251"/>
<path d="M505.135 436.298C505.135 436.143 505.135 435.988 505.135 435.988C505.135 435.833 505.135 435.678 505.135 435.678C504.977 435.369 504.819 434.904 504.661 434.749C503.397 432.58 499.605 429.637 492.021 424.991C481.75 418.64 472.111 413.064 472.111 413.064C468.003 413.993 463.895 415.232 460.103 416.781C447.778 421.893 444.46 425.3 448.884 432.426C451.886 435.988 463.737 443.423 464.527 443.888C465.475 442.803 466.739 442.184 468.003 442.184C473.376 441.1 478.906 440.635 484.436 440.945C491.389 441.254 503.397 442.494 504.977 438.312C505.135 437.537 505.293 436.917 505.135 436.298Z" fill="#BA2B1C"/>
<path d="M523.465 485.709C514.774 479.049 505.293 473.472 495.181 468.98C493.443 470.529 491.231 471.304 488.86 471.304C481.118 471.769 475.904 472.233 468.793 472.388C461.683 472.543 453.15 472.388 454.73 476.415C461.683 484.934 481.908 495.003 501.343 505.535C520.778 516.068 525.361 531.557 525.361 531.557C528.521 523.348 528.047 505.38 528.047 505.38C540.372 500.734 535.631 495.467 523.465 485.709Z" fill="#BA2B1C"/>
<path d="M535.315 498.875C535.473 501.353 533.261 503.522 528.047 505.535C528.047 505.535 528.521 523.348 525.361 531.712C536.737 505.535 535.315 498.875 535.315 498.875Z" fill="#F76251"/>
<path d="M456.785 182.117C450.464 179.484 427.237 168.022 420.442 136.579C415.702 114.429 417.124 100.179 422.022 86.0835C425.183 76.7898 429.923 67.6511 435.295 56.6537C447.62 31.2511 454.256 7.55239 453.94 -11.0348L429.291 -13.0485C429.291 -13.0485 425.815 18.24 418.704 33.5745C412.858 46.1209 396.425 76.3252 398.953 108.698C399.427 115.823 401.007 122.948 403.535 129.763C416.334 164.46 449.2 179.175 456.785 182.117Z" fill="#F76251"/>
<path d="M1094.19 216.659L1094.35 239.738C1094.35 240.977 1093.56 242.061 1092.3 242.526C1089.93 243.3 1077.6 243.61 1065.91 237.879C1054.22 232.148 1049.64 223.164 1049 218.672C1049 218.672 1047.42 203.338 1046.79 196.832C1046.16 190.327 1046.63 185.37 1054.06 178.245C1054.06 178.245 1046.32 185.68 1047.58 192.96C1048.85 200.24 1052.8 206.436 1068.28 213.561C1083.77 220.686 1093.56 218.208 1094.19 216.659Z" fill="#F5C940"/>
<path d="M1051.06 263.437C1048.06 256.931 1047.74 249.496 1050.43 242.836C1052.01 238.963 1054.22 235.556 1056.9 232.303L1057.22 231.993C1059.91 234.317 1062.91 236.33 1066.07 237.879C1069.86 239.738 1073.81 240.977 1077.76 241.752C1066.07 244.849 1056.43 252.749 1051.06 263.437Z" fill="#DEA635"/>
<path d="M1096.88 159.503V185.525C1096.88 185.525 1097.04 186.609 1092.14 186.764C1092.14 186.764 1049.64 184.596 1042.37 158.574C1034.47 130.383 1034.31 118.611 1039.68 112.26C1036.36 117.372 1036.05 123.723 1038.57 129.299C1042.68 139.367 1051.69 147.266 1064.17 152.533C1076.66 157.799 1091.51 160.278 1096.88 159.503Z" fill="#F5C940"/>
<path d="M1049.95 183.357C1050.9 181.808 1052.01 180.259 1053.27 178.865L1054.06 178.09C1054.85 177.471 1055.64 176.851 1056.43 176.232C1068.75 183.976 1084.87 186.145 1090.24 186.609C1064.17 190.017 1053.74 204.267 1053.74 204.267C1050.43 201.169 1048.21 197.142 1047.58 192.805C1047.27 190.172 1047.74 187.384 1049 185.06C1049.32 184.596 1049.64 184.131 1049.95 183.357Z" fill="#DEA635"/>
<path d="M1097.51 102.347C1097.51 102.347 1094.83 87.9422 1093.25 79.4231C1091.67 70.9039 1090.4 70.1295 1084.87 69.0452C1079.34 67.961 1060.54 65.7925 1049.64 61.3005C1038.73 56.8086 1035.73 53.8657 1039.68 47.515C1039.68 47.515 1036.52 50.3031 1037.47 61.3005C1038.42 73.692 1039.37 77.5644 1040 82.0563C1040 82.0563 1040.16 85.3091 1047.58 89.1814C1054.38 92.5891 1061.8 94.7576 1069.39 95.8418C1075.23 96.4614 1096.41 98.0103 1097.51 102.347Z" fill="#F5C940"/>
<path d="M1059.43 93.6732C1062.75 94.6026 1066.07 95.2222 1069.39 95.6868C1075.08 96.4613 1096.25 98.0102 1097.51 102.347C1097.2 105.755 1079.5 114.584 1065.12 123.413C1050.11 132.552 1046.32 140.761 1046.16 141.071C1042.84 137.818 1040.16 133.791 1038.42 129.609C1035.89 124.032 1036.36 117.682 1039.52 112.57L1039.68 112.26C1049.32 100.798 1056.9 95.2222 1059.43 93.6732Z" fill="#DEA635"/>
<path d="M1071.12 39.9252C1066.23 40.235 1061.33 39.9252 1056.59 38.841C1053.27 38.0665 1053.27 37.292 1051.53 33.1099C1049.79 28.9278 1045.21 14.5227 1045.21 14.5227C1043.79 8.94651 1045.05 8.63672 1045.05 8.63672C1043.63 12.1993 1051.22 12.1993 1057.54 12.1993C1063.86 12.1993 1068.44 12.664 1075.23 13.1286C1082.03 13.5933 1082.34 17.001 1084.56 24.7457C1086.45 31.561 1088.66 40.0801 1089.3 42.0937C1087.87 38.5312 1077.29 39.6154 1071.12 39.9252Z" fill="#F5C940"/>
<path d="M1089.45 43.7975C1089.45 43.9524 1089.45 43.9524 1089.45 44.1073C1089.45 44.2622 1089.45 44.2622 1089.45 44.4171C1089.3 44.7269 1089.3 45.0367 1088.98 45.3465C1087.87 47.2052 1084.56 49.8384 1077.92 54.0205C1068.91 59.7516 1060.38 64.5533 1060.38 64.5533C1056.75 63.7788 1053.11 62.6946 1049.64 61.3005C1038.73 56.8086 1035.73 53.8656 1039.68 47.515C1042.37 44.4171 1052.8 37.7567 1053.43 37.4469C1054.22 38.3763 1055.32 38.8409 1056.59 38.9958C1061.33 39.9252 1066.23 40.3899 1071.12 40.0801C1077.29 39.7703 1087.87 38.8409 1089.14 42.4035C1089.45 42.7133 1089.61 43.178 1089.45 43.7975Z" fill="#DEA635"/>
<path d="M1105.57 0.427234C1097.99 6.31319 1089.61 11.2698 1080.76 15.1421C1079.18 13.7481 1077.29 13.1285 1075.23 13.1285C1068.44 12.6638 1063.86 12.354 1057.54 12.1991C1051.22 12.0443 1043.63 12.1991 1045.05 8.6366C1051.06 1.2017 1068.91 -7.78213 1085.98 -17.0757C1103.04 -26.3694 1107.15 -40 1107.15 -40C1110 -32.72 1109.52 -17.0757 1109.52 -17.0757C1120.42 -12.8936 1116.32 -8.24681 1105.57 0.427234Z" fill="#DEA635"/>
<path d="M1128.43 -15C1144.08 4.5166 1162.88 21.2451 1184.21 34.566C1200.17 44.3243 1221.82 62.137 1217.23 71.1209C1212.65 80.1047 1207.44 87.6945 1204.44 89.7081C1204.44 89.7081 1207.12 86.7651 1199.06 80.4145C1191 74.0638 1161.14 49.5906 1144.71 31.9328C1128.59 13.9651 1112 -11.9021 1112 -11.9021C1117.37 -12.9864 1122.9 -14.0706 1128.43 -15Z" fill="#F76251"/>
<path d="M1203.17 113.562C1195.59 106.282 1187.37 99.6213 1178.68 93.4256C1165.41 83.9771 1153.56 77.4716 1154.66 71.8954C1151.82 79.9499 1149.13 88.1592 1146.6 96.2137C1142.65 108.45 1142.97 104.578 1155.77 113.252C1169.52 121.461 1219.76 156.467 1198.91 171.957C1198.91 171.957 1205.54 169.014 1209.65 148.723C1214.86 124.095 1207.75 117.899 1203.17 113.562Z" fill="#F76251"/>
<path d="M1135.54 170.098C1134.6 178.462 1133.81 186.826 1132.86 195.191C1132.7 195.346 1131.28 201.696 1153.71 214.707C1174.1 226.479 1204.91 239.8 1192.9 253.431C1192.9 253.431 1197.8 249.403 1199.22 234.843C1200.96 215.482 1200.64 212.539 1188.48 204.484C1176.31 196.43 1157.35 185.897 1157.35 185.897C1157.35 185.897 1135.39 175.519 1135.54 170.098Z" fill="#F76251"/>
<path d="M1133.96 255.289C1133.96 255.289 1133.96 269.23 1134.44 275.581C1134.91 281.931 1135.7 287.507 1148.03 291.689C1160.67 295.407 1191.79 303.461 1186.9 319.57C1186.9 319.57 1188.79 316.472 1187.21 294.323C1185.47 269.23 1159.56 269.54 1153.08 267.526C1146.76 265.203 1133.96 262.415 1133.96 255.289Z" fill="#F76251"/>
<path d="M1181.05 430.164C1180.73 440.542 1180.58 450.92 1180.26 461.143C1180.26 460.833 1152.77 453.089 1138.23 433.262C1123.69 413.126 1123.22 379.049 1123.53 378.895C1122.9 379.824 1128.43 411.267 1181.05 430.164Z" fill="#F76251"/>
<path d="M1198.75 80.5694C1205.38 85.6809 1204.75 88.6239 1204.44 89.5533C1204.44 89.7081 1204.28 89.7081 1204.28 89.863C1201.28 93.7354 1180.1 92.0315 1176.63 91.8767C1164.3 83.3575 1153.87 77.1618 1154.82 71.8954C1158.77 66.4741 1182.95 67.2486 1182.95 67.4035C1189.9 73.4443 1195.9 78.246 1198.75 80.5694Z" fill="#BA2B1C"/>
<path d="M1133.96 255.444C1133.65 249.094 1145.34 243.208 1160.51 240.11C1175.68 237.012 1184.05 232.365 1184.05 232.365C1193.69 239.18 1199.06 246.306 1192.9 253.431C1190.69 256.374 1181.21 258.852 1173.62 260.866C1166.83 262.569 1155.77 266.752 1153.56 267.526L1153.08 267.371C1146.76 265.203 1134.12 262.414 1133.96 255.444Z" fill="#BA2B1C"/>
<path d="M1135.54 170.098C1136.18 165.296 1140.13 162.818 1159.72 157.861C1180.42 152.75 1197.32 147.484 1197.32 147.484C1204.12 156.467 1206.65 165.141 1200.01 171.182L1199.06 171.957C1182 182.335 1157.35 186.052 1157.35 186.207C1157.35 186.362 1135.39 175.519 1135.54 170.098Z" fill="#BA2B1C"/>
<path d="M1154.82 322.823C1170.94 313.065 1177.57 303.151 1177.73 302.842C1178.84 303.616 1179.94 304.391 1181.05 305.165L1181.37 305.475L1182.16 306.094L1182.63 306.404L1183.26 307.024L1183.74 307.488C1183.89 307.643 1184.05 307.953 1184.21 308.108L1184.68 308.573C1184.84 308.728 1185 308.883 1185.16 309.192C1185.32 309.347 1185.47 309.502 1185.63 309.812C1185.79 309.967 1185.95 310.122 1185.95 310.277C1186.11 310.586 1186.42 311.051 1186.58 311.361L1186.74 311.826C1186.9 312.135 1187.05 312.29 1187.05 312.6L1187.21 313.065C1187.21 313.374 1187.37 313.529 1187.37 313.839C1187.37 314.149 1187.37 314.149 1187.53 314.304C1187.69 314.459 1187.69 314.768 1187.69 315.078V315.543C1187.69 315.853 1187.69 316.008 1187.69 316.317C1187.69 316.627 1187.69 316.627 1187.69 316.782C1187.69 316.937 1187.69 317.402 1187.69 317.711C1187.69 317.866 1187.69 318.021 1187.69 318.176C1187.69 318.641 1187.53 319.106 1187.37 319.57C1183.42 331.342 1167.94 341.41 1149.29 361.546C1134.75 377.5 1131.12 389.737 1129.85 394.229C1126.85 389.737 1124.8 384.78 1123.69 379.514C1121.01 355.041 1139.02 332.117 1154.82 322.823Z" fill="#BA2B1C"/>
<path d="M936.747 469.797C936.747 469.797 968.823 507.746 965.821 533.613C962.819 559.481 952.864 565.212 952.864 565.212C952.864 565.212 965.979 546.625 943.067 517.505C920.156 488.385 903.881 472.121 906.883 466.545C909.885 460.968 919.998 458.025 919.998 458.025L936.747 469.797Z" fill="#6DB3A9"/>
<path d="M980.674 -8.82403C980.674 -8.82403 952.864 39.9675 932.797 82.2534C912.73 124.539 891.556 180.146 897.245 244.427C897.245 244.427 880.022 158.461 913.362 72.9598C946.702 -12.5415 966.137 -8.97892 966.137 -8.97892L980.674 -8.82403Z" fill="#92E2D8"/>
<path d="M983.518 444.085C983.518 444.085 975.617 457.251 973.879 460.194C972.141 463.137 969.139 470.572 959.027 470.727C948.914 470.881 942.278 471.036 931.059 468.713C919.84 466.39 908.464 463.447 907.199 466.544L918.418 445.634C918.418 445.634 919.998 441.607 928.215 443.465C936.115 445.324 944.016 446.563 952.074 447.338C962.345 448.267 977.83 451.675 983.518 444.085Z" fill="#92E2D8"/>
<path d="M968.981 448.577L969.139 448.887C973.721 448.887 977.829 448.422 980.99 446.408L981.148 446.253C981.464 446.098 981.622 445.789 981.938 445.634C984.308 443.62 985.572 440.677 985.73 437.579C986.362 418.682 941.961 346.967 918.892 299.104C893.927 247.525 897.403 201.212 897.403 201.212C887.764 242.878 918.102 351.304 937.379 390.182C955.708 427.666 968.033 447.028 968.981 448.577Z" fill="#6DB3A9"/>
<path d="M953.022 565.367C953.022 565.367 944.964 575.899 909.412 586.432C873.859 596.965 857.268 583.179 857.268 583.179L850 606.878C850 606.878 874.017 625.465 913.362 608.117C946.228 593.557 960.449 555.144 960.449 555.144C956.814 563.043 953.022 565.367 953.022 565.367Z" fill="#92E2D8"/>
<path d="M686.826 111.767L605.559 140.467C612.148 151.041 621.436 158.427 631.665 160.785C632.447 160.977 633.098 161.45 633.541 161.998C633.984 162.545 634.283 163.025 633.736 163.454C631.884 164.815 632.314 165.014 632.314 165.014C632.536 165.288 632.757 165.562 633.109 165.554C633.526 165.406 633.956 165.606 634.243 165.739C634.673 165.939 634.959 166.072 635.233 165.857C635.507 165.643 636.301 166.182 636.51 166.109C636.719 166.035 637.644 166.293 637.696 165.805C637.748 165.317 636.224 164.097 636.955 162.899C637.359 162.404 637.698 162.049 638.323 161.827C638.884 161.746 639.301 161.598 640.005 161.583L639.861 161.517C660.035 160.466 680.009 140.708 686.226 112.684C686.708 112.396 686.695 112.048 686.826 111.767Z" fill="#DEA635"/>
<path d="M609.717 218.563C609.77 218.075 612.617 205.564 621.678 197.305C627.062 192.461 627.338 188.491 627.717 185.422C627.718 183.544 628.358 181.792 629.362 180.379C632.478 177.044 633.235 174.663 632.064 171.558C630.775 169.081 631.441 166.146 633.774 164.497L635.115 166.486C634.907 166.56 633.264 167.846 634.358 170.745C636.297 175.573 633.962 179.1 631.25 181.939C630.585 182.997 630.142 184.328 630.193 185.718C629.892 188.993 629.499 193.592 623.501 199.005C614.988 206.836 612.271 219.066 612.271 219.066L609.717 218.563Z" fill="#231F20"/>
<path d="M646.967 49.0307C618.103 45.5348 594.738 70.72 594.905 101.878C594.912 115.373 598.58 128.859 605.559 140.467L686.683 111.701C692.966 81.6584 675.544 52.3936 646.967 49.0307ZM653.727 54.7312C627.274 51.6714 604.851 69.9505 597.853 95.9039C600.251 69.3518 621.19 49.0172 646.444 52.0327C650.901 52.5649 655.383 53.7921 659.33 55.7957C657.623 55.3447 655.708 54.9677 653.727 54.7312Z" fill="#F5C940"/>
</svg>
