<svg width="1415" height="1121" viewBox="0 0 1415 1121" fill="none" xmlns="http://www.w3.org/2000/svg">
<path d="M1178.02 245.744L1178.28 246.452L1178.02 245.744Z" fill="#DEA635"/>
<path d="M401.869 255.882C401.869 258.475 399.581 260.597 396.784 260.597C393.988 260.597 391.7 258.475 391.7 255.882C391.7 253.289 393.988 251.167 396.784 251.167C399.581 251.167 401.869 253.289 401.869 255.882Z" fill="white"/>
<path d="M435.935 238.671C435.935 241.5 433.393 243.858 430.342 243.858C427.292 243.858 424.749 241.5 424.749 238.671C424.749 235.842 427.292 233.484 430.342 233.484C433.393 233.249 435.935 235.606 435.935 238.671Z" fill="#4FB8A4"/>
<path d="M534.829 254.703C534.829 258.947 531.016 262.483 526.44 262.483C521.864 262.483 518.051 258.947 518.051 254.703C518.051 250.459 521.864 246.923 526.44 246.923C531.016 246.923 534.829 250.224 534.829 254.703C534.829 254.467 534.829 254.467 534.829 254.703Z" fill="#ED6D5F"/>
<path d="M256.706 317.652C256.706 320.717 254.163 323.075 250.858 323.075C247.553 323.075 245.011 320.717 245.011 317.652C245.011 314.587 247.553 312.23 250.858 312.23C254.163 312.23 256.706 314.587 256.706 317.652Z" fill="white"/>
<path d="M673.129 305.157C677.622 305.157 681.264 301.779 681.264 297.612C681.264 293.446 677.622 290.068 673.129 290.068C668.636 290.068 664.994 293.446 664.994 297.612C664.994 301.779 668.636 305.157 673.129 305.157Z" fill="#F5C940"/>
<path d="M814.479 283.466C814.479 287.239 811.174 290.304 807.107 290.304C803.039 290.304 799.734 287.239 799.734 283.466C799.734 279.694 803.039 276.629 807.107 276.629C811.174 276.629 814.479 279.694 814.479 283.466Z" fill="#ED6D5F"/>
<path d="M252.289 838.158C252.289 842.401 248.475 845.938 243.899 845.938C239.323 845.938 235.51 842.401 235.51 838.158C235.51 833.914 239.323 830.377 243.899 830.377C248.475 830.613 252.289 833.914 252.289 838.158Z" fill="#ED6D5F"/>
<path d="M282.542 813.166C282.542 818.117 278.22 821.89 273.135 821.89C267.796 821.89 263.729 817.882 263.729 813.166C263.729 808.451 268.051 804.443 273.135 804.443C278.474 804.443 282.542 808.451 282.542 813.166Z" fill="white"/>
<path d="M1000.06 178.787C1000.06 180.673 998.285 182.323 996.251 182.323C994.218 182.323 992.438 180.673 992.438 178.787C992.438 176.901 994.218 175.25 996.251 175.25C998.285 175.25 1000.06 176.665 1000.06 178.787Z" fill="white"/>
<path d="M940.83 187.039C940.83 188.925 939.305 190.34 937.271 190.34C935.237 190.34 933.712 188.925 933.712 187.039C933.712 185.153 935.237 183.738 937.271 183.738C939.305 183.738 940.83 185.153 940.83 187.039Z" fill="#4FB8A4"/>
<path d="M378.48 208.729C378.48 211.558 375.938 213.916 372.887 213.916C369.836 213.916 367.294 211.558 367.294 208.729C367.294 205.9 369.836 203.542 372.887 203.542C375.938 203.542 378.48 205.9 378.48 208.729Z" fill="white"/>
<path d="M629.91 253.053C629.91 256.825 626.605 259.89 622.538 259.89C618.47 259.89 615.165 256.825 615.165 253.053C615.165 249.281 618.47 246.216 622.538 246.216C626.605 246.216 629.91 249.281 629.91 253.053Z" fill="#8AA5BC"/>
<path d="M847.783 274.036C847.783 277.337 844.987 279.93 841.427 279.93C837.868 279.93 835.072 277.337 835.072 274.036C835.072 270.735 837.868 268.142 841.427 268.142C844.987 268.142 847.783 270.735 847.783 274.036Z" fill="#F5C940"/>
<path d="M251.112 281.816C251.112 284.881 248.316 287.239 245.011 287.239C241.706 287.239 239.164 284.645 239.164 281.58C239.164 278.515 241.96 276.158 245.011 276.158C248.57 276.158 251.112 278.751 251.112 281.816Z" fill="#4FB8A4"/>
<path d="M387.124 327.319C387.124 330.148 384.581 332.505 381.531 332.505C378.48 332.505 376.192 330.148 376.192 327.319C376.192 324.489 378.734 322.132 381.785 322.132C384.581 322.132 387.124 324.489 387.124 327.319Z" fill="#ED6D5F"/>
<path d="M682.79 368.813C682.79 372.821 679.485 375.886 675.163 375.886C670.841 375.886 667.536 372.821 667.536 368.813C667.536 364.805 670.841 361.74 675.163 361.74C679.485 361.74 682.79 364.805 682.79 368.813Z" fill="white"/>
<path d="M823.384 593.315C823.384 597.323 819.825 600.623 815.503 600.623C811.181 600.623 807.622 597.323 807.622 593.315C807.622 589.307 811.181 586.006 815.503 586.006C819.825 586.006 823.384 589.307 823.384 593.315Z" fill="white"/>
<path d="M491.512 641.756C491.512 646 487.953 649.301 483.376 649.301C478.8 649.301 475.241 646 475.241 641.756C475.241 637.513 478.8 634.212 483.376 634.212C487.953 634.212 491.512 637.513 491.512 641.756Z" fill="white"/>
<path d="M679.894 668.87C679.894 673.349 676.081 677.121 670.996 677.121C666.166 677.121 662.098 673.585 662.098 668.87C662.098 664.154 665.912 660.618 670.996 660.618C675.827 660.854 679.894 664.39 679.894 668.87Z" fill="#ED6D5F"/>
<path d="M128.066 471.607C128.066 477.501 122.982 482.216 116.626 482.216C110.271 482.216 105.186 477.501 105.186 471.607C105.186 465.713 110.271 460.997 116.626 460.997C122.982 460.997 128.066 465.948 128.066 471.607Z" fill="#4FB8A4"/>
<path d="M213.741 490.704C213.741 496.362 208.911 500.842 202.809 500.842C196.708 500.842 191.877 496.362 191.877 490.704C191.877 485.045 196.708 480.566 202.809 480.566C208.911 480.566 213.741 485.045 213.741 490.704Z" fill="#8AA5BC"/>
<path d="M634.133 681.836C634.133 686.08 630.574 689.381 625.998 689.381C621.422 689.381 617.863 686.08 617.863 681.836C617.863 677.593 621.422 674.292 625.998 674.292C630.574 674.292 634.133 677.593 634.133 681.836Z" fill="#F5C940"/>
<path d="M568.034 659.439C568.034 663.211 564.729 666.04 560.916 666.04C556.848 666.04 553.798 662.975 553.798 659.439C553.798 655.667 557.103 652.837 560.916 652.837C564.984 652.837 568.034 655.902 568.034 659.439Z" fill="white"/>
<path d="M857.197 511.504C860.286 511.504 862.79 509.182 862.79 506.317C862.79 503.453 860.286 501.131 857.197 501.131C854.108 501.131 851.604 503.453 851.604 506.317C851.604 509.182 854.108 511.504 857.197 511.504Z" fill="#ED6D5F"/>
<path d="M294.076 201.421C294.076 204.957 291.026 207.55 287.467 207.55C283.907 207.55 280.857 204.721 280.857 201.421C280.857 198.12 283.907 195.291 287.467 195.291C291.026 195.055 294.076 197.884 294.076 201.421Z" fill="#F5C940"/>
<path d="M362.972 237.493C362.972 240.322 360.684 242.444 357.633 242.444C354.583 242.444 352.295 240.322 352.295 237.493C352.295 234.663 354.583 232.542 357.633 232.542C360.43 232.542 362.972 234.663 362.972 237.493Z" fill="#ED6D5F"/>
<path d="M485.764 291.483C485.764 294.783 482.968 297.377 479.408 297.377C475.849 297.377 473.053 294.783 473.053 291.483C473.053 288.182 475.849 285.589 479.408 285.589C482.968 285.589 485.764 288.182 485.764 291.483Z" fill="white"/>
<path d="M808.131 543.568C808.131 546.869 805.334 549.462 801.775 549.462C798.216 549.462 795.419 546.869 795.419 543.568C795.419 540.267 798.216 537.674 801.775 537.674C805.334 537.674 808.131 540.267 808.131 543.568Z" fill="#ED6D5F"/>
<path d="M494.054 620.066C494.054 623.838 490.749 626.903 486.681 626.903C482.614 626.903 479.309 623.838 479.309 620.066C479.309 616.294 482.614 613.229 486.681 613.229C490.749 612.993 494.054 616.058 494.054 620.066C494.054 620.066 494.054 619.83 494.054 620.066Z" fill="#F5C940"/>
<path d="M600.575 658.26C600.575 662.032 597.271 665.097 593.203 665.097C589.135 665.097 585.83 662.032 585.83 658.26C585.83 654.488 589.135 651.423 593.203 651.423C597.271 651.187 600.575 654.488 600.575 658.26Z" fill="white"/>
<path d="M301.703 476.322C301.703 481.509 297.127 485.753 291.534 485.753C285.941 485.753 281.365 481.509 281.365 476.322C281.365 471.135 285.941 466.891 291.534 466.891C297.127 466.891 301.703 471.135 301.703 476.322Z" fill="#8AA5BC"/>
<path d="M279.84 461.94C279.84 467.127 275.518 471.135 269.925 471.135C264.332 471.135 260.01 467.127 260.01 461.94C260.01 456.754 264.332 452.746 269.925 452.746C275.518 452.746 279.84 456.989 279.84 461.94Z" fill="#4FB8A4"/>
<path d="M833.3 538.146C836.669 538.146 839.401 535.612 839.401 532.487C839.401 529.362 836.669 526.829 833.3 526.829C829.93 526.829 827.198 529.362 827.198 532.487C827.198 535.612 829.93 538.146 833.3 538.146Z" fill="#8AA5BC"/>
<path d="M305.008 216.745C305.008 220.046 302.212 222.639 298.907 222.639C295.348 222.639 292.551 220.046 292.551 216.981C292.551 213.916 295.348 211.087 298.653 211.087C301.958 211.087 304.754 213.68 305.008 216.745Z" fill="#8AA5BC"/>
<path d="M313.652 181.38C313.652 184.917 310.601 187.51 307.042 187.51C303.229 187.51 300.432 184.681 300.432 181.38C300.432 177.844 303.483 175.251 307.042 175.251C310.601 175.015 313.652 177.844 313.652 181.38Z" fill="white"/>
<path d="M848.435 938C851.945 938 854.79 935.361 854.79 932.106C854.79 928.851 851.945 926.212 848.435 926.212C844.924 926.212 842.079 928.851 842.079 932.106C842.079 935.361 844.924 938 848.435 938Z" fill="#ED6D5F"/>
<path d="M895.585 485.57C898.534 485.57 900.924 483.353 900.924 480.619C900.924 477.885 898.534 475.668 895.585 475.668C892.637 475.668 890.246 477.885 890.246 480.619C890.246 483.353 892.637 485.57 895.585 485.57Z" fill="#F5C940"/>
<path d="M896.602 536.967C896.602 540.032 894.06 542.389 890.755 542.389C887.45 542.389 884.908 540.032 884.908 536.967C884.908 533.902 887.45 531.544 890.755 531.544C894.06 531.544 896.602 533.902 896.602 536.967Z" fill="white"/>
<path d="M513.63 586.587C513.63 589.888 510.833 592.482 507.274 592.482C503.715 592.482 500.918 589.888 500.918 586.587C500.918 583.287 503.715 580.693 507.274 580.693C510.833 580.693 513.63 583.287 513.63 586.587Z" fill="#4FB8A4"/>
<path d="M510.325 654.723C510.325 658.731 506.766 662.032 502.444 662.032C498.122 662.032 494.563 658.731 494.563 654.723C494.563 650.715 498.122 647.415 502.444 647.415C506.766 647.415 510.325 650.715 510.325 654.723Z" fill="#ED6D5F"/>
<path d="M514.138 738.656C514.138 743.135 510.325 746.908 505.24 746.908C500.155 746.908 496.342 743.371 496.342 738.656C496.342 733.941 500.155 730.404 505.24 730.404C510.325 730.404 514.138 733.941 514.138 738.656Z" fill="#ED6D5F"/>
<path d="M1041.5 646.308C1041.5 650.316 1038.2 653.381 1033.88 653.381C1029.56 653.381 1026.25 650.316 1026.25 646.308C1026.25 642.3 1029.56 639.236 1033.88 639.236C1038.2 639.236 1041.5 642.536 1041.5 646.308Z" fill="#4FB8A4"/>
<path d="M1051.67 407.715C1051.67 412.901 1047.1 417.145 1041.5 417.145C1035.91 417.145 1031.33 412.901 1031.33 407.715C1031.33 402.528 1035.91 398.284 1041.5 398.284C1047.1 398.284 1051.67 402.528 1051.67 407.715Z" fill="#F5C940"/>
<path d="M1199.06 88.4076C1199.06 93.1229 1194.99 96.8951 1189.91 96.8951C1184.82 96.8951 1180.76 93.1229 1180.76 88.4076C1180.76 83.6923 1184.82 79.92 1189.65 79.92C1194.99 79.92 1199.06 83.6923 1199.06 88.4076Z" fill="white"/>
<path d="M709.394 57.3656C709.394 60.9021 706.343 63.7313 702.529 63.7313C698.716 63.7313 695.665 60.9021 695.665 57.3656C695.665 53.8292 698.716 51 702.529 51C706.343 51 709.394 53.8292 709.394 57.3656Z" fill="white"/>
<path d="M1165.5 87.4646C1165.5 91.4726 1161.94 94.7733 1157.62 94.7733C1153.3 94.7733 1149.74 91.4726 1149.74 87.4646C1149.74 83.4566 1153.3 80.1559 1157.62 80.1559C1161.94 80.1559 1165.5 83.2208 1165.5 87.4646Z" fill="#ED6D5F"/>
<path d="M1140.36 117.304C1140.37 114.309 1137.77 111.869 1134.54 111.854C1131.31 111.838 1128.68 114.254 1128.66 117.249C1128.64 120.244 1131.25 122.684 1134.48 122.699C1137.71 122.714 1140.34 120.299 1140.36 117.304Z" fill="white"/>
<path d="M1194.55 221.932C1194.55 226.412 1190.74 229.948 1185.91 229.948C1181.08 229.948 1177.26 226.412 1177.26 221.932C1177.26 217.452 1181.08 213.916 1185.91 213.916C1190.74 213.916 1194.55 217.452 1194.55 221.932Z" fill="#ED6D5F"/>
<path d="M1123.62 286.06C1126.99 286.06 1129.72 283.527 1129.72 280.402C1129.72 277.277 1126.99 274.743 1123.62 274.743C1120.25 274.743 1117.52 277.277 1117.52 280.402C1117.52 283.527 1120.25 286.06 1123.62 286.06Z" fill="#8AA5BC"/>
<path d="M1069.98 323.075C1069.98 327.083 1066.42 330.384 1062.1 330.384C1057.77 330.384 1054.22 327.083 1054.22 323.075C1054.22 319.067 1057.77 315.766 1062.1 315.766C1066.42 315.766 1069.98 319.067 1069.98 323.075Z" fill="#4FB8A4"/>
<path d="M1174.21 341.465C1174.21 345.473 1170.65 348.773 1166.33 348.773C1162.01 348.773 1158.45 345.473 1158.45 341.465C1158.45 337.457 1162.01 334.156 1166.33 334.156C1170.65 334.156 1174.21 337.457 1174.21 341.465Z" fill="white"/>
<path d="M1210.82 340.05C1210.82 344.294 1207.26 347.595 1202.68 347.595C1198.11 347.595 1194.55 344.294 1194.55 340.05C1194.55 335.806 1198.11 332.506 1202.68 332.506C1207.26 332.27 1210.82 335.806 1210.82 340.05Z" fill="#4FB8A4"/>
<path d="M1171.92 401.82C1171.92 406.771 1167.6 410.779 1162.26 410.779C1156.92 410.779 1152.6 406.771 1152.6 401.82C1152.6 396.869 1156.92 392.861 1162.26 392.861C1167.6 392.861 1171.92 396.869 1171.92 401.82Z" fill="#ED6D5F"/>
<path d="M1226.07 427.047C1226.07 431.998 1221.75 436.006 1216.41 436.006C1211.07 436.006 1206.75 431.998 1206.75 427.047C1206.75 422.096 1211.07 418.088 1216.41 418.088C1221.75 418.088 1226.07 422.096 1226.07 427.047Z" fill="#F5C940"/>
<path d="M1247.68 493.061C1252.18 493.061 1255.82 489.684 1255.82 485.517C1255.82 481.35 1252.18 477.972 1247.68 477.972C1243.19 477.972 1239.55 481.35 1239.55 485.517C1239.55 489.684 1243.19 493.061 1247.68 493.061Z" fill="#4FB8A4"/>
<path d="M1281.24 538.8C1281.24 542.808 1277.68 546.108 1273.36 546.108C1269.04 546.108 1265.48 542.808 1265.48 538.8C1265.48 534.792 1269.04 531.491 1273.36 531.491C1277.68 531.491 1281.24 534.792 1281.24 538.8Z" fill="#ED6D5F"/>
<path d="M1231.67 549.173C1231.67 552.474 1228.87 555.067 1225.31 555.067C1221.75 555.067 1218.95 552.474 1218.95 549.173C1218.95 545.873 1221.75 543.279 1225.31 543.279C1228.87 543.279 1231.67 545.873 1231.67 549.173Z" fill="white"/>
<path d="M1096.93 580.294C1096.93 583.359 1094.13 585.953 1090.82 585.953C1087.52 585.953 1084.72 583.359 1084.72 580.294C1084.72 577.229 1087.52 574.636 1090.82 574.636C1094.13 574.636 1096.93 577.229 1096.93 580.294Z" fill="#8AA5BC"/>
<path d="M1194.55 620.61C1194.55 624.146 1191.5 626.976 1187.68 626.976C1183.87 626.976 1180.82 624.146 1180.82 620.61C1180.82 617.073 1183.87 614.244 1187.68 614.244C1191.5 614.244 1194.55 617.073 1194.55 620.61Z" fill="#ED6D5F"/>
<path d="M1122.05 837.756C1122.05 842.707 1117.73 846.715 1112.39 846.715C1107.05 846.715 1102.73 842.707 1102.73 837.756C1102.73 832.805 1107.05 828.797 1112.39 828.797C1117.98 829.033 1122.05 832.805 1122.05 837.756Z" fill="#F5C940"/>
<path d="M22.0946 360.407L28.1342 299.075L73.1582 324.609L22.0946 360.407Z" fill="#F76251"/>
<path d="M68.3312 386.331L73.158 324.608L118.706 349.683L68.3312 386.331Z" fill="#F5C940"/>
<path d="M114.425 411.447L118.706 349.683L164.354 374.566L114.425 411.447Z" fill="#92E2D8"/>
<path d="M160.396 436.255L164.354 374.566L210.081 398.758L160.396 436.255Z" fill="#79A3C7"/>
<path d="M207.335 460.837L210.081 398.758L256.231 422.682L207.335 460.837Z" fill="#F76251"/>
<path d="M254.353 484.727L256.231 422.682L302.582 446.223L254.353 484.727Z" fill="#F5C940"/>
<path d="M300.482 508.152L302.582 446.223L348.811 469.456L300.482 508.152Z" fill="#92E2D8"/>
<path d="M348.024 531.584L348.811 469.456L395.563 492.23L348.024 531.584Z" fill="#79A3C7"/>
<path d="M395.322 554.399L395.563 492.23L442.294 514.504L395.322 554.399Z" fill="#F76251"/>
<path d="M442.498 576.906L442.294 514.504L489.348 536.703L442.498 576.906Z" fill="#F5C940"/>
<path d="M490.419 599.071L489.348 536.703L536.481 558.21L490.419 599.071Z" fill="#92E2D8"/>
<path d="M538.32 620.736L536.481 558.21L583.814 579.334L538.32 620.736Z" fill="#79A3C7"/>
<path d="M585.653 641.86L583.814 579.334L631.147 600.458L585.653 641.86Z" fill="#F76251"/>
<path d="M634.077 663.067L631.147 600.458L678.782 621.007L634.077 663.067Z" fill="#F5C940"/>
<path d="M682.58 683.581L678.782 621.007L726.717 640.98L682.58 683.581Z" fill="#92E2D8"/>
<path d="M730.838 703.48L726.717 640.98L774.531 660.645L730.838 703.48Z" fill="#79A3C7"/>
<path d="M779.642 723.419L774.531 660.646L822.646 679.736L779.642 723.419Z" fill="#F76251"/>
<path d="M828.625 742.476L822.646 679.736L870.962 698.443L828.625 742.476Z" fill="#F5C940"/>
<path d="M877.587 761.032L870.962 698.442L919.578 716.574L877.587 761.032Z" fill="#92E2D8"/>
<path d="M927.194 779.438L919.578 716.574L968.174 734.206L927.194 779.438Z" fill="#79A3C7"/>
<path d="M976.435 796.919L968.174 734.206L1017.07 751.262L976.435 796.919Z" fill="#F76251"/>
<path d="M1026.42 814.058L1017.07 751.262L1066.05 767.627L1026.42 814.058Z" fill="#F5C940"/>
<path d="M1076.49 830.506L1066.05 767.627L1115.1 783.3L1076.49 830.506Z" fill="#92E2D8"/>
<path d="M1126.41 846.145L1115.1 783.3L1164.35 798.59L1126.41 846.145Z" fill="#79A3C7"/>
<path d="M1177.08 861.442L1164.35 798.59L1214.01 813.113L1177.08 861.442Z" fill="#F76251"/>
<path d="M1227.48 875.623L1214.01 813.113L1263.62 826.636L1227.48 875.623Z" fill="#F5C940"/>
<path d="M1277.86 889.304L1263.62 826.636L1313.34 839.967L1277.86 889.304Z" fill="#92E2D8"/>
<path d="M1329.41 902.375L1313.34 839.967L1363.21 851.915L1329.41 902.375Z" fill="#79A3C7"/>
<path d="M1380.47 914.214L1363.21 851.915L1413.38 863.288L1380.47 914.214Z" fill="#F76251"/>
<path d="M1413.44 862.097C1067.46 787.666 709.525 638.084 470.072 525.876C210.541 404.374 30.5161 298.857 28.7364 297.925L27.3091 300.109C28.9884 301.233 209.114 406.558 468.767 528.368C484.519 535.64 500.715 543.145 517.134 550.766C755.043 659.967 1089.41 795.008 1412.9 864.747L1413.44 862.097Z" fill="#D9D9D9"/>
<path d="M731.151 1109.87C731.128 1109.76 729.658 1094.71 724.259 1083.01C720.473 1075.06 720.579 1074.46 721.425 1067C721.774 1063.74 722.311 1059.19 722.782 1052.15C723.851 1034.85 720.049 1030.09 715.617 1024.55C713.885 1022.42 712.264 1020.26 710.953 1017.92C707.154 1011 711.841 1005.22 714.725 1001.87C716.199 1000.08 717.147 999.08 716.359 998.11C716.044 997.722 715.642 997.467 715.262 997.32C715.373 997.296 715.35 997.188 715.438 997.055L715.678 996.549L715.252 996.185C715.118 996.099 715.095 995.991 714.849 995.929L714.904 994.552C714.191 994.477 710.319 994.279 709.144 994.757C708.811 994.828 708.525 995.117 708.372 995.491C708.331 995.841 708.401 996.167 708.803 996.423C709.206 996.678 709.585 996.825 710.076 996.948C709.632 997.042 709.165 997.028 708.943 997.076L700.746 998.369L709.069 998.755C709.892 998.807 710.804 998.727 711.581 998.561C712.714 998.433 713.806 998.655 714.81 999.009C714.371 999.672 713.932 1000.33 713.359 1000.91C710.387 1004.39 705.04 1010.88 709.404 1018.82C710.849 1021.24 712.406 1023.64 714.249 1025.75C718.5 1030.99 722.121 1035.45 721.047 1052.18C720.664 1059.09 720.127 1063.64 719.667 1066.92C718.757 1074.63 718.697 1075.43 722.599 1083.93C727.929 1095.31 729.352 1110.14 729.375 1110.25L731.151 1109.87Z" fill="#D9D9D9"/>
<path d="M636.535 885.094L763.919 965.89C751.446 981.408 735.363 991.438 718.608 993.42C717.387 993.681 716.236 994.268 715.353 995.025C714.581 995.759 714.077 996.663 714.795 997.306C717.688 999.988 716.666 1000.09 716.666 1000.09C716.315 1000.62 715.672 1000.87 715.071 1000.77C714.446 1000.57 713.757 1000.6 713.114 1000.85C712.448 1000.99 711.916 1001.22 711.49 1000.86C711.064 1000.49 709.714 1001.23 709.334 1001.09C708.955 1000.94 707.377 1001.16 707.349 1000.49C707.321 999.811 710.174 997.951 709.02 995.807C708.589 994.875 707.872 994.232 706.955 993.745C706.196 993.452 705.326 993.182 704.392 993.154L704.614 993.107C671.712 987.952 642.385 952.226 636.782 905.294C636.143 898.49 635.994 891.809 636.535 885.094Z" fill="#4FB8A4"/>
<path d="M712.567 807.888C760.499 807.332 794.603 852.393 789.009 903.421C786.272 928.126 776.99 949.903 764.031 965.866L636.646 885.071C640.295 842.877 671.129 808.423 712.567 807.888ZM780.563 894.3C781.548 852.676 752.536 817.337 712.723 817.867C707.985 817.968 703.341 818.503 698.813 819.583C739.966 822.067 771.389 853.478 780.563 894.3Z" fill="#92E2D8"/>
<path d="M395.682 823.681C395.724 823.512 398.625 800.01 407.949 782.046C414.479 769.849 414.322 768.913 413.147 757.139C412.667 751.996 411.914 744.812 411.348 733.727C410.103 706.506 416.562 699.315 424.091 690.954C427.033 687.736 429.791 684.472 432.039 680.903C438.56 670.318 430.955 660.898 426.268 655.431C423.875 652.505 422.332 650.867 423.669 649.404C424.204 648.819 424.881 648.448 425.515 648.247C425.332 648.201 425.373 648.032 425.232 647.818L424.849 647.005L425.567 646.465C425.792 646.342 425.834 646.173 426.243 646.095L426.195 643.93C427.381 643.865 433.817 643.845 435.753 644.683C436.304 644.82 436.771 645.295 437.013 645.893C437.07 646.445 436.945 646.952 436.268 647.323C435.592 647.694 434.957 647.895 434.139 648.051C434.873 648.233 435.65 648.246 436.017 648.337L449.588 650.983L435.756 650.964C434.387 650.983 432.876 650.788 431.591 650.47C429.713 650.184 427.892 650.451 426.214 650.932C426.923 652.004 427.631 653.077 428.565 654.026C433.394 659.708 442.075 670.292 434.584 682.431C432.11 686.124 429.452 689.771 426.327 692.944C419.107 700.843 412.957 707.572 414.228 733.903C414.652 744.773 415.405 751.957 416.069 757.145C417.343 769.303 417.417 770.577 410.677 783.619C401.479 801.076 398.662 824.24 398.62 824.409L395.682 823.681Z" fill="#D9D9D9"/>
<path d="M559.686 478.035L345.681 595.27C365.919 620.559 392.317 637.508 420.078 641.875C422.098 642.376 423.992 643.384 425.435 644.638C426.695 645.848 427.503 647.304 426.292 648.26C421.405 652.252 423.099 652.492 423.099 652.492C423.666 653.35 424.726 653.792 425.728 653.682C426.771 653.402 427.915 653.506 428.975 653.948C430.076 654.221 430.953 654.618 431.671 654.078C432.389 653.539 434.609 654.806 435.243 654.605C435.878 654.403 438.491 654.871 438.558 653.811C438.626 652.752 433.946 649.618 435.927 646.341C436.671 644.911 437.883 643.955 439.419 643.26C440.688 642.856 442.141 642.499 443.694 642.525L443.327 642.434C498.12 636.815 547.913 582.949 558.656 509.717C559.926 499.087 560.377 488.613 559.686 478.035Z" fill="#DEA635"/>
<path d="M435.797 351.165C356.22 346.695 298.207 414.851 305.933 495.351C309.721 534.327 324.466 569.2 345.497 595.224L559.502 477.99C554.736 411.5 504.59 355.115 435.797 351.165ZM320.237 481.672C319.877 416.274 369.136 362.994 435.232 366.814C443.096 367.327 450.791 368.517 458.278 370.551C389.865 371.36 336.722 418.296 320.237 481.672Z" fill="#F5C940"/>
<path d="M813.015 520.318C813.03 520.221 813.558 506.839 817.733 496.211C820.674 488.983 820.55 488.465 819.42 481.909C818.944 479.044 818.235 475.046 817.458 468.843C815.626 453.603 818.745 449.195 822.38 444.068C823.803 442.093 825.125 440.102 826.165 437.968C829.17 431.647 824.729 426.777 822.007 423.966C820.611 422.455 819.722 421.62 820.369 420.722C820.627 420.363 820.97 420.117 821.298 419.968C821.199 419.952 821.214 419.855 821.129 419.742L820.891 419.307L821.249 418.963C821.363 418.881 821.378 418.783 821.592 418.716L821.473 417.501C822.1 417.398 825.514 417.025 826.578 417.387C826.876 417.433 827.144 417.674 827.298 417.996C827.352 418.304 827.308 418.596 826.964 418.843C826.621 419.089 826.293 419.238 825.866 419.372C826.263 419.433 826.676 419.397 826.875 419.427L834.19 420.151L826.849 420.919C826.124 421.007 825.313 420.983 824.618 420.876C823.609 420.821 822.655 421.073 821.785 421.438C822.207 422.002 822.629 422.565 823.165 423.047C825.972 425.971 831.034 431.435 827.581 438.684C826.427 440.9 825.174 443.101 823.652 445.061C820.161 449.911 817.187 454.042 818.994 468.78C819.687 474.87 820.396 478.868 820.971 481.748C822.17 488.515 822.264 489.227 819.249 496.942C815.119 507.278 814.621 520.465 814.606 520.563L813.015 520.318Z" fill="#D9D9D9"/>
<path d="M885.171 316.681L776.655 394.665C788.483 407.75 803.22 415.796 818.139 416.69C819.232 416.858 820.281 417.318 821.101 417.943C821.821 418.552 822.313 419.325 821.711 419.931C819.289 422.452 820.199 422.491 820.199 422.491C820.537 422.942 821.118 423.131 821.645 423.013C822.187 422.797 822.798 422.791 823.379 422.98C823.976 423.071 824.458 423.245 824.816 422.901C825.174 422.557 826.406 423.145 826.734 422.996C827.062 422.847 828.469 422.963 828.459 422.363C828.449 421.763 825.831 420.264 826.741 418.31C827.075 417.464 827.676 416.858 828.462 416.38C829.118 416.082 829.873 415.799 830.699 415.726L830.5 415.696C859.333 409.451 883.438 376.352 885.988 334.558C886.205 328.508 885.994 322.592 885.171 316.681Z" fill="#527FA7"/>
<path d="M813.973 252.298C771.553 254.264 743.702 295.863 751.265 340.704C754.952 362.413 764.277 381.197 776.556 394.65L885.072 316.666C879.682 279.538 850.647 250.648 813.973 252.298ZM758.266 332.205C755.262 295.443 779.109 262.703 814.346 261.132C818.541 260.978 822.676 261.214 826.736 261.936C790.468 266.242 764.288 295.632 758.266 332.205Z" fill="#79A3C7"/>
<g opacity="0.7">
<path d="M715.556 679.624C715.568 679.575 716.387 672.768 718.954 667.516C720.752 663.948 720.71 663.679 720.402 660.287C720.277 658.805 720.08 656.736 719.938 653.538C719.629 645.686 721.402 643.564 723.467 641.098C724.274 640.148 725.031 639.186 725.65 638.14C727.443 635.038 725.376 632.37 724.103 630.824C723.453 629.995 723.033 629.533 723.4 629.101C723.547 628.929 723.732 628.817 723.905 628.754C723.855 628.742 723.867 628.693 723.828 628.632L723.725 628.4L723.921 628.239C723.983 628.202 723.995 628.153 724.107 628.128L724.096 627.503C724.42 627.476 726.178 627.426 726.705 627.654C726.856 627.69 726.983 627.824 727.048 627.995C727.063 628.154 727.028 628.301 726.843 628.413C726.658 628.525 726.484 628.587 726.261 628.638C726.461 628.686 726.673 628.684 726.773 628.708L730.477 629.378L726.699 629.468C726.325 629.483 725.913 629.437 725.562 629.354C725.049 629.285 724.552 629.374 724.093 629.525C724.285 629.83 724.478 630.135 724.732 630.402C726.044 632.01 728.402 635.006 726.343 638.563C725.663 639.647 724.933 640.719 724.076 641.657C722.095 643.988 720.408 645.974 720.724 653.569C720.828 656.705 721.025 658.775 721.2 660.268C721.535 663.771 721.553 664.138 719.698 667.951C717.165 673.056 716.369 679.765 716.358 679.814L715.556 679.624Z" fill="#D9D9D9"/>
<path d="M760.743 578.67L702.163 614.008C707.661 621.172 714.851 625.883 722.428 626.952C722.979 627.083 723.495 627.361 723.888 627.713C724.23 628.053 724.449 628.468 724.117 628.753C722.778 629.939 723.241 629.997 723.241 629.997C723.394 630.241 723.683 630.361 723.957 630.323C724.242 630.235 724.555 630.257 724.844 630.377C725.144 630.448 725.383 630.557 725.58 630.396C725.777 630.235 726.381 630.586 726.555 630.523C726.728 630.461 727.441 630.578 727.461 630.271C727.481 629.965 726.206 629.092 726.751 628.132C726.956 627.714 727.288 627.429 727.708 627.218C728.055 627.093 728.453 626.979 728.877 626.976L728.776 626.952C743.747 624.95 757.408 609.049 760.426 587.826C760.785 584.748 760.92 581.72 760.743 578.67Z" fill="#527FA7"/>
<path d="M727.054 542.889C705.327 542.15 689.405 562.234 691.422 585.428C692.412 596.658 696.399 606.627 702.113 613.996L760.693 578.658C759.468 559.489 745.837 543.554 727.054 542.889ZM695.344 581.379C695.321 562.495 708.835 546.767 726.882 547.412C729.029 547.506 731.13 547.796 733.172 548.332C714.487 549.04 699.919 562.962 695.344 581.379Z" fill="#79A3C7"/>
</g>
<path d="M596.425 254.145C596.42 254.052 594.326 241.541 596.146 230.879C597.477 223.609 597.262 223.153 594.948 217.291C593.954 214.726 592.525 211.155 590.606 205.554C585.965 191.775 588.006 187.085 590.387 181.629C591.324 179.523 592.167 177.421 592.719 175.241C594.285 168.8 589.227 165.141 586.16 163.06C584.573 161.929 583.588 161.326 584.014 160.369C584.184 159.986 584.455 159.691 584.73 159.489C584.635 159.494 584.63 159.401 584.53 159.313L584.225 158.955L584.491 158.567C584.581 158.469 584.576 158.375 584.761 158.272L584.417 157.168C584.977 156.952 588.072 155.946 589.128 156.077C589.413 156.062 589.708 156.233 589.913 156.503C590.023 156.778 590.038 157.057 589.768 157.352C589.497 157.647 589.222 157.849 588.851 158.055C589.231 158.035 589.607 157.922 589.797 157.912L596.721 157.171L590.062 159.3C589.406 159.522 588.65 159.656 587.984 159.691C587.038 159.834 586.202 160.253 585.465 160.759C585.966 161.2 586.466 161.641 587.056 161.984C590.224 164.154 595.972 168.243 594.17 175.632C593.528 177.91 592.791 180.193 591.758 182.305C589.457 187.476 587.497 191.88 592.018 205.198C593.836 210.712 595.266 214.282 596.355 216.843C598.774 222.885 598.999 223.528 597.692 231.264C595.858 241.646 597.942 253.971 597.947 254.065L596.425 254.145Z" fill="#D9D9D9"/>
<path d="M624.019 51.3779L538.447 144.646C551.941 154.496 567.161 159.112 581.168 157.06C582.215 157.005 583.276 157.229 584.156 157.65C584.942 158.076 585.547 158.698 585.106 159.376C583.347 162.181 584.198 162.042 584.198 162.042C584.599 162.395 585.174 162.458 585.64 162.246C586.101 161.941 586.666 161.818 587.242 161.881C587.813 161.85 588.293 161.918 588.559 161.53C588.824 161.142 590.081 161.45 590.356 161.248C590.631 161.046 591.958 160.883 591.833 160.328C591.709 159.774 588.991 158.889 589.458 156.901C589.604 156.052 590.045 155.374 590.681 154.779C591.232 154.376 591.878 153.968 592.629 153.741L592.438 153.751C617.97 142.393 633.933 107.046 628.227 67.7977C627.26 62.1455 625.922 56.7 624.019 51.3779Z" fill="#BA2B1C"/>
<path d="M545.564 5.42165C506.607 15.4345 488.812 59.3877 504.483 99.5096C512.094 118.928 524.368 134.546 538.352 144.651L623.923 51.383C611.757 17.9943 579.253 -3.18992 545.564 5.42165ZM509.335 90.2764C499.451 56.7666 515.243 21.8021 547.616 13.5408C551.476 12.5882 555.356 12.0085 559.26 11.895C526.46 22.8904 507.857 55.199 509.335 90.2764Z" fill="#F76251"/>
</svg>
