<svg width="1066" height="694" viewBox="0 0 1066 694" fill="none" xmlns="http://www.w3.org/2000/svg">
<path d="M278.294 445.938L278.452 445.629C278.452 445.629 278.452 445.783 278.294 445.938Z" fill="#BA2B1C"/>
<path d="M867.669 223.976C867.195 225.215 861.665 226.764 852.5 224.596C856.45 223.511 860.717 223.047 864.825 223.047C867.985 223.357 867.669 223.976 867.669 223.976Z" fill="#DEA635"/>
<path d="M862.613 49.1013L862.771 49.566L862.613 49.1013Z" fill="#DEA635"/>
<path d="M380.21 55.7617C380.21 57.4655 378.788 58.8596 377.05 58.8596C375.312 58.8596 373.89 57.4655 373.89 55.7617C373.89 54.0579 375.312 52.6638 377.05 52.6638C378.788 52.6638 380.21 54.0579 380.21 55.7617Z" fill="white"/>
<path d="M401.383 44.4545C401.383 46.3132 399.803 47.8621 397.907 47.8621C396.011 47.8621 394.431 46.3132 394.431 44.4545C394.431 42.5958 396.011 41.0468 397.907 41.0468C399.803 40.8919 401.383 42.4409 401.383 44.4545Z" fill="#4FB8A4"/>
<path d="M462.849 54.9872C462.849 57.7753 460.479 60.0987 457.635 60.0987C454.791 60.0987 452.421 57.7753 452.421 54.9872C452.421 52.1991 454.791 49.8757 457.635 49.8757C460.479 49.8757 462.849 52.0442 462.849 54.9872C462.849 54.8323 462.849 54.8323 462.849 54.9872Z" fill="#ED6D5F"/>
<path d="M289.987 96.3438C289.987 98.3574 288.407 99.9064 286.353 99.9064C284.299 99.9064 282.718 98.3574 282.718 96.3438C282.718 94.3302 284.299 92.7812 286.353 92.7812C288.407 92.7812 289.987 94.3302 289.987 96.3438Z" fill="white"/>
<path d="M548.806 88.1345C551.599 88.1345 553.863 85.9154 553.863 83.1779C553.863 80.4405 551.599 78.2213 548.806 78.2213C546.014 78.2213 543.75 80.4405 543.75 83.1779C543.75 85.9154 546.014 88.1345 548.806 88.1345Z" fill="#F5C940"/>
<path d="M636.659 73.8843C636.659 76.3626 634.605 78.3762 632.077 78.3762C629.549 78.3762 627.495 76.3626 627.495 73.8843C627.495 71.406 629.549 69.3923 632.077 69.3923C634.605 69.3923 636.659 71.406 636.659 73.8843Z" fill="#ED6D5F"/>
<path d="M431.405 11.3073C431.405 14.0954 429.035 16.4188 426.191 16.4188C423.347 16.4188 420.977 14.0954 420.977 11.3073C420.977 8.51921 423.347 6.1958 426.191 6.1958C429.035 6.35069 431.405 8.51921 431.405 11.3073Z" fill="#ED6D5F"/>
<path d="M450.208 -5.11147C450.208 -1.8587 447.522 0.619598 444.362 0.619598C441.044 0.619598 438.516 -2.01359 438.516 -5.11147C438.516 -8.20934 441.202 -10.8425 444.362 -10.8425C447.68 -10.8425 450.208 -8.20934 450.208 -5.11147Z" fill="white"/>
<path d="M752.006 5.11149C752.006 6.35064 750.9 7.4349 749.636 7.4349C748.372 7.4349 747.266 6.35064 747.266 5.11149C747.266 3.87234 748.372 2.78809 749.636 2.78809C750.9 2.78809 752.006 3.71745 752.006 5.11149Z" fill="white"/>
<path d="M715.19 10.5328C715.19 11.7719 714.242 12.7013 712.978 12.7013C711.714 12.7013 710.766 11.7719 710.766 10.5328C710.766 9.29362 711.714 8.36426 712.978 8.36426C714.242 8.36426 715.19 9.29362 715.19 10.5328Z" fill="#4FB8A4"/>
<path d="M365.673 24.783C365.673 26.6417 364.093 28.1907 362.197 28.1907C360.301 28.1907 358.721 26.6417 358.721 24.783C358.721 22.9243 360.301 21.3754 362.197 21.3754C364.093 21.3754 365.673 22.9243 365.673 24.783Z" fill="white"/>
<path d="M521.945 53.9029C521.945 56.3812 519.89 58.3948 517.362 58.3948C514.834 58.3948 512.78 56.3812 512.78 53.9029C512.78 51.4246 514.834 49.411 517.362 49.411C519.89 49.411 521.945 51.4246 521.945 53.9029Z" fill="#8AA5BC"/>
<path d="M657.359 67.6885C657.359 69.857 655.621 71.5608 653.408 71.5608C651.196 71.5608 649.458 69.857 649.458 67.6885C649.458 65.52 651.196 63.8162 653.408 63.8162C655.621 63.8162 657.359 65.52 657.359 67.6885Z" fill="#F5C940"/>
<path d="M286.511 72.8C286.511 74.8136 284.773 76.3625 282.718 76.3625C280.664 76.3625 279.084 74.6587 279.084 72.6451C279.084 70.6315 280.822 69.0825 282.718 69.0825C284.931 69.0825 286.511 70.7864 286.511 72.8Z" fill="#4FB8A4"/>
<path d="M371.046 102.694C371.046 104.553 369.466 106.102 367.569 106.102C365.673 106.102 364.251 104.553 364.251 102.694C364.251 100.836 365.831 99.2867 367.727 99.2867C369.466 99.2867 371.046 100.836 371.046 102.694Z" fill="#ED6D5F"/>
<path d="M554.811 129.956C554.811 132.589 552.757 134.603 550.07 134.603C547.384 134.603 545.33 132.589 545.33 129.956C545.33 127.323 547.384 125.309 550.07 125.309C552.757 125.309 554.811 127.323 554.811 129.956Z" fill="white"/>
<path d="M307.368 147.459C307.368 150.092 305.156 152.26 302.47 152.26C299.783 152.26 297.571 150.092 297.571 147.459C297.571 144.825 299.783 142.657 302.47 142.657C305.156 142.657 307.368 144.825 307.368 147.459Z" fill="white"/>
<path d="M342.92 167.44C342.92 170.228 340.708 172.397 337.864 172.397C335.02 172.397 332.807 170.228 332.807 167.44C332.807 164.652 335.02 162.483 337.864 162.483C340.708 162.483 342.92 164.652 342.92 167.44Z" fill="white"/>
<path d="M460.005 185.253C460.005 188.196 457.635 190.674 454.475 190.674C451.472 190.674 448.944 188.351 448.944 185.253C448.944 182.155 451.314 179.832 454.475 179.832C457.477 179.986 460.005 182.31 460.005 185.253Z" fill="#ED6D5F"/>
<path d="M210.034 197.489C210.034 201.362 206.874 204.46 202.924 204.46C198.973 204.46 195.813 201.362 195.813 197.489C195.813 193.617 198.973 190.519 202.924 190.519C206.874 190.519 210.034 193.772 210.034 197.489Z" fill="#4FB8A4"/>
<path d="M263.283 210.036C263.283 213.753 260.281 216.696 256.489 216.696C252.697 216.696 249.694 213.753 249.694 210.036C249.694 206.318 252.697 203.375 256.489 203.375C260.281 203.375 263.283 206.318 263.283 210.036Z" fill="#8AA5BC"/>
<path d="M431.563 193.772C431.563 196.56 429.351 198.729 426.507 198.729C423.663 198.729 421.451 196.56 421.451 193.772C421.451 190.984 423.663 188.815 426.507 188.815C429.351 188.815 431.563 190.984 431.563 193.772Z" fill="#F5C940"/>
<path d="M390.481 179.057C390.481 181.535 388.427 183.394 386.057 183.394C383.528 183.394 381.632 181.38 381.632 179.057C381.632 176.579 383.686 174.72 386.057 174.72C388.585 174.72 390.481 176.734 390.481 179.057Z" fill="white"/>
<path d="M328.383 93.7106C330.303 93.7106 331.859 92.1849 331.859 90.3029C331.859 88.4209 330.303 86.8953 328.383 86.8953C326.463 86.8953 324.907 88.4209 324.907 90.3029C324.907 92.1849 326.463 93.7106 328.383 93.7106Z" fill="#ED6D5F"/>
<path d="M313.214 19.9813C313.214 22.3047 311.318 24.0086 309.106 24.0086C306.894 24.0086 304.998 22.1498 304.998 19.9813C304.998 17.8128 306.894 15.9541 309.106 15.9541C311.318 15.7992 313.214 17.6579 313.214 19.9813Z" fill="#F5C940"/>
<path d="M356.035 43.68C356.035 45.5387 354.613 46.9328 352.717 46.9328C350.821 46.9328 349.398 45.5387 349.398 43.68C349.398 41.8213 350.821 40.4272 352.717 40.4272C354.455 40.4272 356.035 41.8213 356.035 43.68Z" fill="#ED6D5F"/>
<path d="M432.353 79.1507C432.353 81.3192 430.615 83.023 428.403 83.023C426.191 83.023 424.453 81.3192 424.453 79.1507C424.453 76.9822 426.191 75.2783 428.403 75.2783C430.615 75.2783 432.353 76.9822 432.353 79.1507Z" fill="white"/>
<path d="M297.887 114.776C297.887 116.945 296.149 118.648 293.937 118.648C291.725 118.648 289.987 116.945 289.987 114.776C289.987 112.608 291.725 110.904 293.937 110.904C296.149 110.904 297.887 112.608 297.887 114.776Z" fill="#ED6D5F"/>
<path d="M344.5 153.19C344.5 155.668 342.446 157.682 339.918 157.682C337.39 157.682 335.336 155.668 335.336 153.19C335.336 150.711 337.39 148.698 339.918 148.698C342.446 148.543 344.5 150.557 344.5 153.19C344.5 153.19 344.5 153.035 344.5 153.19Z" fill="#F5C940"/>
<path d="M410.706 178.283C410.706 180.761 408.652 182.774 406.124 182.774C403.596 182.774 401.542 180.761 401.542 178.283C401.542 175.804 403.596 173.791 406.124 173.791C408.652 173.636 410.706 175.804 410.706 178.283Z" fill="white"/>
<path d="M317.955 200.587C317.955 203.995 315.11 206.783 311.634 206.783C308.158 206.783 305.314 203.995 305.314 200.587C305.314 197.18 308.158 194.391 311.634 194.391C315.11 194.391 317.955 197.18 317.955 200.587Z" fill="#8AA5BC"/>
<path d="M304.366 191.139C304.366 194.546 301.68 197.18 298.203 197.18C294.727 197.18 292.041 194.546 292.041 191.139C292.041 187.731 294.727 185.098 298.203 185.098C301.68 185.098 304.366 187.886 304.366 191.139Z" fill="#4FB8A4"/>
<path d="M313.53 111.214C315.625 111.214 317.322 109.549 317.322 107.496C317.322 105.443 315.625 103.779 313.53 103.779C311.436 103.779 309.738 105.443 309.738 107.496C309.738 109.549 311.436 111.214 313.53 111.214Z" fill="#8AA5BC"/>
<path d="M320.009 30.0494C320.009 32.2179 318.271 33.9217 316.216 33.9217C314.004 33.9217 312.266 32.2179 312.266 30.2042C312.266 28.1906 314.004 26.3319 316.058 26.3319C318.113 26.3319 319.851 28.0357 320.009 30.0494Z" fill="#8AA5BC"/>
<path d="M325.381 6.81531C325.381 9.13872 323.485 10.8425 321.273 10.8425C318.903 10.8425 317.164 8.98382 317.164 6.81531C317.164 4.49191 319.061 2.78808 321.273 2.78808C323.485 2.63319 325.381 4.49191 325.381 6.81531Z" fill="white"/>
<path d="M340.076 13.4758C342.257 13.4758 344.026 11.7421 344.026 9.60342C344.026 7.46478 342.257 5.73108 340.076 5.73108C337.894 5.73108 336.126 7.46478 336.126 9.60342C336.126 11.7421 337.894 13.4758 340.076 13.4758Z" fill="#ED6D5F"/>
<path d="M352.243 76.6723C354.075 76.6723 355.561 75.216 355.561 73.4195C355.561 71.6231 354.075 70.1667 352.243 70.1667C350.41 70.1667 348.924 71.6231 348.924 73.4195C348.924 75.216 350.41 76.6723 352.243 76.6723Z" fill="#F5C940"/>
<path d="M352.875 110.439C352.875 112.453 351.295 114.002 349.24 114.002C347.186 114.002 345.606 112.453 345.606 110.439C345.606 108.426 347.186 106.877 349.24 106.877C351.295 106.877 352.875 108.426 352.875 110.439Z" fill="white"/>
<path d="M356.667 131.195C356.667 133.363 354.929 135.067 352.717 135.067C350.504 135.067 348.766 133.363 348.766 131.195C348.766 129.026 350.504 127.323 352.717 127.323C354.929 127.323 356.667 129.026 356.667 131.195Z" fill="#4FB8A4"/>
<path d="M354.613 175.959C354.613 178.592 352.401 180.761 349.714 180.761C347.028 180.761 344.816 178.592 344.816 175.959C344.816 173.326 347.028 171.157 349.714 171.157C352.401 171.157 354.613 173.326 354.613 175.959Z" fill="#ED6D5F"/>
<path d="M356.983 231.101C356.983 234.044 354.613 236.523 351.453 236.523C348.292 236.523 345.922 234.199 345.922 231.101C345.922 228.003 348.292 225.68 351.453 225.68C354.613 225.68 356.983 228.003 356.983 231.101Z" fill="#ED6D5F"/>
<path d="M367.886 292.749C370.678 292.749 372.942 290.53 372.942 287.792C372.942 285.055 370.678 282.836 367.886 282.836C365.093 282.836 362.829 285.055 362.829 287.792C362.829 290.53 365.093 292.749 367.886 292.749Z" fill="#4FB8A4"/>
<path d="M372.468 315.054C372.468 317.687 370.256 320.01 367.412 320.01C364.725 320.01 362.355 317.842 362.355 315.054C362.355 312.42 364.567 310.097 367.412 310.097C370.256 310.252 372.468 312.42 372.468 315.054Z" fill="#F5C940"/>
<path d="M369.782 344.328C369.782 346.807 367.728 348.82 365.199 348.82C362.671 348.82 360.617 346.807 360.617 344.328C360.617 341.85 362.671 339.837 365.199 339.837C367.728 339.837 369.782 341.85 369.782 344.328Z" fill="#ED6D5F"/>
<path d="M373.574 392.5C373.574 394.669 371.836 396.373 369.624 396.373C367.411 396.373 365.673 394.669 365.673 392.5C365.673 390.332 367.411 388.628 369.624 388.628C371.836 388.473 373.574 390.332 373.574 392.5Z" fill="#ED6D5F"/>
<path d="M346.396 434.012C348.665 434.012 350.504 432.209 350.504 429.985C350.504 427.761 348.665 425.958 346.396 425.958C344.127 425.958 342.288 427.761 342.288 429.985C342.288 432.209 344.127 434.012 346.396 434.012Z" fill="#4FB8A4"/>
<path d="M359.037 462.358C359.037 464.216 357.457 465.765 355.561 465.765C353.665 465.765 352.085 464.216 352.085 462.358C352.085 460.499 353.665 458.95 355.561 458.95C357.457 458.95 359.037 460.499 359.037 462.358Z" fill="#F5C940"/>
<path d="M384.476 489.928C384.476 491.477 383.212 492.871 381.632 492.871C380.052 492.871 378.63 491.632 378.63 490.083C378.63 488.534 379.894 487.14 381.474 487.14C383.054 487.14 384.476 488.38 384.476 489.928Z" fill="#8AA5BC"/>
<path d="M374.996 531.44C374.996 532.989 373.732 534.383 371.994 534.383C370.256 534.383 368.992 533.144 368.992 531.44C368.992 529.891 370.256 528.497 371.994 528.497C373.732 528.497 374.996 529.891 374.996 531.44Z" fill="#4FB8A4"/>
<path d="M364.883 591.694C364.883 593.243 363.619 594.482 361.881 594.482C360.301 594.482 359.037 593.243 359.037 591.539C359.037 589.835 360.301 588.751 362.039 588.751C363.461 588.751 364.883 590.145 364.883 591.694Z" fill="#F5C940"/>
<path d="M369.94 614.308C369.94 615.857 368.676 617.096 367.095 617.096C365.515 617.096 364.251 615.857 364.251 614.308C364.251 612.759 365.515 611.52 367.095 611.52C368.676 611.52 369.94 612.759 369.94 614.308Z" fill="#4FB8A4"/>
<path d="M373.574 633.67C375.145 633.67 376.418 632.421 376.418 630.882C376.418 629.342 375.145 628.094 373.574 628.094C372.003 628.094 370.73 629.342 370.73 630.882C370.73 632.421 372.003 633.67 373.574 633.67Z" fill="white"/>
<path d="M479.124 585.963C479.124 589.525 476.122 592.468 472.488 592.468C468.853 592.468 465.851 589.525 465.851 585.963C465.851 582.4 468.853 579.457 472.488 579.457C476.122 579.457 479.124 582.4 479.124 585.963Z" fill="#4FB8A4"/>
<path d="M697.809 444.235C697.809 448.262 694.491 451.515 690.383 451.515C686.274 451.515 682.956 448.262 682.956 444.235C682.956 440.208 686.274 436.955 690.383 436.955C694.649 436.955 697.809 440.208 697.809 444.235Z" fill="#ED6D5F"/>
<path d="M777.762 312.266C777.762 314.899 775.708 316.912 773.022 316.912C770.335 316.912 768.281 314.899 768.281 312.266C768.281 309.632 770.335 307.619 773.022 307.619C775.708 307.619 777.762 309.787 777.762 312.266Z" fill="#4FB8A4"/>
<path d="M784.082 155.513C784.082 158.921 781.238 161.709 777.762 161.709C774.286 161.709 771.441 158.921 771.441 155.513C771.441 152.105 774.286 149.317 777.762 149.317C781.238 149.317 784.082 152.105 784.082 155.513Z" fill="#F5C940"/>
<path d="M855.977 -2.01367C855.977 1.0842 853.448 3.5625 850.288 3.5625C847.128 3.5625 844.6 1.0842 844.6 -2.01367C844.6 -5.11155 847.128 -7.58984 850.13 -7.58984C853.448 -7.58984 855.977 -5.11155 855.977 -2.01367Z" fill="white"/>
<path d="M819.634 -1.39404C819.634 0.92936 817.738 2.78808 815.368 2.78808C812.998 2.78808 811.102 0.92936 811.102 -1.39404C811.102 -3.71745 812.998 -5.57617 815.368 -5.57617C817.738 -5.57617 819.634 -3.71745 819.634 -1.39404Z" fill="white"/>
<path d="M835.119 -2.63323C835.119 -4.22384e-05 832.907 2.16847 830.221 2.16847C827.535 2.16847 825.323 -4.22384e-05 825.323 -2.63323C825.323 -5.26643 827.535 -7.43494 830.221 -7.43494C832.907 -7.43494 835.119 -5.42132 835.119 -2.63323Z" fill="#ED6D5F"/>
<path d="M819.489 16.9706C819.5 15.0031 817.881 13.3999 815.874 13.39C813.867 13.38 812.231 14.967 812.221 16.9345C812.211 18.9021 813.83 20.5051 815.837 20.5151C817.844 20.5251 819.479 18.9381 819.489 16.9706Z" fill="white"/>
<path d="M872.884 33.4571C872.884 36.4 870.513 38.7234 867.511 38.7234C864.509 38.7234 862.139 36.4 862.139 33.4571C862.139 30.5141 864.509 28.1907 867.511 28.1907C870.513 28.1907 872.884 30.5141 872.884 33.4571Z" fill="#ED6D5F"/>
<path d="M828.799 75.5881C830.893 75.5881 832.591 73.9237 832.591 71.8706C832.591 69.8176 830.893 68.1532 828.799 68.1532C826.704 68.1532 825.007 69.8176 825.007 71.8706C825.007 73.9237 826.704 75.5881 828.799 75.5881Z" fill="#8AA5BC"/>
<path d="M795.459 99.9064C795.459 102.54 793.247 104.708 790.561 104.708C787.874 104.708 785.662 102.54 785.662 99.9064C785.662 97.2732 787.874 95.1047 790.561 95.1047C793.247 95.1047 795.459 97.2732 795.459 99.9064Z" fill="#4FB8A4"/>
<path d="M860.243 111.988C860.243 114.621 858.031 116.79 855.344 116.79C852.658 116.79 850.446 114.621 850.446 111.988C850.446 109.355 852.658 107.186 855.344 107.186C858.031 107.186 860.243 109.355 860.243 111.988Z" fill="white"/>
<path d="M882.996 111.059C882.996 113.847 880.784 116.015 877.94 116.015C875.096 116.015 872.883 113.847 872.883 111.059C872.883 108.271 875.096 106.102 877.94 106.102C880.784 105.947 882.996 108.271 882.996 111.059Z" fill="#4FB8A4"/>
<path d="M858.821 151.641C858.821 154.894 856.134 157.527 852.816 157.527C849.498 157.527 846.812 154.894 846.812 151.641C846.812 148.388 849.498 145.755 852.816 145.755C856.134 145.755 858.821 148.388 858.821 151.641Z" fill="#ED6D5F"/>
<path d="M892.477 168.214C892.477 171.467 889.79 174.1 886.472 174.1C883.154 174.1 880.468 171.467 880.468 168.214C880.468 164.962 883.154 162.328 886.472 162.328C889.79 162.328 892.477 164.962 892.477 168.214Z" fill="#F5C940"/>
<path d="M905.907 211.585C908.7 211.585 910.964 209.366 910.964 206.628C910.964 203.891 908.7 201.672 905.907 201.672C903.115 201.672 900.851 203.891 900.851 206.628C900.851 209.366 903.115 211.585 905.907 211.585Z" fill="#4FB8A4"/>
<path d="M926.765 241.634C926.765 244.267 924.553 246.436 921.866 246.436C919.18 246.436 916.968 244.267 916.968 241.634C916.968 239.001 919.18 236.832 921.866 236.832C924.553 236.832 926.765 239.001 926.765 241.634Z" fill="#ED6D5F"/>
<path d="M895.953 248.449C895.953 250.618 894.215 252.322 892.002 252.322C889.79 252.322 888.052 250.618 888.052 248.449C888.052 246.281 889.79 244.577 892.002 244.577C894.215 244.577 895.953 246.281 895.953 248.449Z" fill="white"/>
<path d="M812.208 268.895C812.208 270.909 810.47 272.613 808.416 272.613C806.362 272.613 804.623 270.909 804.623 268.895C804.623 266.882 806.362 265.178 808.416 265.178C810.47 265.178 812.208 266.882 812.208 268.895Z" fill="#8AA5BC"/>
<path d="M872.883 295.382C872.883 297.705 870.987 299.564 868.617 299.564C866.247 299.564 864.351 297.705 864.351 295.382C864.351 293.059 866.247 291.2 868.617 291.2C870.987 291.2 872.883 293.059 872.883 295.382Z" fill="#ED6D5F"/>
<path d="M906.381 317.532C906.381 320.785 903.695 323.418 900.377 323.418C897.059 323.418 894.373 320.785 894.373 317.532C894.373 314.279 897.059 311.646 900.377 311.646C903.853 311.801 906.381 314.279 906.381 317.532Z" fill="#F5C940"/>
<path d="M822.952 377.476C822.952 380.109 820.898 382.123 818.212 382.123C815.526 382.123 813.472 380.109 813.472 377.476C813.472 374.843 815.526 372.829 818.212 372.829C820.898 372.829 822.952 374.843 822.952 377.476Z" fill="#F5C940"/>
<path d="M873.2 426.112C873.2 427.661 871.935 428.9 870.355 428.9C868.775 428.9 867.511 427.661 867.511 426.112C867.511 424.563 868.775 423.324 870.355 423.324C871.935 423.324 873.2 424.563 873.2 426.112Z" fill="#4FB8A4"/>
<path d="M924.237 526.019C924.237 527.877 922.814 529.271 920.918 529.271C919.022 529.271 917.6 527.877 917.6 526.019C917.6 524.16 919.022 522.766 920.918 522.766C922.814 522.766 924.237 524.16 924.237 526.019Z" fill="#F5C940"/>
<path d="M943.04 585.188C943.04 586.737 941.776 588.131 940.037 588.131C938.299 588.131 937.035 586.892 937.035 585.188C937.035 583.484 938.299 582.245 940.037 582.245C941.618 582.245 943.04 583.484 943.04 585.188Z" fill="#4FB8A4"/>
<path d="M941.143 595.101C941.143 596.96 939.563 598.354 937.825 598.354C935.929 598.354 934.507 596.805 934.507 595.101C934.507 593.243 936.087 591.848 937.825 591.848C939.563 591.848 941.143 593.243 941.143 595.101Z" fill="white"/>
<path d="M186.41 396.18C204.739 405.474 223.858 408.417 240.607 403.46C241.871 403.151 243.135 403.306 244.399 403.615C245.506 404.08 246.296 404.7 245.98 405.474C244.399 409.192 245.347 408.882 245.347 408.882C245.822 409.192 246.612 409.192 247.086 408.882C247.56 408.417 248.35 408.107 248.982 408.107C249.772 407.952 250.246 407.952 250.562 407.488C250.878 407.023 252.458 407.178 252.774 406.868C253.09 406.558 254.67 406.094 254.354 405.474C254.038 404.855 250.72 404.235 250.72 401.757C250.72 400.672 251.194 399.743 251.826 398.814C252.458 398.194 253.248 397.575 254.038 397.265L253.722 397.42C280.11 380.846 293.224 341.658 285.008 299.527L186.41 396.18Z" fill="#6DB3A9"/>
<path d="M277.581 520.095C277.423 519.476 272.525 504.916 272.841 491.44C272.999 482.301 272.841 481.992 268.733 475.021C266.995 472.078 264.625 467.896 261.148 461.391C252.774 445.127 254.512 438.931 256.408 431.806C257.198 429.173 257.672 426.385 257.988 423.597C258.778 415.542 251.984 412.135 247.876 410.121C245.664 409.037 244.241 408.262 244.557 406.868C244.715 406.558 244.873 406.094 245.031 405.784L244.399 405.319L244.873 403.925L244.241 402.841C245.98 401.912 248.034 401.137 249.93 400.518C250.404 400.518 250.878 400.672 251.194 401.137C251.51 401.602 251.51 402.066 251.194 402.531C251.194 402.686 251.036 402.686 251.036 402.841H251.194L262.412 399.898L252.142 404.855C251.352 405.164 250.404 405.474 249.614 405.629C248.666 405.939 247.718 406.403 246.928 407.023C247.402 407.333 248.192 407.643 248.824 407.952C253.09 410.121 261.148 414.148 260.358 423.752C260.042 426.695 259.41 429.638 258.62 432.426C256.724 439.396 255.302 444.817 263.203 460.306C266.521 466.812 268.891 470.839 270.629 473.782C274.895 480.907 275.211 481.837 275.053 491.44C274.737 504.606 279.636 519.166 279.636 519.321L277.581 520.095Z" fill="#D9D9D9"/>
<path d="M281.532 285.277C279.478 278.461 276.791 271.956 273.315 265.76C252.142 226.882 208.215 206.591 168.397 223.319C122.416 242.526 108.827 299.837 135.689 346.305C148.646 368.764 166.659 385.803 185.778 395.716L186.568 396.026L285.166 299.217C284.218 294.57 282.954 289.923 281.532 285.277ZM139.797 334.068C121.31 294.57 134.109 248.877 172.347 232.923C176.929 231.064 181.512 229.67 186.41 228.741C148.172 248.102 131.265 291.163 139.797 334.068Z" fill="#92E2D8"/>
<path d="M365.302 337.51C375.066 346.249 386.371 351.254 397.525 351.052C398.356 351.076 399.11 351.383 399.839 351.784C400.444 352.252 400.828 352.762 400.505 353.181C398.914 355.178 399.55 355.149 399.55 355.149C399.791 355.417 400.278 355.55 400.622 355.441C400.991 355.238 401.53 355.182 401.92 355.288C402.433 355.327 402.725 355.406 402.997 355.177C403.269 354.947 404.218 355.307 404.465 355.171C404.711 355.036 405.763 355.019 405.671 354.588C405.579 354.158 403.635 353.223 404.046 351.715C404.225 351.055 404.672 350.569 405.216 350.109C405.709 349.838 406.299 349.594 406.838 349.538L406.617 349.579C425.643 343.926 440.233 322.275 442.154 295.247L365.302 337.51Z" fill="#527FA7"/>
<path d="M400.331 429.063C400.341 428.657 399.859 418.932 402.3 410.716C403.921 405.136 403.879 404.921 402.599 399.979C402.056 397.891 401.345 394.942 400.363 390.387C398.098 379.052 400.168 375.533 402.487 371.47C403.398 369.983 404.146 368.35 404.8 366.691C406.617 361.878 403.142 358.686 401.034 356.784C399.898 355.76 399.181 355.055 399.602 354.251C399.748 354.086 399.92 353.827 400.066 353.663L399.767 353.275L400.283 352.497L400.088 351.729C401.277 351.441 402.629 351.299 403.862 351.226C404.144 351.303 404.4 351.475 404.51 351.812C404.621 352.148 404.543 352.433 404.277 352.667C404.251 352.762 404.157 352.736 404.132 352.831L404.226 352.857L411.395 352.871L404.453 354.246C403.931 354.308 403.315 354.344 402.819 354.311C402.203 354.347 401.561 354.478 400.987 354.73C401.218 354.997 401.636 355.315 401.96 355.608C404.137 357.63 408.26 361.407 406.185 367.17C405.505 368.924 404.637 370.627 403.7 372.209C401.407 376.177 399.654 379.272 401.767 390.055C402.655 394.584 403.392 397.439 403.935 399.526C405.283 404.589 405.316 405.21 403.616 411.075C401.227 419.1 401.709 428.826 401.683 428.921L400.331 429.063Z" fill="#D9D9D9"/>
<path d="M442.185 285.347C442.066 280.817 441.508 276.372 440.413 271.985C433.936 244.563 410.394 224.758 383.175 228.38C351.761 232.494 333.833 265.429 342.528 298.464C346.714 314.426 354.909 327.903 364.975 337.188L365.407 337.51L442.08 294.518C442.277 291.505 442.279 288.439 442.185 285.347ZM347.096 291.634C342.37 264.28 357.868 238.349 383.989 234.939C387.111 234.563 390.154 234.473 393.314 234.72C366.622 240.224 349.046 263.851 347.096 291.634Z" fill="#79A3C7"/>
<path d="M609.675 404.856L607.779 403.462C607.779 403.307 614.889 393.394 615.679 373.103C616.311 357.149 623.105 348.63 627.688 343.054C628.952 341.66 630.058 340.111 631.006 338.562C631.954 336.703 633.06 335.154 634.482 333.45C638.906 327.564 644.437 320.284 639.38 313.314C636.536 309.442 635.43 305.724 636.062 302.627C636.536 300.458 637.8 298.599 639.696 297.36L640.961 299.374L640.329 298.444L640.961 299.374C639.696 300.303 638.748 301.697 638.432 303.246C637.958 305.724 638.906 308.822 641.435 312.075C647.597 320.439 640.803 329.113 636.536 334.999C635.272 336.393 634.324 337.942 633.376 339.646C632.428 341.505 631.164 343.054 629.742 344.603C625.318 349.869 618.839 358.079 618.207 373.258C617.259 394.324 609.991 404.392 609.675 404.856Z" fill="#D9D9D9"/>
<path d="M631.954 286.982C634.64 289.151 637.484 291.01 640.645 292.559C641.593 293.023 642.225 293.798 642.699 294.727C643.015 295.502 643.173 296.276 642.541 296.586C639.539 297.825 640.171 298.135 640.171 298.135C640.171 298.135 640.329 299.064 641.119 299.064C641.751 299.064 642.225 299.219 642.699 299.684C643.173 299.993 643.489 300.303 643.963 300.148C644.437 299.993 645.227 300.923 645.543 300.923C645.859 300.923 647.123 301.542 647.281 301.078C647.439 300.613 645.859 298.29 647.281 296.896C647.913 296.276 648.703 295.966 649.493 295.811C650.283 295.811 650.915 295.811 651.705 295.966L651.547 295.811C678.883 300.923 712.381 281.251 730.552 246.09C741.139 225.799 742.403 203.34 735.45 184.907L631.954 286.982Z" fill="#DEA635"/>
<path d="M700.214 149.747C662.924 135.961 622.789 161.673 612.203 203.03C603.196 237.726 612.361 271.028 632.112 287.137L735.766 185.527C729.762 168.953 716.805 155.787 700.214 149.747ZM617.733 216.815C616.153 223.011 615.047 229.362 614.257 235.713C613.467 225.025 614.415 214.492 617.101 204.114C625.002 173.445 650.757 152.07 678.409 151.915C650.125 159.505 626.108 183.978 617.733 216.815Z" fill="#F5C940"/>
<path d="M663.712 252.893L565.115 349.547C582.022 360.544 600.351 365.036 616.942 361.474C618.206 361.319 619.312 361.474 620.418 361.938C621.366 362.403 622.156 363.023 621.682 363.797C619.944 367.05 620.892 366.895 620.892 366.895C621.366 367.205 621.998 367.36 622.472 367.05C622.946 366.74 623.578 366.43 624.368 366.43C625 366.43 625.632 366.43 625.948 365.966C626.264 365.501 627.686 365.811 628.002 365.501C628.318 365.191 629.898 365.036 629.582 364.417C629.266 363.797 626.264 362.868 626.422 360.699C626.58 359.77 627.054 358.84 627.686 358.066C628.318 357.446 629.108 356.982 629.898 356.672L629.582 356.827C658.182 341.802 673.983 299.516 664.028 254.442C664.028 253.977 663.87 253.358 663.712 252.893Z" fill="#BA2B1C"/>
<path d="M624.368 460.296C624.21 459.521 619.944 439.54 627.37 421.727C631.953 410.73 629.74 404.689 628.16 399.887C627.212 396.944 626.264 394.621 627.212 391.833C629.266 385.792 629.582 380.835 624.842 376.498C620.102 372.161 621.366 367.824 622.472 365.966L624.526 367.205C624.368 367.36 622.314 370.922 626.422 374.795C632.269 380.371 631.163 386.876 629.424 392.452C628.792 394.466 629.424 396.48 630.372 399.113C632.111 404.069 634.481 410.73 629.582 422.502C622.472 439.695 626.738 459.521 626.738 459.831L624.368 460.296Z" fill="#D9D9D9"/>
<path d="M563.219 188.458C518.818 203.018 501.753 255.372 523.242 300.6C533.355 321.976 548.366 338.859 564.957 349.547L663.554 252.893C652.336 205.031 607.145 174.052 563.219 188.458ZM577.123 192.33C536.357 205.651 516.29 247.472 523.716 290.068C509.337 249.64 525.928 205.96 564.799 193.259C571.593 190.936 578.861 189.852 586.13 190.006C583.128 190.471 580.125 191.246 577.123 192.33Z" fill="#F76251"/>
<path d="M852.577 693.731C852.577 693.576 850.207 672.666 854.158 655.163C857.002 643.236 856.686 642.461 853.368 632.548C851.945 628.211 849.891 622.17 847.205 612.722C840.727 589.488 844.519 581.898 848.943 573.069C850.681 569.661 852.261 566.254 853.368 562.691C856.528 552.158 848.469 545.653 843.571 541.935C841.043 539.922 839.463 538.837 840.253 537.289C840.569 536.669 841.043 536.204 841.517 535.895C841.359 535.895 841.359 535.74 841.201 535.585L840.727 534.965L841.201 534.346C841.359 534.191 841.359 534.036 841.675 533.881L841.201 532.022C842.149 531.712 847.363 530.318 849.101 530.628C849.575 530.628 850.049 530.938 850.365 531.403C850.523 531.867 850.523 532.332 850.049 532.797C849.575 533.261 849.101 533.571 848.469 533.881C849.101 533.881 849.733 533.726 850.049 533.726L861.584 533.106L850.365 536.049C849.259 536.359 847.995 536.514 846.889 536.514C845.309 536.669 843.887 537.289 842.623 538.063C843.413 538.837 844.203 539.612 845.151 540.232C850.207 544.104 859.372 551.384 855.738 563.466C854.474 567.183 853.051 570.9 851.155 574.308C846.889 582.672 843.255 589.797 849.575 612.257C852.103 621.551 854.158 627.592 855.738 631.929C859.214 642.152 859.53 643.236 856.686 655.937C852.735 672.975 855.106 693.576 855.106 693.731H852.577Z" fill="#D9D9D9"/>
<path d="M916.097 360.245L766.146 507.239C787.636 524.742 812.443 533.726 835.829 531.557C837.567 531.557 839.305 532.022 840.727 532.797C841.991 533.571 842.939 534.655 842.149 535.74C838.989 540.232 840.411 540.077 840.411 540.077C841.043 540.696 841.991 540.851 842.781 540.541C843.571 540.077 844.519 539.922 845.467 540.077C846.415 540.077 847.205 540.232 847.679 539.612C848.153 538.992 850.207 539.612 850.681 539.302C851.156 538.992 853.368 538.837 853.21 537.908C853.052 536.979 848.627 535.275 849.575 532.022C849.891 530.628 850.682 529.544 851.788 528.614C852.736 527.995 853.842 527.375 855.106 527.066H854.79C898.084 510.492 927.632 453.336 921.628 387.816C920.522 378.368 918.784 369.229 916.097 360.245Z" fill="#527FA7"/>
<path d="M790.164 277.222C724.748 290.388 691.408 361.639 713.845 429.483C724.748 462.32 743.709 489.272 765.988 507.239L915.939 360.245C898.716 303.864 846.731 265.915 790.164 277.222ZM722.694 414.613C709.263 358.232 738.495 301.695 792.85 290.853C799.328 289.614 805.807 288.994 812.285 289.149C756.982 304.483 723.326 356.373 722.694 414.613Z" fill="#79A3C7"/>
<path d="M16.7152 187.896L0.179718 147.004L37.2048 148.243L16.7152 187.896Z" fill="#F76251"/>
<path d="M54.639 188.98L37.2048 148.243L74.4097 149.018L54.639 188.98Z" fill="#F5C940"/>
<path d="M92.2033 189.6L74.4097 149.018L111.615 149.637L92.2033 189.6Z" fill="#92E2D8"/>
<path d="M129.588 190.065L111.615 149.637L148.64 149.792L129.588 190.065Z" fill="#79A3C7"/>
<path d="M167.512 190.065L148.64 149.792L185.845 149.637L167.512 190.065Z" fill="#F76251"/>
<path d="M205.256 189.6L185.845 149.637L223.049 149.173L205.256 189.6Z" fill="#F5C940"/>
<path d="M242.281 189.135L223.049 149.173L260.075 148.553L242.281 189.135Z" fill="#92E2D8"/>
<path d="M280.205 188.206L260.075 148.553L297.279 147.469L280.205 188.206Z" fill="#79A3C7"/>
<path d="M317.769 186.967L297.279 147.469L334.304 146.075L317.769 186.967Z" fill="#F76251"/>
<path d="M355.154 185.573L334.304 146.075L371.509 144.526L355.154 185.573Z" fill="#F5C940"/>
<path d="M392.898 183.714L371.509 144.526L408.534 142.512L392.898 183.714Z" fill="#92E2D8"/>
<path d="M430.462 181.545L408.534 142.512L445.56 140.189L430.462 181.545Z" fill="#79A3C7"/>
<path d="M467.487 179.222L445.56 140.189L482.585 137.865L467.487 179.222Z" fill="#F76251"/>
<path d="M505.231 176.589L482.585 137.865L519.61 135.077L505.231 176.589Z" fill="#F5C940"/>
<path d="M542.795 173.491L519.61 135.077L556.635 131.825L542.795 173.491Z" fill="#92E2D8"/>
<path d="M580 170.083L556.635 131.825L593.48 128.417L580 170.083Z" fill="#79A3C7"/>
<path d="M617.565 166.521L593.48 128.417L630.326 124.545L617.565 166.521Z" fill="#F76251"/>
<path d="M654.949 162.339L630.326 124.545L667.171 120.363L654.949 162.339Z" fill="#F5C940"/>
<path d="M692.154 157.847L667.171 120.363L704.016 115.716L692.154 157.847Z" fill="#92E2D8"/>
<path d="M729.718 153.045L704.016 115.716L740.682 110.759L729.718 153.045Z" fill="#79A3C7"/>
<path d="M766.744 147.779L740.682 110.759L777.348 105.338L766.744 147.779Z" fill="#F76251"/>
<path d="M804.128 142.048L777.348 105.338L813.834 99.4519L804.128 142.048Z" fill="#F5C940"/>
<path d="M841.333 135.852L813.834 99.4518L850.14 93.1012L841.333 135.852Z" fill="#92E2D8"/>
<path d="M878.178 129.191L850.14 93.1012L886.446 86.4408L878.178 129.191Z" fill="#79A3C7"/>
<path d="M915.383 122.066L886.446 86.4408L922.752 79.1608L915.383 122.066Z" fill="#F76251"/>
<path d="M952.049 114.322L922.752 79.1608L958.699 71.2612L952.049 114.322Z" fill="#F5C940"/>
<path d="M988.535 106.267L958.699 71.2613L994.646 63.2068L988.535 106.267Z" fill="#92E2D8"/>
<path d="M1025.56 97.4382L994.646 63.2067L1030.23 54.2229L1025.56 97.4382Z" fill="#79A3C7"/>
<path d="M1061.87 87.9897L1030.23 54.2229L1065.82 44.7744L1061.87 87.9897Z" fill="#F76251"/>
<path d="M1065.46 44C821.383 111.689 544.772 135.697 355.693 144.061C150.796 153.2 1.6176 146.075 0.179734 146.075L0 147.934C1.43787 148.089 150.617 155.059 355.693 146.075C368.094 145.455 380.855 144.836 393.796 144.216C580.899 134.458 837.738 109.055 1066 45.8587L1065.46 44Z" fill="#D9D9D9"/>
<path d="M484.925 462.483C484.925 462.483 499.778 433.518 527.43 413.536C540.07 404.398 558.399 388.753 555.239 379.615C552.079 370.476 547.971 362.576 545.601 360.408C545.601 360.408 547.655 363.506 540.702 369.082C533.75 374.658 508.785 397.737 496.302 415.86C483.819 433.982 472.6 460.469 472.6 460.469L484.925 462.483Z" fill="#79A3C7"/>
<path d="M545.917 337.019C545.917 337.019 535.804 346.777 524.269 355.606C512.735 364.435 503.254 370.94 504.044 376.517L497.092 352.663C497.092 352.663 493.774 344.454 504.834 335.78C515.895 327.106 562.982 295.662 545.127 279.398C545.127 279.398 551.289 282.651 553.659 302.942C556.661 327.415 550.025 333.146 545.917 337.019Z" fill="#79A3C7"/>
<path d="M485.557 280.483L482.239 255.854C482.239 255.854 480.185 249.194 502.306 236.028C522.373 224.101 555.239 213.104 543.705 199.009C543.705 199.009 548.603 203.346 549.077 217.751C549.709 236.803 548.919 239.746 536.752 246.871C524.586 253.996 506.098 264.374 506.098 264.374C506.098 264.374 485.241 274.906 485.557 280.483Z" fill="#79A3C7"/>
<path d="M480.975 196.84C480.975 196.84 480.501 183.054 480.659 177.014C480.817 170.973 481.449 165.087 495.354 160.75C509.259 156.413 545.443 149.907 540.86 133.953C540.86 133.953 542.915 137.051 539.754 158.736C536.278 183.054 508.468 181.97 501.358 184.294C494.248 186.617 480.501 189.715 480.975 196.84Z" fill="#79A3C7"/>
<path d="M540.702 369.082C546.391 364.59 546.075 361.647 545.759 360.717C545.759 360.563 545.601 360.563 545.601 360.408C543.231 356.38 525.376 357 522.373 357.155C511.787 365.364 503.254 371.405 504.044 376.672C507.362 381.783 527.114 381.473 527.114 381.473C533.118 375.587 538.174 371.095 540.702 369.082Z" fill="#527FA7"/>
<path d="M480.975 196.53C480.975 202.726 493.458 207.992 509.259 210.935C525.059 213.878 533.434 219.145 533.434 219.145C543.547 212.794 549.709 206.289 543.705 199.009C541.65 196.066 531.538 192.968 523.479 190.799C516.211 188.786 504.202 184.758 501.832 183.984L501.358 184.139C494.406 186.462 480.817 189.715 480.975 196.53Z" fill="#527FA7"/>
<path d="M485.557 280.483C486.347 285.129 490.139 287.143 508.153 291.945C519.845 295.043 531.222 298.915 542.283 303.407C548.919 295.043 551.921 286.678 545.917 280.328L545.127 279.553C529.8 268.091 505.94 264.374 505.94 264.374C505.94 264.374 485.241 274.906 485.557 280.483Z" fill="#527FA7"/>
<path d="M541.176 135.192C541.176 134.728 541.018 134.263 540.86 133.798C536.91 122.026 519.055 111.184 494.722 91.8222C477.815 78.3464 470.862 67.8137 468.176 62.5473C466.28 58.2102 466.122 53.2536 468.018 48.9166C463.91 57.126 461.224 65.9549 460.276 75.0936V75.2485C460.276 75.4034 460.276 75.7132 460.276 75.7132C459.802 99.7217 483.819 120.787 502.464 129.926C521.741 139.375 528.852 149.597 529.01 149.907C530.432 149.288 531.696 148.513 532.96 147.739L533.276 147.429L534.066 146.809L534.54 146.5L535.33 146.035L535.804 145.57C535.962 145.415 536.278 145.26 536.436 145.106L536.91 144.641C537.068 144.486 537.226 144.331 537.542 144.176C537.858 144.021 537.858 143.866 538.016 143.712L538.49 143.247C538.806 142.937 538.964 142.627 539.28 142.163L539.438 141.853L539.912 141.078C539.912 140.923 540.07 140.769 540.07 140.614C540.07 140.459 540.228 140.149 540.386 139.839C540.544 139.529 540.544 139.529 540.544 139.374L540.702 138.6L540.86 138.135C540.86 137.826 540.86 137.671 540.86 137.361C540.86 137.051 540.86 137.051 540.86 136.896C540.86 136.586 540.86 136.277 540.86 135.967C541.176 135.502 541.176 135.347 541.176 135.192Z" fill="#527FA7"/>
<path d="M534.54 -7H493.458C476.235 6.94043 464.7 26.457 460.592 47.9872C459.96 57.2808 459.802 66.5745 460.276 76.023C460.276 76.023 461.066 21.9651 534.54 -7Z" fill="#79A3C7"/>
<path d="M160.655 144.478C165.711 160.123 176.771 173.134 191.624 180.724C192.888 181.343 193.994 181.808 194.785 182.118C194.943 177.626 195.575 173.134 196.523 168.797C196.839 167.248 197.155 165.699 197.945 164.15C168.239 159.503 161.445 146.182 160.655 144.478Z" fill="#BA2B1C"/>
<path d="M241.239 175.457C239.501 164.46 210.585 168.642 201.263 183.666C200.947 184.131 200.789 184.441 200.631 184.751C200.631 184.751 210.743 189.088 227.018 186.3C243.293 183.511 241.239 175.457 241.239 175.457Z" fill="#BA2B1C"/>
<path d="M236.815 151.913C236.815 151.913 236.657 148.97 232.391 146.957C228.125 144.943 209.795 142 197.945 164.15C197.313 165.699 196.839 167.248 196.523 168.797C195.575 173.134 194.943 177.626 194.785 182.118H194.627L194.785 182.737C194.785 182.737 193.362 201.789 199.999 213.251C199.525 212.322 192.098 198.381 201.263 183.821C210.743 168.797 239.501 164.615 241.239 175.612L236.815 151.913Z" fill="#F76251"/>
<path d="M248.508 239.893L248.666 213.716C248.666 212.322 247.718 211.083 246.454 210.618C243.767 209.843 229.863 209.379 216.432 215.884C203.001 222.39 197.945 232.613 197.155 237.724C197.155 237.724 195.417 255.227 194.626 262.507C193.836 269.787 194.31 275.518 202.843 283.573C202.843 283.573 194.152 275.054 195.575 266.844C196.997 258.635 201.421 251.51 218.96 243.3C236.499 235.091 247.876 238.034 248.508 239.893Z" fill="#F76251"/>
<path d="M199.367 186.764C195.891 194.199 195.733 202.563 198.577 210.153C200.315 214.49 202.843 218.517 205.845 222.08L206.161 222.39C209.163 219.757 212.482 217.433 216.274 215.729C220.54 213.716 224.964 212.167 229.705 211.237C216.59 207.83 205.529 198.846 199.367 186.764Z" fill="#BA2B1C"/>
<path d="M248.508 239.893C248.034 238.499 241.713 236.64 231.285 239.118C235.867 240.358 240.607 240.822 245.348 240.822C248.824 240.667 248.508 239.893 248.508 239.893Z" fill="#BA2B1C"/>
<path d="M251.51 304.793V275.208C251.51 275.208 251.826 273.969 246.138 273.814C246.138 273.814 197.945 276.293 189.57 305.877C180.564 337.786 180.406 351.261 186.568 358.541C186.568 358.541 180.564 350.642 185.304 339.18C190.044 327.717 200.315 318.734 214.378 312.848C228.441 306.962 245.506 304.019 251.51 304.793Z" fill="#F76251"/>
<path d="M198.261 277.687C199.367 279.546 200.631 281.249 202.053 282.798L202.843 283.728C203.633 284.502 204.581 285.277 205.529 285.896C219.592 277.067 237.921 274.589 244.083 274.124V273.969C214.536 270.252 202.527 253.988 202.527 253.833C198.735 257.241 196.365 261.888 195.575 266.999C195.259 270.097 195.733 273.195 197.313 275.828C197.471 276.293 197.945 276.912 198.261 277.687Z" fill="#BA2B1C"/>
<path d="M252.3 369.849C252.3 369.849 249.298 386.267 247.402 396.026C245.506 405.784 244.241 406.558 237.921 407.798C231.601 409.037 210.269 411.515 197.945 416.627C185.62 421.738 182.302 425.146 186.726 432.271C186.726 432.271 183.25 429.173 184.198 416.627C185.304 402.531 186.41 398.039 187.042 392.928C187.042 392.928 187.2 389.21 195.575 384.873C203.317 381.001 211.692 378.523 220.382 377.284C226.86 376.509 251.036 374.805 252.3 369.849Z" fill="#F76251"/>
<path d="M209.005 379.762C212.64 378.677 216.432 377.903 220.382 377.438C226.86 376.509 251.036 374.805 252.3 369.849C251.984 366.131 231.917 355.908 215.484 345.995C198.419 335.617 193.994 326.169 193.994 326.014C190.202 329.731 187.2 334.223 185.146 339.025C180.564 350.487 186.41 358.386 186.41 358.386C186.41 358.386 186.568 358.541 186.726 358.696C197.471 371.552 206.161 377.903 209.005 379.762Z" fill="#BA2B1C"/>
<path d="M222.436 440.79C216.906 440.48 211.376 440.79 206.003 442.029C202.211 442.803 202.211 443.733 200.315 448.534C198.419 453.336 193.204 469.6 193.204 469.6C191.624 475.796 192.888 476.26 192.888 476.26C191.308 472.233 199.841 472.388 206.951 472.233C214.062 472.078 219.276 471.614 227.018 471.149C234.761 470.684 235.077 466.657 237.605 457.983C239.817 450.238 242.345 440.635 242.977 438.157C241.397 442.339 229.231 441.254 222.436 440.79Z" fill="#F76251"/>
<path d="M243.135 436.298C243.135 436.143 243.135 435.988 243.135 435.988C243.135 435.833 243.135 435.678 243.135 435.678C242.977 435.369 242.819 434.904 242.661 434.749C241.397 432.58 237.605 429.637 230.021 424.991C219.75 418.64 210.111 413.064 210.111 413.064C206.003 413.993 201.895 415.232 198.103 416.781C185.778 421.893 182.46 425.3 186.884 432.426C189.886 435.988 201.737 443.423 202.527 443.888C203.475 442.803 204.739 442.184 206.003 442.184C211.376 441.1 216.906 440.635 222.436 440.945C229.389 441.254 241.397 442.494 242.977 438.312C243.135 437.537 243.293 436.917 243.135 436.298Z" fill="#BA2B1C"/>
<path d="M261.465 485.709C252.774 479.049 243.293 473.472 233.181 468.98C231.443 470.529 229.231 471.304 226.86 471.304C219.118 471.769 213.904 472.233 206.793 472.388C199.683 472.543 191.15 472.388 192.73 476.415C199.683 484.934 219.908 495.003 239.343 505.535C258.778 516.068 263.361 531.557 263.361 531.557C266.521 523.348 266.047 505.38 266.047 505.38C278.372 500.734 273.631 495.467 261.465 485.709Z" fill="#BA2B1C"/>
<path d="M273.315 498.875C273.473 501.353 271.261 503.522 266.047 505.535C266.047 505.535 266.521 523.348 263.361 531.712C274.737 505.535 273.315 498.875 273.315 498.875Z" fill="#F76251"/>
<path d="M194.785 182.117C188.464 179.484 165.237 168.022 158.442 136.579C153.702 114.429 155.124 100.179 160.022 86.0835C163.183 76.7898 167.923 67.6511 173.295 56.6537C185.62 31.2511 192.256 7.55239 191.94 -11.0348L167.291 -13.0485C167.291 -13.0485 163.815 18.24 156.704 33.5745C150.858 46.1209 134.425 76.3252 136.953 108.698C137.427 115.823 139.007 122.948 141.535 129.763C154.334 164.46 187.2 179.175 194.785 182.117Z" fill="#F76251"/>
<path d="M832.194 216.659L832.352 239.738C832.352 240.977 831.562 242.061 830.298 242.526C827.928 243.3 815.603 243.61 803.911 237.879C792.218 232.148 787.636 223.164 787.004 218.672C787.004 218.672 785.423 203.338 784.791 196.832C784.159 190.327 784.633 185.37 792.06 178.245C792.06 178.245 784.317 185.68 785.581 192.96C786.846 200.24 790.796 206.436 806.281 213.561C821.766 220.686 831.562 218.208 832.194 216.659Z" fill="#F5C940"/>
<path d="M789.058 263.437C786.056 256.931 785.739 249.496 788.426 242.836C790.006 238.963 792.218 235.556 794.904 232.303L795.22 231.993C797.906 234.317 800.908 236.33 804.069 237.879C807.861 239.738 811.811 240.977 815.761 241.752C804.069 244.849 794.43 252.749 789.058 263.437Z" fill="#DEA635"/>
<path d="M834.88 159.503V185.525C834.88 185.525 835.038 186.609 830.14 186.764C830.14 186.764 787.636 184.596 780.367 158.574C772.467 130.383 772.309 118.611 777.681 112.26C774.363 117.372 774.047 123.723 776.575 129.299C780.683 139.367 789.69 147.266 802.172 152.533C814.655 157.799 829.508 160.278 834.88 159.503Z" fill="#F5C940"/>
<path d="M787.952 183.357C788.9 181.808 790.006 180.259 791.27 178.865L792.06 178.09C792.85 177.471 793.64 176.851 794.43 176.232C806.755 183.976 822.872 186.145 828.244 186.609C802.173 190.017 791.744 204.267 791.744 204.267C788.426 201.169 786.214 197.142 785.582 192.805C785.266 190.172 785.74 187.384 787.004 185.06C787.32 184.596 787.636 184.131 787.952 183.357Z" fill="#DEA635"/>
<path d="M835.512 102.347C835.512 102.347 832.826 87.9422 831.246 79.4231C829.666 70.9039 828.402 70.1295 822.872 69.0452C817.341 67.961 798.538 65.7925 787.636 61.3005C776.733 56.8086 773.731 53.8657 777.681 47.515C777.681 47.515 774.521 50.3031 775.469 61.3005C776.417 73.692 777.365 77.5644 777.997 82.0563C777.997 82.0563 778.155 85.3091 785.582 89.1814C792.376 92.5891 799.802 94.7576 807.387 95.8418C813.233 96.4614 834.406 98.0103 835.512 102.347Z" fill="#F5C940"/>
<path d="M797.432 93.6732C800.75 94.6026 804.069 95.2222 807.387 95.6868C813.075 96.4613 834.248 98.0102 835.512 102.347C835.196 105.755 817.499 114.584 803.121 123.413C788.11 132.552 784.317 140.761 784.159 141.071C780.841 137.818 778.155 133.791 776.417 129.609C773.889 124.032 774.363 117.682 777.523 112.57L777.681 112.26C787.32 100.798 794.904 95.2222 797.432 93.6732Z" fill="#DEA635"/>
<path d="M809.125 39.9252C804.227 40.235 799.328 39.9252 794.588 38.841C791.27 38.0665 791.27 37.292 789.532 33.1099C787.794 28.9278 783.211 14.5227 783.211 14.5227C781.789 8.94651 783.053 8.63672 783.053 8.63672C781.631 12.1993 789.216 12.1993 795.536 12.1993C801.857 12.1993 806.439 12.664 813.233 13.1286C820.028 13.5933 820.344 17.001 822.556 24.7457C824.452 31.561 826.664 40.0801 827.296 42.0937C825.874 38.5312 815.287 39.6154 809.125 39.9252Z" fill="#F5C940"/>
<path d="M827.454 43.7975C827.454 43.9524 827.454 43.9524 827.454 44.1073C827.454 44.2622 827.454 44.2622 827.454 44.4171C827.296 44.7269 827.296 45.0367 826.98 45.3465C825.874 47.2052 822.556 49.8384 815.919 54.0205C806.913 59.7516 798.38 64.5533 798.38 64.5533C794.746 63.7788 791.112 62.6946 787.636 61.3005C776.733 56.8086 773.731 53.8656 777.681 47.515C780.367 44.4171 790.796 37.7567 791.428 37.4469C792.218 38.3763 793.324 38.8409 794.588 38.9958C799.328 39.9252 804.227 40.3899 809.125 40.0801C815.287 39.7703 825.874 38.8409 827.138 42.4035C827.454 42.7133 827.612 43.178 827.454 43.7975Z" fill="#DEA635"/>
<path d="M843.571 0.427234C835.986 6.31319 827.612 11.2698 818.763 15.1421C817.183 13.7481 815.287 13.1285 813.233 13.1285C806.439 12.6638 801.856 12.354 795.536 12.1991C789.216 12.0443 781.631 12.1991 783.053 8.6366C789.058 1.2017 806.913 -7.78213 823.978 -17.0757C841.043 -26.3694 845.151 -40 845.151 -40C847.995 -32.72 847.521 -17.0757 847.521 -17.0757C858.424 -12.8936 854.316 -8.24681 843.571 0.427234Z" fill="#DEA635"/>
<path d="M866.433 -15C882.076 4.5166 900.879 21.2451 922.21 34.566C938.169 44.3243 959.817 62.137 955.234 71.1209C950.652 80.1047 945.438 87.6945 942.435 89.7081C942.435 89.7081 945.122 86.7651 937.063 80.4145C929.005 74.0638 899.141 49.5906 882.708 31.9328C866.591 13.9651 850 -11.9021 850 -11.9021C855.372 -12.9864 860.903 -14.0706 866.433 -15Z" fill="#F76251"/>
<path d="M941.171 113.562C933.587 106.282 925.371 99.6213 916.68 93.4256C903.407 83.9771 891.557 77.4716 892.663 71.8954C889.818 79.9499 887.132 88.1592 884.604 96.2137C880.654 108.45 880.97 104.578 893.769 113.252C907.515 121.461 957.762 156.467 936.905 171.957C936.905 171.957 943.542 169.014 947.65 148.723C952.864 124.095 945.754 117.899 941.171 113.562Z" fill="#F76251"/>
<path d="M873.543 170.098C872.595 178.462 871.805 186.826 870.857 195.191C870.699 195.346 869.277 201.696 891.715 214.707C912.098 226.479 942.91 239.8 930.901 253.431C930.901 253.431 935.799 249.403 937.221 234.843C938.959 215.482 938.643 212.539 926.477 204.484C914.31 196.43 895.349 185.897 895.349 185.897C895.349 185.897 873.385 175.519 873.543 170.098Z" fill="#F76251"/>
<path d="M871.963 255.289C871.963 255.289 871.963 269.23 872.437 275.581C872.911 281.931 873.701 287.507 886.026 291.689C898.667 295.407 929.795 303.461 924.896 319.57C924.896 319.57 926.793 316.472 925.212 294.323C923.474 269.23 897.561 269.54 891.082 267.526C884.762 265.203 871.963 262.415 871.963 255.289Z" fill="#F76251"/>
<path d="M919.05 430.164C918.734 440.542 918.576 450.92 918.26 461.143C918.26 460.833 890.766 453.089 876.23 433.262C861.693 413.126 861.219 379.049 861.535 378.895C860.903 379.824 866.433 411.267 919.05 430.164Z" fill="#F76251"/>
<path d="M936.747 80.5694C943.383 85.6809 942.751 88.6239 942.435 89.5533C942.435 89.7081 942.277 89.7081 942.277 89.863C939.275 93.7354 918.102 92.0315 914.626 91.8767C902.301 83.3575 891.872 77.1618 892.82 71.8954C896.771 66.4741 920.946 67.2486 920.946 67.4035C927.899 73.4443 933.903 78.246 936.747 80.5694Z" fill="#BA2B1C"/>
<path d="M871.963 255.444C871.647 249.094 883.34 243.208 898.509 240.11C913.678 237.012 922.052 232.365 922.052 232.365C931.691 239.18 937.063 246.306 930.901 253.431C928.689 256.374 919.208 258.852 911.624 260.866C904.829 262.569 893.769 266.752 891.556 267.526L891.082 267.371C884.762 265.203 872.121 262.414 871.963 255.444Z" fill="#BA2B1C"/>
<path d="M873.543 170.098C874.175 165.296 878.126 162.818 897.719 157.861C918.418 152.75 935.325 147.484 935.325 147.484C942.119 156.467 944.648 165.141 938.011 171.182L937.063 171.957C919.998 182.335 895.349 186.052 895.349 186.207C895.349 186.362 873.385 175.519 873.543 170.098Z" fill="#BA2B1C"/>
<path d="M892.82 322.823C908.937 313.065 915.574 303.151 915.732 302.842C916.838 303.616 917.944 304.391 919.05 305.165L919.366 305.475L920.156 306.094L920.63 306.404L921.262 307.024L921.736 307.488C921.894 307.643 922.052 307.953 922.21 308.108L922.684 308.573C922.842 308.728 923 308.883 923.158 309.192C923.316 309.347 923.474 309.502 923.632 309.812C923.79 309.967 923.948 310.122 923.948 310.277C924.106 310.586 924.422 311.051 924.58 311.361L924.738 311.826C924.896 312.135 925.054 312.29 925.054 312.6L925.212 313.065C925.212 313.374 925.37 313.529 925.37 313.839C925.37 314.149 925.37 314.149 925.528 314.304C925.686 314.459 925.686 314.768 925.686 315.078V315.543C925.686 315.853 925.686 316.008 925.686 316.317C925.686 316.627 925.686 316.627 925.686 316.782C925.686 316.937 925.686 317.402 925.686 317.711C925.686 317.866 925.686 318.021 925.686 318.176C925.686 318.641 925.528 319.106 925.37 319.57C921.42 331.342 905.935 341.41 887.29 361.546C872.753 377.5 869.119 389.737 867.855 394.229C864.853 389.737 862.799 384.78 861.693 379.514C859.006 355.041 877.02 332.117 892.82 322.823Z" fill="#BA2B1C"/>
<path d="M674.747 469.797C674.747 469.797 706.823 507.746 703.821 533.613C700.819 559.481 690.864 565.212 690.864 565.212C690.864 565.212 703.979 546.625 681.067 517.505C658.156 488.385 641.881 472.121 644.883 466.545C647.885 460.968 657.998 458.025 657.998 458.025L674.747 469.797Z" fill="#6DB3A9"/>
<path d="M718.674 -8.82403C718.674 -8.82403 690.864 39.9675 670.797 82.2534C650.73 124.539 629.556 180.146 635.245 244.427C635.245 244.427 618.022 158.461 651.362 72.9598C684.702 -12.5415 704.137 -8.97892 704.137 -8.97892L718.674 -8.82403Z" fill="#92E2D8"/>
<path d="M721.518 444.085C721.518 444.085 713.617 457.251 711.879 460.194C710.141 463.137 707.139 470.572 697.027 470.727C686.914 470.881 680.278 471.036 669.059 468.713C657.84 466.39 646.464 463.447 645.199 466.544L656.418 445.634C656.418 445.634 657.998 441.607 666.215 443.465C674.115 445.324 682.016 446.563 690.074 447.338C700.345 448.267 715.83 451.675 721.518 444.085Z" fill="#92E2D8"/>
<path d="M706.981 448.577L707.139 448.887C711.721 448.887 715.829 448.422 718.99 446.408L719.148 446.253C719.464 446.098 719.622 445.789 719.938 445.634C722.308 443.62 723.572 440.677 723.73 437.579C724.362 418.682 679.961 346.967 656.892 299.104C631.927 247.525 635.403 201.212 635.403 201.212C625.764 242.878 656.102 351.304 675.379 390.182C693.708 427.666 706.033 447.028 706.981 448.577Z" fill="#6DB3A9"/>
<path d="M691.022 565.367C691.022 565.367 682.964 575.899 647.412 586.432C611.859 596.965 595.268 583.179 595.268 583.179L588 606.878C588 606.878 612.017 625.465 651.362 608.117C684.228 593.557 698.449 555.144 698.449 555.144C694.814 563.043 691.022 565.367 691.022 565.367Z" fill="#92E2D8"/>
<path d="M424.826 111.767L343.559 140.467C350.148 151.041 359.436 158.427 369.665 160.785C370.447 160.977 371.098 161.45 371.541 161.998C371.984 162.545 372.283 163.025 371.736 163.454C369.884 164.815 370.314 165.014 370.314 165.014C370.536 165.288 370.757 165.562 371.109 165.554C371.526 165.406 371.956 165.606 372.243 165.739C372.673 165.939 372.959 166.072 373.233 165.857C373.507 165.643 374.301 166.182 374.51 166.109C374.719 166.035 375.644 166.293 375.696 165.805C375.748 165.317 374.224 164.097 374.955 162.899C375.359 162.404 375.698 162.049 376.323 161.827C376.884 161.746 377.301 161.598 378.005 161.583L377.861 161.517C398.035 160.466 418.009 140.708 424.226 112.684C424.708 112.396 424.695 112.048 424.826 111.767Z" fill="#DEA635"/>
<path d="M347.717 218.563C347.77 218.075 350.617 205.564 359.678 197.305C365.062 192.461 365.338 188.491 365.717 185.422C365.718 183.544 366.358 181.792 367.362 180.379C370.478 177.044 371.235 174.663 370.064 171.558C368.775 169.081 369.441 166.146 371.774 164.497L373.115 166.486C372.907 166.56 371.264 167.846 372.358 170.745C374.297 175.573 371.962 179.1 369.25 181.939C368.585 182.997 368.142 184.328 368.193 185.718C367.892 188.993 367.499 193.592 361.501 199.005C352.988 206.836 350.271 219.066 350.271 219.066L347.717 218.563Z" fill="#D9D9D9"/>
<path d="M384.967 49.0307C356.103 45.5348 332.738 70.72 332.905 101.878C332.912 115.373 336.58 128.859 343.559 140.467L424.683 111.701C430.966 81.6584 413.544 52.3936 384.967 49.0307ZM391.727 54.7312C365.274 51.6714 342.851 69.9505 335.853 95.9039C338.251 69.3518 359.19 49.0172 384.444 52.0327C388.901 52.5649 393.383 53.7921 397.33 55.7957C395.623 55.3447 393.708 54.9677 391.727 54.7312Z" fill="#F5C940"/>
</svg>
