<svg width="1067" height="734" viewBox="0 0 1067 734" fill="none" xmlns="http://www.w3.org/2000/svg">
<path d="M279.152 485.938L279.31 485.629C279.31 485.629 279.31 485.783 279.152 485.938Z" fill="#BA2B1C"/>
<path d="M868.527 263.976C868.053 265.215 862.522 266.764 853.358 264.596C857.308 263.511 861.574 263.047 865.683 263.047C868.843 263.357 868.527 263.976 868.527 263.976Z" fill="#DEA635"/>
<path d="M863.47 89.1013L863.628 89.566L863.47 89.1013Z" fill="#DEA635"/>
<path d="M381.068 95.7617C381.068 97.4655 379.646 98.8596 377.908 98.8596C376.17 98.8596 374.748 97.4655 374.748 95.7617C374.748 94.0579 376.17 92.6638 377.908 92.6638C379.646 92.6638 381.068 94.0579 381.068 95.7617Z" fill="white"/>
<path d="M402.241 84.4545C402.241 86.3132 400.661 87.8621 398.765 87.8621C396.869 87.8621 395.289 86.3132 395.289 84.4545C395.289 82.5958 396.869 81.0468 398.765 81.0468C400.661 80.8919 402.241 82.4409 402.241 84.4545Z" fill="#4FB8A4"/>
<path d="M463.707 94.9872C463.707 97.7753 461.337 100.099 458.492 100.099C455.648 100.099 453.278 97.7753 453.278 94.9872C453.278 92.1991 455.648 89.8757 458.492 89.8757C461.337 89.8757 463.707 92.0442 463.707 94.9872C463.707 94.8323 463.707 94.8323 463.707 94.9872Z" fill="#ED6D5F"/>
<path d="M290.845 136.344C290.845 138.357 289.265 139.906 287.21 139.906C285.156 139.906 283.576 138.357 283.576 136.344C283.576 134.33 285.156 132.781 287.21 132.781C289.265 132.781 290.845 134.33 290.845 136.344Z" fill="white"/>
<path d="M549.664 128.135C552.456 128.135 554.72 125.915 554.72 123.178C554.72 120.44 552.456 118.221 549.664 118.221C546.871 118.221 544.607 120.44 544.607 123.178C544.607 125.915 546.871 128.135 549.664 128.135Z" fill="#F5C940"/>
<path d="M637.517 113.884C637.517 116.363 635.463 118.376 632.935 118.376C630.407 118.376 628.353 116.363 628.353 113.884C628.353 111.406 630.407 109.392 632.935 109.392C635.463 109.392 637.517 111.406 637.517 113.884Z" fill="#ED6D5F"/>
<path d="M432.263 51.3073C432.263 54.0954 429.893 56.4188 427.049 56.4188C424.204 56.4188 421.834 54.0954 421.834 51.3073C421.834 48.5192 424.204 46.1958 427.049 46.1958C429.893 46.3507 432.263 48.5192 432.263 51.3073Z" fill="#ED6D5F"/>
<path d="M451.066 34.8885C451.066 38.1413 448.38 40.6196 445.22 40.6196C441.901 40.6196 439.373 37.9864 439.373 34.8885C439.373 31.7907 442.059 29.1575 445.22 29.1575C448.538 29.1575 451.066 31.7907 451.066 34.8885Z" fill="white"/>
<path d="M752.864 45.1115C752.864 46.3506 751.758 47.4349 750.494 47.4349C749.23 47.4349 748.124 46.3506 748.124 45.1115C748.124 43.8723 749.23 42.7881 750.494 42.7881C751.758 42.7881 752.864 43.7174 752.864 45.1115Z" fill="white"/>
<path d="M716.048 50.5328C716.048 51.7719 715.1 52.7013 713.836 52.7013C712.572 52.7013 711.624 51.7719 711.624 50.5328C711.624 49.2936 712.572 48.3643 713.836 48.3643C715.1 48.3643 716.048 49.2936 716.048 50.5328Z" fill="#4FB8A4"/>
<path d="M366.531 64.783C366.531 66.6417 364.951 68.1907 363.055 68.1907C361.159 68.1907 359.579 66.6417 359.579 64.783C359.579 62.9243 361.159 61.3754 363.055 61.3754C364.951 61.3754 366.531 62.9243 366.531 64.783Z" fill="white"/>
<path d="M522.802 93.9029C522.802 96.3812 520.748 98.3948 518.22 98.3948C515.692 98.3948 513.638 96.3812 513.638 93.9029C513.638 91.4246 515.692 89.411 518.22 89.411C520.748 89.411 522.802 91.4246 522.802 93.9029Z" fill="#8AA5BC"/>
<path d="M658.216 107.689C658.216 109.857 656.478 111.561 654.266 111.561C652.054 111.561 650.316 109.857 650.316 107.689C650.316 105.52 652.054 103.816 654.266 103.816C656.478 103.816 658.216 105.52 658.216 107.689Z" fill="#F5C940"/>
<path d="M287.368 112.8C287.368 114.814 285.63 116.363 283.576 116.363C281.522 116.363 279.942 114.659 279.942 112.645C279.942 110.631 281.68 109.083 283.576 109.083C285.788 109.083 287.368 110.786 287.368 112.8Z" fill="#4FB8A4"/>
<path d="M371.903 142.694C371.903 144.553 370.323 146.102 368.427 146.102C366.531 146.102 365.109 144.553 365.109 142.694C365.109 140.836 366.689 139.287 368.585 139.287C370.323 139.287 371.903 140.836 371.903 142.694Z" fill="#ED6D5F"/>
<path d="M555.668 169.956C555.668 172.589 553.614 174.603 550.928 174.603C548.242 174.603 546.188 172.589 546.188 169.956C546.188 167.323 548.242 165.309 550.928 165.309C553.614 165.309 555.668 167.323 555.668 169.956Z" fill="white"/>
<path d="M308.226 187.459C308.226 190.092 306.013 192.26 303.327 192.26C300.641 192.26 298.429 190.092 298.429 187.459C298.429 184.825 300.641 182.657 303.327 182.657C306.013 182.657 308.226 184.825 308.226 187.459Z" fill="white"/>
<path d="M343.778 207.44C343.778 210.228 341.566 212.397 338.721 212.397C335.877 212.397 333.665 210.228 333.665 207.44C333.665 204.652 335.877 202.483 338.721 202.483C341.566 202.483 343.778 204.652 343.778 207.44Z" fill="white"/>
<path d="M460.863 225.253C460.863 228.196 458.493 230.674 455.332 230.674C452.33 230.674 449.802 228.351 449.802 225.253C449.802 222.155 452.172 219.832 455.332 219.832C458.335 219.986 460.863 222.31 460.863 225.253Z" fill="#ED6D5F"/>
<path d="M210.892 237.489C210.892 241.362 207.732 244.46 203.781 244.46C199.831 244.46 196.671 241.362 196.671 237.489C196.671 233.617 199.831 230.519 203.781 230.519C207.732 230.519 210.892 233.772 210.892 237.489Z" fill="#4FB8A4"/>
<path d="M264.141 250.036C264.141 253.753 261.139 256.696 257.346 256.696C253.554 256.696 250.552 253.753 250.552 250.036C250.552 246.318 253.554 243.375 257.346 243.375C261.139 243.375 264.141 246.318 264.141 250.036Z" fill="#8AA5BC"/>
<path d="M432.421 233.772C432.421 236.56 430.209 238.729 427.365 238.729C424.52 238.729 422.308 236.56 422.308 233.772C422.308 230.984 424.52 228.815 427.365 228.815C430.209 228.815 432.421 230.984 432.421 233.772Z" fill="#F5C940"/>
<path d="M391.339 219.057C391.339 221.535 389.284 223.394 386.914 223.394C384.386 223.394 382.49 221.38 382.49 219.057C382.49 216.579 384.544 214.72 386.914 214.72C389.442 214.72 391.339 216.734 391.339 219.057Z" fill="white"/>
<path d="M329.241 133.711C331.161 133.711 332.717 132.185 332.717 130.303C332.717 128.421 331.161 126.895 329.241 126.895C327.321 126.895 325.765 128.421 325.765 130.303C325.765 132.185 327.321 133.711 329.241 133.711Z" fill="#ED6D5F"/>
<path d="M314.072 59.9813C314.072 62.3047 312.176 64.0086 309.964 64.0086C307.752 64.0086 305.855 62.1498 305.855 59.9813C305.855 57.8128 307.752 55.9541 309.964 55.9541C312.176 55.7992 314.072 57.6579 314.072 59.9813Z" fill="#F5C940"/>
<path d="M356.892 83.68C356.892 85.5387 355.47 86.9328 353.574 86.9328C351.678 86.9328 350.256 85.5387 350.256 83.68C350.256 81.8213 351.678 80.4272 353.574 80.4272C355.312 80.4272 356.892 81.8213 356.892 83.68Z" fill="#ED6D5F"/>
<path d="M433.211 119.151C433.211 121.319 431.473 123.023 429.261 123.023C427.049 123.023 425.311 121.319 425.311 119.151C425.311 116.982 427.049 115.278 429.261 115.278C431.473 115.278 433.211 116.982 433.211 119.151Z" fill="white"/>
<path d="M298.745 154.776C298.745 156.945 297.007 158.648 294.795 158.648C292.583 158.648 290.844 156.945 290.844 154.776C290.844 152.608 292.583 150.904 294.795 150.904C297.007 150.904 298.745 152.608 298.745 154.776Z" fill="#ED6D5F"/>
<path d="M345.358 193.19C345.358 195.668 343.304 197.682 340.775 197.682C338.247 197.682 336.193 195.668 336.193 193.19C336.193 190.711 338.247 188.698 340.775 188.698C343.304 188.543 345.358 190.557 345.358 193.19C345.358 193.19 345.358 193.035 345.358 193.19Z" fill="#F5C940"/>
<path d="M411.564 218.283C411.564 220.761 409.51 222.774 406.981 222.774C404.453 222.774 402.399 220.761 402.399 218.283C402.399 215.804 404.453 213.791 406.981 213.791C409.51 213.636 411.564 215.804 411.564 218.283Z" fill="white"/>
<path d="M318.812 240.587C318.812 243.995 315.968 246.783 312.492 246.783C309.016 246.783 306.171 243.995 306.171 240.587C306.171 237.18 309.016 234.391 312.492 234.391C315.968 234.391 318.812 237.18 318.812 240.587Z" fill="#8AA5BC"/>
<path d="M305.223 231.139C305.223 234.546 302.537 237.18 299.061 237.18C295.585 237.18 292.899 234.546 292.899 231.139C292.899 227.731 295.585 225.098 299.061 225.098C302.537 225.098 305.223 227.886 305.223 231.139Z" fill="#4FB8A4"/>
<path d="M314.388 151.214C316.482 151.214 318.18 149.549 318.18 147.496C318.18 145.443 316.482 143.779 314.388 143.779C312.294 143.779 310.596 145.443 310.596 147.496C310.596 149.549 312.294 151.214 314.388 151.214Z" fill="#8AA5BC"/>
<path d="M320.866 70.0494C320.866 72.2179 319.128 73.9217 317.074 73.9217C314.862 73.9217 313.124 72.2179 313.124 70.2042C313.124 68.1906 314.862 66.3319 316.916 66.3319C318.97 66.3319 320.708 68.0357 320.866 70.0494Z" fill="#8AA5BC"/>
<path d="M326.238 46.8153C326.238 49.1387 324.342 50.8425 322.13 50.8425C319.76 50.8425 318.022 48.9838 318.022 46.8153C318.022 44.4919 319.918 42.7881 322.13 42.7881C324.342 42.6332 326.238 44.4919 326.238 46.8153Z" fill="white"/>
<path d="M340.933 53.4758C343.115 53.4758 344.884 51.7421 344.884 49.6034C344.884 47.4648 343.115 45.7311 340.933 45.7311C338.752 45.7311 336.983 47.4648 336.983 49.6034C336.983 51.7421 338.752 53.4758 340.933 53.4758Z" fill="#ED6D5F"/>
<path d="M353.1 116.672C354.933 116.672 356.418 115.216 356.418 113.42C356.418 111.623 354.933 110.167 353.1 110.167C351.268 110.167 349.782 111.623 349.782 113.42C349.782 115.216 351.268 116.672 353.1 116.672Z" fill="#F5C940"/>
<path d="M353.732 150.439C353.732 152.453 352.152 154.002 350.098 154.002C348.044 154.002 346.464 152.453 346.464 150.439C346.464 148.426 348.044 146.877 350.098 146.877C352.152 146.877 353.732 148.426 353.732 150.439Z" fill="white"/>
<path d="M357.524 171.195C357.524 173.363 355.786 175.067 353.574 175.067C351.362 175.067 349.624 173.363 349.624 171.195C349.624 169.026 351.362 167.323 353.574 167.323C355.786 167.323 357.524 169.026 357.524 171.195Z" fill="#4FB8A4"/>
<path d="M355.47 215.959C355.47 218.592 353.258 220.761 350.572 220.761C347.886 220.761 345.674 218.592 345.674 215.959C345.674 213.326 347.886 211.157 350.572 211.157C353.258 211.157 355.47 213.326 355.47 215.959Z" fill="#ED6D5F"/>
<path d="M357.84 271.101C357.84 274.044 355.47 276.523 352.31 276.523C349.15 276.523 346.78 274.199 346.78 271.101C346.78 268.003 349.15 265.68 352.31 265.68C355.47 265.68 357.84 268.003 357.84 271.101Z" fill="#ED6D5F"/>
<path d="M368.743 332.749C371.536 332.749 373.799 330.53 373.799 327.792C373.799 325.055 371.536 322.836 368.743 322.836C365.951 322.836 363.687 325.055 363.687 327.792C363.687 330.53 365.951 332.749 368.743 332.749Z" fill="#4FB8A4"/>
<path d="M373.325 355.054C373.325 357.687 371.113 360.01 368.269 360.01C365.583 360.01 363.213 357.842 363.213 355.054C363.213 352.42 365.425 350.097 368.269 350.097C371.113 350.252 373.325 352.42 373.325 355.054Z" fill="#F5C940"/>
<path d="M370.639 384.328C370.639 386.807 368.585 388.82 366.057 388.82C363.529 388.82 361.475 386.807 361.475 384.328C361.475 381.85 363.529 379.837 366.057 379.837C368.585 379.837 370.639 381.85 370.639 384.328Z" fill="#ED6D5F"/>
<path d="M374.431 432.5C374.431 434.669 372.693 436.373 370.481 436.373C368.269 436.373 366.531 434.669 366.531 432.5C366.531 430.332 368.269 428.628 370.481 428.628C372.693 428.473 374.431 430.332 374.431 432.5Z" fill="#ED6D5F"/>
<path d="M347.254 474.012C349.523 474.012 351.362 472.209 351.362 469.985C351.362 467.761 349.523 465.958 347.254 465.958C344.985 465.958 343.146 467.761 343.146 469.985C343.146 472.209 344.985 474.012 347.254 474.012Z" fill="#4FB8A4"/>
<path d="M359.895 502.358C359.895 504.216 358.314 505.765 356.418 505.765C354.522 505.765 352.942 504.216 352.942 502.358C352.942 500.499 354.522 498.95 356.418 498.95C358.314 498.95 359.895 500.499 359.895 502.358Z" fill="#F5C940"/>
<path d="M385.334 529.928C385.334 531.477 384.07 532.871 382.49 532.871C380.91 532.871 379.488 531.632 379.488 530.083C379.488 528.534 380.752 527.14 382.332 527.14C383.912 527.14 385.334 528.38 385.334 529.928Z" fill="#8AA5BC"/>
<path d="M375.853 571.44C375.853 572.989 374.589 574.383 372.851 574.383C371.113 574.383 369.849 573.144 369.849 571.44C369.849 569.891 371.113 568.497 372.851 568.497C374.589 568.497 375.853 569.891 375.853 571.44Z" fill="#4FB8A4"/>
<path d="M365.741 631.694C365.741 633.243 364.477 634.482 362.739 634.482C361.159 634.482 359.895 633.243 359.895 631.539C359.895 629.835 361.159 628.751 362.897 628.751C364.319 628.751 365.741 630.145 365.741 631.694Z" fill="#F5C940"/>
<path d="M370.797 654.308C370.797 655.857 369.533 657.096 367.953 657.096C366.373 657.096 365.109 655.857 365.109 654.308C365.109 652.759 366.373 651.52 367.953 651.52C369.533 651.52 370.797 652.759 370.797 654.308Z" fill="#4FB8A4"/>
<path d="M374.431 673.67C376.002 673.67 377.275 672.421 377.275 670.882C377.275 669.342 376.002 668.094 374.431 668.094C372.861 668.094 371.587 669.342 371.587 670.882C371.587 672.421 372.861 673.67 374.431 673.67Z" fill="white"/>
<path d="M479.982 625.963C479.982 629.525 476.98 632.468 473.345 632.468C469.711 632.468 466.709 629.525 466.709 625.963C466.709 622.4 469.711 619.457 473.345 619.457C476.98 619.457 479.982 622.4 479.982 625.963Z" fill="#4FB8A4"/>
<path d="M698.667 484.235C698.667 488.262 695.348 491.515 691.24 491.515C687.132 491.515 683.814 488.262 683.814 484.235C683.814 480.208 687.132 476.955 691.24 476.955C695.506 476.955 698.667 480.208 698.667 484.235Z" fill="#ED6D5F"/>
<path d="M778.619 352.266C778.619 354.899 776.565 356.912 773.879 356.912C771.193 356.912 769.139 354.899 769.139 352.266C769.139 349.632 771.193 347.619 773.879 347.619C776.565 347.619 778.619 349.787 778.619 352.266Z" fill="#4FB8A4"/>
<path d="M784.94 195.513C784.94 198.921 782.096 201.709 778.619 201.709C775.143 201.709 772.299 198.921 772.299 195.513C772.299 192.105 775.143 189.317 778.619 189.317C782.096 189.317 784.94 192.105 784.94 195.513Z" fill="#F5C940"/>
<path d="M856.834 37.9863C856.834 41.0842 854.306 43.5625 851.146 43.5625C847.986 43.5625 845.458 41.0842 845.458 37.9863C845.458 34.8885 847.986 32.4102 850.988 32.4102C854.306 32.4102 856.834 34.8885 856.834 37.9863Z" fill="white"/>
<path d="M820.492 38.606C820.492 40.9294 818.596 42.7881 816.226 42.7881C813.856 42.7881 811.959 40.9294 811.959 38.606C811.959 36.2826 813.856 34.4238 816.226 34.4238C818.596 34.4238 820.492 36.2826 820.492 38.606Z" fill="white"/>
<path d="M835.977 37.3668C835.977 40 833.765 42.1685 831.078 42.1685C828.392 42.1685 826.18 40 826.18 37.3668C826.18 34.7336 828.392 32.5651 831.078 32.5651C833.765 32.5651 835.977 34.5787 835.977 37.3668Z" fill="#ED6D5F"/>
<path d="M820.347 56.9706C820.357 55.0031 818.738 53.3999 816.731 53.39C814.724 53.38 813.089 54.967 813.079 56.9345C813.069 58.9021 814.687 60.5051 816.695 60.5151C818.702 60.5251 820.337 58.9381 820.347 56.9706Z" fill="white"/>
<path d="M873.741 73.4571C873.741 76.4 871.371 78.7234 868.369 78.7234C865.367 78.7234 862.997 76.4 862.997 73.4571C862.997 70.5141 865.367 68.1907 868.369 68.1907C871.371 68.1907 873.741 70.5141 873.741 73.4571Z" fill="#ED6D5F"/>
<path d="M829.656 115.588C831.751 115.588 833.449 113.924 833.449 111.871C833.449 109.818 831.751 108.153 829.656 108.153C827.562 108.153 825.864 109.818 825.864 111.871C825.864 113.924 827.562 115.588 829.656 115.588Z" fill="#8AA5BC"/>
<path d="M796.317 139.906C796.317 142.54 794.104 144.708 791.418 144.708C788.732 144.708 786.52 142.54 786.52 139.906C786.52 137.273 788.732 135.105 791.418 135.105C794.104 135.105 796.317 137.273 796.317 139.906Z" fill="#4FB8A4"/>
<path d="M861.1 151.988C861.1 154.621 858.888 156.79 856.202 156.79C853.516 156.79 851.304 154.621 851.304 151.988C851.304 149.355 853.516 147.186 856.202 147.186C858.888 147.186 861.1 149.355 861.1 151.988Z" fill="white"/>
<path d="M883.854 151.059C883.854 153.847 881.641 156.015 878.797 156.015C875.953 156.015 873.741 153.847 873.741 151.059C873.741 148.271 875.953 146.102 878.797 146.102C881.641 145.947 883.854 148.271 883.854 151.059Z" fill="#4FB8A4"/>
<path d="M859.678 191.641C859.678 194.894 856.992 197.527 853.674 197.527C850.356 197.527 847.669 194.894 847.669 191.641C847.669 188.388 850.356 185.755 853.674 185.755C856.992 185.755 859.678 188.388 859.678 191.641Z" fill="#ED6D5F"/>
<path d="M893.334 208.214C893.334 211.467 890.648 214.1 887.33 214.1C884.012 214.1 881.325 211.467 881.325 208.214C881.325 204.962 884.012 202.328 887.33 202.328C890.648 202.328 893.334 204.962 893.334 208.214Z" fill="#F5C940"/>
<path d="M906.765 251.585C909.558 251.585 911.821 249.366 911.821 246.628C911.821 243.891 909.558 241.672 906.765 241.672C903.973 241.672 901.709 243.891 901.709 246.628C901.709 249.366 903.973 251.585 906.765 251.585Z" fill="#4FB8A4"/>
<path d="M927.622 281.634C927.622 284.267 925.41 286.436 922.724 286.436C920.038 286.436 917.826 284.267 917.826 281.634C917.826 279.001 920.038 276.832 922.724 276.832C925.41 276.832 927.622 279.001 927.622 281.634Z" fill="#ED6D5F"/>
<path d="M896.81 288.449C896.81 290.618 895.072 292.322 892.86 292.322C890.648 292.322 888.91 290.618 888.91 288.449C888.91 286.281 890.648 284.577 892.86 284.577C895.072 284.577 896.81 286.281 896.81 288.449Z" fill="white"/>
<path d="M813.065 308.895C813.065 310.909 811.327 312.613 809.273 312.613C807.219 312.613 805.481 310.909 805.481 308.895C805.481 306.882 807.219 305.178 809.273 305.178C811.327 305.178 813.065 306.882 813.065 308.895Z" fill="#8AA5BC"/>
<path d="M873.741 335.382C873.741 337.705 871.845 339.564 869.475 339.564C867.105 339.564 865.208 337.705 865.208 335.382C865.208 333.059 867.105 331.2 869.475 331.2C871.845 331.2 873.741 333.059 873.741 335.382Z" fill="#ED6D5F"/>
<path d="M907.239 357.532C907.239 360.785 904.553 363.418 901.235 363.418C897.916 363.418 895.23 360.785 895.23 357.532C895.23 354.279 897.916 351.646 901.235 351.646C904.711 351.801 907.239 354.279 907.239 357.532Z" fill="#F5C940"/>
<path d="M823.81 417.476C823.81 420.109 821.756 422.123 819.07 422.123C816.384 422.123 814.33 420.109 814.33 417.476C814.33 414.843 816.384 412.829 819.07 412.829C821.756 412.829 823.81 414.843 823.81 417.476Z" fill="#F5C940"/>
<path d="M874.057 466.112C874.057 467.661 872.793 468.9 871.213 468.9C869.633 468.9 868.369 467.661 868.369 466.112C868.369 464.563 869.633 463.324 871.213 463.324C872.793 463.324 874.057 464.563 874.057 466.112Z" fill="#4FB8A4"/>
<path d="M925.094 566.019C925.094 567.877 923.672 569.271 921.776 569.271C919.88 569.271 918.458 567.877 918.458 566.019C918.458 564.16 919.88 562.766 921.776 562.766C923.672 562.766 925.094 564.16 925.094 566.019Z" fill="#F5C940"/>
<path d="M943.897 625.188C943.897 626.737 942.633 628.131 940.895 628.131C939.157 628.131 937.893 626.892 937.893 625.188C937.893 623.484 939.157 622.245 940.895 622.245C942.475 622.245 943.897 623.484 943.897 625.188Z" fill="#4FB8A4"/>
<path d="M942.001 635.101C942.001 636.96 940.421 638.354 938.683 638.354C936.787 638.354 935.365 636.805 935.365 635.101C935.365 633.243 936.945 631.848 938.683 631.848C940.421 631.848 942.001 633.243 942.001 635.101Z" fill="white"/>
<path d="M187.268 436.18C205.597 445.474 224.716 448.417 241.465 443.46C242.729 443.151 243.993 443.306 245.257 443.615C246.363 444.08 247.153 444.7 246.837 445.474C245.257 449.192 246.205 448.882 246.205 448.882C246.679 449.192 247.469 449.192 247.943 448.882C248.417 448.417 249.207 448.107 249.839 448.107C250.629 447.952 251.103 447.952 251.419 447.488C251.735 447.023 253.315 447.178 253.632 446.868C253.948 446.558 255.528 446.094 255.212 445.474C254.896 444.855 251.577 444.235 251.577 441.757C251.577 440.672 252.051 439.743 252.683 438.814C253.315 438.194 254.106 437.575 254.896 437.265L254.58 437.42C280.967 420.846 294.082 381.658 285.865 339.527L187.268 436.18Z" fill="#6DB3A9"/>
<path d="M278.439 560.095C278.281 559.476 273.383 544.916 273.699 531.44C273.857 522.301 273.699 521.992 269.591 515.021C267.852 512.078 265.482 507.896 262.006 501.391C253.632 485.127 255.37 478.931 257.266 471.806C258.056 469.173 258.53 466.385 258.846 463.597C259.636 455.542 252.842 452.135 248.733 450.121C246.521 449.037 245.099 448.262 245.415 446.868C245.573 446.558 245.731 446.094 245.889 445.784L245.257 445.319L245.731 443.925L245.099 442.841C246.837 441.912 248.891 441.137 250.787 440.518C251.261 440.518 251.736 440.672 252.052 441.137C252.368 441.602 252.368 442.066 252.052 442.531C252.052 442.686 251.894 442.686 251.894 442.841H252.052L263.27 439.898L253 444.855C252.21 445.164 251.261 445.474 250.471 445.629C249.523 445.939 248.575 446.403 247.785 447.023C248.259 447.333 249.049 447.643 249.681 447.952C253.948 450.121 262.006 454.148 261.216 463.752C260.9 466.695 260.268 469.638 259.478 472.426C257.582 479.396 256.16 484.817 264.06 500.306C267.378 506.812 269.749 510.839 271.487 513.782C275.753 520.907 276.069 521.837 275.911 531.44C275.595 544.606 280.493 559.166 280.493 559.321L278.439 560.095Z" fill="#231F20"/>
<path d="M282.389 325.277C280.335 318.461 277.649 311.956 274.173 305.76C253 266.882 209.073 246.591 169.255 263.319C123.274 282.526 109.685 339.837 136.547 386.305C149.503 408.764 167.516 425.803 186.636 435.716L187.426 436.026L286.024 339.217C285.075 334.57 283.811 329.923 282.389 325.277ZM140.655 374.068C122.168 334.57 134.967 288.877 173.205 272.923C177.787 271.064 182.369 269.67 187.268 268.741C149.029 288.102 132.122 331.163 140.655 374.068Z" fill="#92E2D8"/>
<path d="M366.159 377.51C375.924 386.249 387.229 391.254 398.383 391.052C399.214 391.076 399.968 391.383 400.696 391.784C401.301 392.252 401.686 392.762 401.363 393.181C399.771 395.178 400.407 395.149 400.407 395.149C400.648 395.417 401.136 395.55 401.48 395.441C401.849 395.238 402.388 395.182 402.778 395.288C403.291 395.327 403.583 395.406 403.855 395.177C404.127 394.947 405.076 395.307 405.322 395.171C405.569 395.036 406.62 395.019 406.528 394.588C406.436 394.158 404.492 393.223 404.903 391.715C405.083 391.055 405.53 390.569 406.074 390.109C406.566 389.838 407.156 389.594 407.695 389.538L407.474 389.579C426.501 383.926 441.091 362.275 443.012 335.247L366.159 377.51Z" fill="#527FA7"/>
<path d="M401.189 469.063C401.198 468.657 400.717 458.932 403.157 450.716C404.779 445.136 404.737 444.921 403.457 439.979C402.914 437.891 402.203 434.942 401.221 430.387C398.955 419.052 401.025 415.533 403.345 411.47C404.255 409.983 405.004 408.35 405.658 406.691C407.474 401.878 404 398.686 401.891 396.784C400.756 395.76 400.039 395.055 400.46 394.251C400.606 394.086 400.778 393.827 400.924 393.663L400.625 393.275L401.14 392.497L400.945 391.729C402.135 391.441 403.487 391.299 404.719 391.226C405.001 391.303 405.258 391.475 405.368 391.812C405.479 392.148 405.401 392.433 405.135 392.667C405.109 392.762 405.015 392.736 404.989 392.831L405.083 392.857L412.253 392.871L405.311 394.246C404.789 394.308 404.173 394.344 403.677 394.311C403.061 394.347 402.419 394.478 401.845 394.73C402.075 394.997 402.494 395.315 402.818 395.608C404.995 397.63 409.118 401.407 407.043 407.17C406.363 408.924 405.494 410.627 404.558 412.209C402.264 416.177 400.512 419.272 402.625 430.055C403.512 434.584 404.25 437.439 404.792 439.526C406.141 444.589 406.173 445.21 404.474 451.075C402.085 459.1 402.567 468.826 402.541 468.921L401.189 469.063Z" fill="#231F20"/>
<path d="M443.043 325.347C442.924 320.817 442.365 316.372 441.271 311.985C434.794 284.563 411.252 264.758 384.032 268.38C352.618 272.494 334.691 305.429 343.386 338.464C347.572 354.426 355.767 367.903 365.832 377.188L366.265 377.51L442.938 334.518C443.134 331.505 443.137 328.439 443.043 325.347ZM347.954 331.634C343.228 304.28 358.726 278.349 384.847 274.939C387.968 274.563 391.012 274.473 394.172 274.72C367.48 280.224 349.903 303.851 347.954 331.634Z" fill="#79A3C7"/>
<path d="M610.532 444.856L608.636 443.462C608.636 443.307 615.747 433.394 616.537 413.103C617.169 397.149 623.963 388.63 628.545 383.054C629.809 381.66 630.916 380.111 631.864 378.562C632.812 376.703 633.918 375.154 635.34 373.45C639.764 367.564 645.294 360.284 640.238 353.314C637.394 349.442 636.288 345.724 636.92 342.627C637.394 340.458 638.658 338.599 640.554 337.36L641.818 339.374L641.186 338.444L641.818 339.374C640.554 340.303 639.606 341.697 639.29 343.246C638.816 345.724 639.764 348.822 642.292 352.075C648.455 360.439 641.66 369.113 637.394 374.999C636.13 376.393 635.182 377.942 634.234 379.646C633.286 381.505 632.022 383.054 630.6 384.603C626.175 389.869 619.697 398.079 619.065 413.258C618.117 434.324 610.848 444.392 610.532 444.856Z" fill="black"/>
<path d="M632.812 326.982C635.498 329.151 638.342 331.01 641.502 332.559C642.45 333.023 643.082 333.798 643.556 334.727C643.872 335.502 644.03 336.276 643.398 336.586C640.396 337.825 641.028 338.135 641.028 338.135C641.028 338.135 641.186 339.064 641.976 339.064C642.608 339.064 643.082 339.219 643.556 339.684C644.03 339.993 644.346 340.303 644.82 340.148C645.295 339.993 646.085 340.923 646.401 340.923C646.717 340.923 647.981 341.542 648.139 341.078C648.297 340.613 646.717 338.29 648.139 336.896C648.771 336.276 649.561 335.966 650.351 335.811C651.141 335.811 651.773 335.811 652.563 335.966L652.405 335.811C679.741 340.923 713.239 321.251 731.41 286.09C741.996 265.799 743.26 243.34 736.308 224.907L632.812 326.982Z" fill="#DEA635"/>
<path d="M701.072 189.747C663.781 175.961 623.647 201.673 613.06 243.03C604.054 277.726 613.218 311.028 632.97 327.137L736.624 225.527C730.619 208.953 717.663 195.787 701.072 189.747ZM618.591 256.815C617.011 263.011 615.905 269.362 615.115 275.713C614.325 265.025 615.273 254.492 617.959 244.114C625.859 213.445 651.615 192.07 679.266 191.915C650.983 199.505 626.965 223.978 618.591 256.815Z" fill="#F5C940"/>
<path d="M664.57 292.893L565.972 389.547C582.879 400.544 601.208 405.036 617.799 401.474C619.063 401.319 620.169 401.474 621.275 401.938C622.224 402.403 623.014 403.023 622.54 403.797C620.801 407.05 621.749 406.895 621.749 406.895C622.223 407.205 622.856 407.36 623.33 407.05C623.804 406.74 624.436 406.43 625.226 406.43C625.858 406.43 626.49 406.43 626.806 405.966C627.122 405.501 628.544 405.811 628.86 405.501C629.176 405.191 630.756 405.036 630.44 404.417C630.124 403.797 627.122 402.868 627.28 400.699C627.438 399.77 627.912 398.84 628.544 398.066C629.176 397.446 629.966 396.982 630.756 396.672L630.44 396.827C659.04 381.802 674.841 339.516 664.886 294.442C664.886 293.977 664.728 293.358 664.57 292.893Z" fill="#BA2B1C"/>
<path d="M625.226 500.296C625.068 499.521 620.801 479.54 628.228 461.727C632.81 450.73 630.598 444.689 629.018 439.887C628.07 436.944 627.122 434.621 628.07 431.833C630.124 425.792 630.44 420.835 625.7 416.498C620.959 412.161 622.224 407.824 623.33 405.966L625.384 407.205C625.226 407.36 623.172 410.922 627.28 414.795C633.126 420.371 632.02 426.876 630.282 432.452C629.65 434.466 630.282 436.48 631.23 439.113C632.968 444.069 635.338 450.73 630.44 462.502C623.33 479.695 627.596 499.521 627.596 499.831L625.226 500.296Z" fill="#231F20"/>
<path d="M564.076 228.458C519.676 243.018 502.611 295.372 524.1 340.6C534.212 361.976 549.223 378.859 565.814 389.547L664.412 292.893C653.193 245.031 608.003 214.052 564.076 228.458ZM577.981 232.33C537.215 245.651 517.147 287.472 524.574 330.068C510.195 289.64 526.786 245.96 565.656 233.259C572.451 230.936 579.719 229.852 586.988 230.006C583.985 230.471 580.983 231.246 577.981 232.33Z" fill="#F76251"/>
<path d="M853.435 733.731C853.435 733.576 851.065 712.666 855.015 695.163C857.859 683.236 857.543 682.461 854.225 672.548C852.803 668.211 850.749 662.17 848.063 652.722C841.584 629.488 845.377 621.898 849.801 613.069C851.539 609.661 853.119 606.254 854.225 602.691C857.385 592.158 849.327 585.653 844.429 581.935C841.9 579.922 840.32 578.837 841.11 577.289C841.426 576.669 841.9 576.204 842.374 575.895C842.216 575.895 842.216 575.74 842.058 575.585L841.584 574.965L842.058 574.346C842.216 574.191 842.216 574.036 842.532 573.881L842.058 572.022C843.006 571.712 848.221 570.318 849.959 570.628C850.433 570.628 850.907 570.938 851.223 571.403C851.381 571.867 851.381 572.332 850.907 572.797C850.433 573.261 849.959 573.571 849.327 573.881C849.959 573.881 850.591 573.726 850.907 573.726L862.442 573.106L851.223 576.049C850.117 576.359 848.853 576.514 847.747 576.514C846.167 576.669 844.745 577.289 843.481 578.063C844.271 578.837 845.061 579.612 846.009 580.232C851.065 584.104 860.23 591.384 856.595 603.466C855.331 607.183 853.909 610.9 852.013 614.308C847.747 622.672 844.113 629.797 850.433 652.257C852.961 661.551 855.015 667.592 856.595 671.929C860.072 682.152 860.388 683.236 857.543 695.937C853.593 712.975 855.963 733.576 855.963 733.731H853.435Z" fill="#231F20"/>
<path d="M916.955 400.245L767.004 547.239C788.493 564.742 813.301 573.726 836.686 571.557C838.424 571.557 840.163 572.022 841.585 572.797C842.849 573.571 843.797 574.655 843.007 575.74C839.846 580.232 841.269 580.077 841.269 580.077C841.901 580.696 842.849 580.851 843.639 580.541C844.429 580.077 845.377 579.922 846.325 580.077C847.273 580.077 848.063 580.232 848.537 579.612C849.011 578.992 851.065 579.612 851.539 579.302C852.013 578.992 854.225 578.837 854.067 577.908C853.909 576.979 849.485 575.275 850.433 572.022C850.749 570.628 851.539 569.544 852.645 568.614C853.593 567.995 854.699 567.375 855.963 567.066H855.647C898.942 550.492 928.49 493.336 922.485 427.816C921.379 418.368 919.641 409.229 916.955 400.245Z" fill="#527FA7"/>
<path d="M791.022 317.222C725.606 330.388 692.266 401.639 714.703 469.483C725.606 502.32 744.567 529.272 766.846 547.239L916.797 400.245C899.574 343.864 847.589 305.915 791.022 317.222ZM723.552 454.613C710.121 398.232 739.352 341.695 793.708 330.853C800.186 329.614 806.664 328.994 813.143 329.149C757.84 344.483 724.184 396.373 723.552 454.613Z" fill="#79A3C7"/>
<path d="M17.5728 227.896L1.03735 187.004L38.0625 188.243L17.5728 227.896Z" fill="#F76251"/>
<path d="M55.4967 228.98L38.0625 188.243L75.2674 189.018L55.4967 228.98Z" fill="#F5C940"/>
<path d="M93.061 229.6L75.2673 189.018L112.472 189.637L93.061 229.6Z" fill="#92E2D8"/>
<path d="M130.446 230.065L112.472 189.637L149.497 189.792L130.446 230.065Z" fill="#79A3C7"/>
<path d="M168.369 230.065L149.497 189.792L186.702 189.637L168.369 230.065Z" fill="#F76251"/>
<path d="M206.113 229.6L186.702 189.637L223.907 189.173L206.113 229.6Z" fill="#F5C940"/>
<path d="M243.138 229.135L223.907 189.173L260.932 188.553L243.138 229.135Z" fill="#92E2D8"/>
<path d="M281.062 228.206L260.932 188.553L298.137 187.469L281.062 228.206Z" fill="#79A3C7"/>
<path d="M318.627 226.967L298.137 187.469L335.162 186.075L318.627 226.967Z" fill="#F76251"/>
<path d="M356.011 225.573L335.162 186.075L372.367 184.526L356.011 225.573Z" fill="#F5C940"/>
<path d="M393.755 223.714L372.367 184.526L409.392 182.512L393.755 223.714Z" fill="#92E2D8"/>
<path d="M431.32 221.545L409.392 182.512L446.417 180.189L431.32 221.545Z" fill="#79A3C7"/>
<path d="M468.345 219.222L446.417 180.189L483.442 177.865L468.345 219.222Z" fill="#F76251"/>
<path d="M506.089 216.589L483.442 177.865L520.468 175.077L506.089 216.589Z" fill="#F5C940"/>
<path d="M543.653 213.491L520.468 175.077L557.493 171.825L543.653 213.491Z" fill="#92E2D8"/>
<path d="M580.858 210.083L557.493 171.825L594.338 168.417L580.858 210.083Z" fill="#79A3C7"/>
<path d="M618.422 206.521L594.338 168.417L631.183 164.545L618.422 206.521Z" fill="#F76251"/>
<path d="M655.807 202.339L631.183 164.545L668.029 160.363L655.807 202.339Z" fill="#F5C940"/>
<path d="M693.012 197.847L668.029 160.363L704.874 155.716L693.012 197.847Z" fill="#92E2D8"/>
<path d="M730.576 193.045L704.874 155.716L741.54 150.759L730.576 193.045Z" fill="#79A3C7"/>
<path d="M767.601 187.779L741.54 150.759L778.205 145.338L767.601 187.779Z" fill="#F76251"/>
<path d="M804.986 182.048L778.205 145.338L814.691 139.452L804.986 182.048Z" fill="#F5C940"/>
<path d="M842.191 175.852L814.691 139.452L850.998 133.101L842.191 175.852Z" fill="#92E2D8"/>
<path d="M879.036 169.191L850.998 133.101L887.304 126.441L879.036 169.191Z" fill="#79A3C7"/>
<path d="M916.241 162.066L887.304 126.441L923.61 119.161L916.241 162.066Z" fill="#F76251"/>
<path d="M952.906 154.322L923.61 119.161L959.557 111.261L952.906 154.322Z" fill="#F5C940"/>
<path d="M989.392 146.267L959.557 111.261L995.503 103.207L989.392 146.267Z" fill="#92E2D8"/>
<path d="M1026.42 137.438L995.503 103.207L1031.09 94.2229L1026.42 137.438Z" fill="#79A3C7"/>
<path d="M1062.72 127.99L1031.09 94.2229L1066.68 84.7744L1062.72 127.99Z" fill="#F76251"/>
<path d="M1066.32 84C822.24 151.689 545.63 175.697 356.55 184.061C151.654 193.2 2.47527 186.075 1.0374 186.075L0.857666 187.934C2.29553 188.089 151.474 195.059 356.55 186.075C368.952 185.455 381.713 184.836 394.654 184.216C581.757 174.458 838.596 149.055 1066.86 85.8587L1066.32 84Z" fill="black"/>
<path d="M485.783 502.483C485.783 502.483 500.636 473.518 528.287 453.536C540.928 444.398 559.257 428.753 556.097 419.615C552.937 410.476 548.828 402.576 546.458 400.408C546.458 400.408 548.512 403.506 541.56 409.082C534.608 414.658 509.642 437.737 497.159 455.86C484.677 473.982 473.458 500.469 473.458 500.469L485.783 502.483Z" fill="#79A3C7"/>
<path d="M546.774 377.019C546.774 377.019 536.662 386.777 525.127 395.606C513.592 404.435 504.112 410.94 504.902 416.517L497.95 392.663C497.95 392.663 494.631 384.454 505.692 375.78C516.753 367.106 563.839 335.662 545.984 319.398C545.984 319.398 552.147 322.651 554.517 342.942C557.519 367.415 550.883 373.146 546.774 377.019Z" fill="#79A3C7"/>
<path d="M486.415 320.483L483.097 295.854C483.097 295.854 481.043 289.194 503.164 276.028C523.231 264.101 556.097 253.104 544.562 239.009C544.562 239.009 549.461 243.346 549.935 257.751C550.567 276.803 549.777 279.746 537.61 286.871C525.443 293.996 506.956 304.374 506.956 304.374C506.956 304.374 486.099 314.906 486.415 320.483Z" fill="#79A3C7"/>
<path d="M481.833 236.84C481.833 236.84 481.359 223.054 481.517 217.014C481.675 210.973 482.307 205.087 496.211 200.75C510.116 196.413 546.3 189.907 541.718 173.953C541.718 173.953 543.772 177.051 540.612 198.736C537.136 223.054 509.326 221.97 502.216 224.294C495.105 226.617 481.359 229.715 481.833 236.84Z" fill="#79A3C7"/>
<path d="M541.56 409.082C547.248 404.59 546.932 401.647 546.616 400.717C546.616 400.563 546.458 400.563 546.458 400.408C544.088 396.38 526.233 397 523.231 397.155C512.644 405.364 504.112 411.405 504.902 416.672C508.22 421.783 527.971 421.473 527.971 421.473C533.976 415.587 539.032 411.095 541.56 409.082Z" fill="#527FA7"/>
<path d="M481.832 236.53C481.832 242.726 494.315 247.992 510.116 250.935C525.917 253.878 534.292 259.145 534.292 259.145C544.404 252.794 550.567 246.289 544.562 239.009C542.508 236.066 532.395 232.968 524.337 230.799C517.068 228.786 505.06 224.758 502.69 223.984L502.216 224.139C495.263 226.462 481.674 229.715 481.832 236.53Z" fill="#527FA7"/>
<path d="M486.415 320.483C487.205 325.129 490.997 327.143 509.01 331.945C520.703 335.043 532.079 338.915 543.14 343.407C549.777 335.043 552.779 326.678 546.774 320.328L545.984 319.553C530.657 308.091 506.798 304.374 506.798 304.374C506.798 304.374 486.099 314.906 486.415 320.483Z" fill="#527FA7"/>
<path d="M542.034 175.192C542.034 174.728 541.876 174.263 541.718 173.798C537.768 162.026 519.913 151.184 495.579 131.822C478.672 118.346 471.72 107.814 469.034 102.547C467.138 98.2102 466.98 93.2536 468.876 88.9166C464.768 97.126 462.081 105.955 461.133 115.094V115.249C461.133 115.403 461.133 115.713 461.133 115.713C460.659 139.722 484.677 160.787 503.322 169.926C522.599 179.375 529.709 189.597 529.867 189.907C531.29 189.288 532.554 188.513 533.818 187.739L534.134 187.429L534.924 186.809L535.398 186.5L536.188 186.035L536.662 185.57C536.82 185.415 537.136 185.26 537.294 185.106L537.768 184.641C537.926 184.486 538.084 184.331 538.4 184.176C538.716 184.021 538.716 183.866 538.874 183.712L539.348 183.247C539.664 182.937 539.822 182.627 540.138 182.163L540.296 181.853L540.77 181.078C540.77 180.923 540.928 180.769 540.928 180.614C540.928 180.459 541.086 180.149 541.244 179.839C541.402 179.529 541.402 179.529 541.402 179.374L541.56 178.6L541.718 178.135C541.718 177.826 541.718 177.671 541.718 177.361C541.718 177.051 541.718 177.051 541.718 176.896C541.718 176.586 541.718 176.277 541.718 175.967C542.034 175.502 542.034 175.347 542.034 175.192Z" fill="#527FA7"/>
<path d="M535.398 33H494.315C477.092 46.9404 465.558 66.457 461.449 87.9872C460.817 97.2808 460.659 106.574 461.133 116.023C461.133 116.023 461.923 61.9651 535.398 33Z" fill="#79A3C7"/>
<path d="M161.512 184.478C166.568 200.123 177.629 213.134 192.482 220.724C193.746 221.343 194.852 221.808 195.642 222.118C195.8 217.626 196.432 213.134 197.38 208.797C197.696 207.248 198.012 205.699 198.802 204.15C169.096 199.503 162.302 186.182 161.512 184.478Z" fill="#BA2B1C"/>
<path d="M242.097 215.457C240.359 204.46 211.443 208.642 202.12 223.666C201.804 224.131 201.646 224.441 201.488 224.751C201.488 224.751 211.601 229.088 227.876 226.3C244.151 223.511 242.097 215.457 242.097 215.457Z" fill="#BA2B1C"/>
<path d="M237.673 191.913C237.673 191.913 237.515 188.97 233.248 186.957C228.982 184.943 210.653 182 198.802 204.15C198.17 205.699 197.696 207.248 197.38 208.797C196.432 213.134 195.8 217.626 195.642 222.118H195.484L195.642 222.737C195.642 222.737 194.22 241.789 200.856 253.251C200.382 252.322 192.956 238.381 202.121 223.821C211.601 208.797 240.359 204.615 242.097 215.612L237.673 191.913Z" fill="#F76251"/>
<path d="M249.365 279.893L249.523 253.716C249.523 252.322 248.575 251.083 247.311 250.618C244.625 249.843 230.72 249.379 217.289 255.884C203.859 262.39 198.802 272.613 198.012 277.724C198.012 277.724 196.274 295.227 195.484 302.507C194.694 309.787 195.168 315.518 203.701 323.573C203.701 323.573 195.01 315.054 196.432 306.844C197.854 298.635 202.278 291.51 219.818 283.3C237.357 275.091 248.733 278.034 249.365 279.893Z" fill="#F76251"/>
<path d="M200.224 226.764C196.748 234.199 196.59 242.563 199.434 250.153C201.172 254.49 203.701 258.517 206.703 262.08L207.019 262.39C210.021 259.757 213.339 257.433 217.131 255.729C221.398 253.716 225.822 252.167 230.562 251.237C217.447 247.83 206.387 238.846 200.224 226.764Z" fill="#BA2B1C"/>
<path d="M249.365 279.893C248.891 278.499 242.571 276.64 232.142 279.118C236.725 280.358 241.465 280.822 246.205 280.822C249.681 280.667 249.365 279.893 249.365 279.893Z" fill="#BA2B1C"/>
<path d="M252.367 344.793V315.208C252.367 315.208 252.683 313.969 246.995 313.814C246.995 313.814 198.802 316.293 190.428 345.877C181.421 377.786 181.263 391.261 187.426 398.541C187.426 398.541 181.421 390.642 186.162 379.18C190.902 367.717 201.172 358.734 215.235 352.848C229.298 346.962 246.363 344.019 252.367 344.793Z" fill="#F76251"/>
<path d="M199.118 317.687C200.224 319.546 201.489 321.249 202.911 322.798L203.701 323.728C204.491 324.502 205.439 325.277 206.387 325.896C220.45 317.067 238.779 314.589 244.941 314.124V313.969C215.393 310.252 203.385 293.988 203.385 293.833C199.592 297.241 197.222 301.888 196.432 306.999C196.116 310.097 196.59 313.195 198.17 315.828C198.328 316.293 198.802 316.912 199.118 317.687Z" fill="#BA2B1C"/>
<path d="M253.157 409.849C253.157 409.849 250.155 426.267 248.259 436.026C246.363 445.784 245.099 446.558 238.779 447.798C232.458 449.037 211.127 451.515 198.802 456.627C186.478 461.738 183.159 465.146 187.584 472.271C187.584 472.271 184.107 469.173 185.055 456.627C186.161 442.531 187.268 438.039 187.9 432.928C187.9 432.928 188.058 429.21 196.432 424.873C204.175 421.001 212.549 418.523 221.24 417.284C227.718 416.509 251.893 414.805 253.157 409.849Z" fill="#F76251"/>
<path d="M209.863 419.762C213.497 418.677 217.289 417.903 221.24 417.438C227.718 416.509 251.894 414.805 253.158 409.849C252.842 406.131 232.774 395.908 216.341 385.995C199.276 375.617 194.852 366.169 194.852 366.014C191.06 369.731 188.058 374.223 186.004 379.025C181.421 390.487 187.268 398.386 187.268 398.386C187.268 398.386 187.426 398.541 187.584 398.696C198.328 411.552 207.019 417.903 209.863 419.762Z" fill="#BA2B1C"/>
<path d="M223.294 480.79C217.763 480.48 212.233 480.79 206.861 482.029C203.069 482.803 203.069 483.733 201.172 488.534C199.276 493.336 194.062 509.6 194.062 509.6C192.482 515.796 193.746 516.26 193.746 516.26C192.166 512.233 200.698 512.388 207.809 512.233C214.919 512.078 220.134 511.614 227.876 511.149C235.619 510.684 235.935 506.657 238.463 497.983C240.675 490.238 243.203 480.635 243.835 478.157C242.255 482.339 230.088 481.254 223.294 480.79Z" fill="#F76251"/>
<path d="M243.993 476.298C243.993 476.143 243.993 475.988 243.993 475.988C243.993 475.833 243.993 475.678 243.993 475.678C243.835 475.369 243.677 474.904 243.519 474.749C242.255 472.58 238.463 469.637 230.878 464.991C220.608 458.64 210.969 453.064 210.969 453.064C206.861 453.993 202.753 455.232 198.96 456.781C186.636 461.893 183.317 465.3 187.742 472.426C190.744 475.988 202.595 483.423 203.385 483.888C204.333 482.803 205.597 482.184 206.861 482.184C212.233 481.1 217.763 480.635 223.294 480.945C230.246 481.254 242.255 482.494 243.835 478.312C243.993 477.537 244.151 476.917 243.993 476.298Z" fill="#BA2B1C"/>
<path d="M262.322 525.709C253.632 519.049 244.151 513.472 234.038 508.98C232.3 510.529 230.088 511.304 227.718 511.304C219.976 511.769 214.761 512.233 207.651 512.388C200.54 512.543 192.008 512.388 193.588 516.415C200.54 524.934 220.766 535.003 240.201 545.535C259.636 556.068 264.218 571.557 264.218 571.557C267.378 563.348 266.904 545.38 266.904 545.38C279.229 540.734 274.489 535.467 262.322 525.709Z" fill="#BA2B1C"/>
<path d="M274.173 538.875C274.331 541.353 272.119 543.522 266.904 545.535C266.904 545.535 267.378 563.348 264.218 571.712C275.595 545.535 274.173 538.875 274.173 538.875Z" fill="#F76251"/>
<path d="M195.642 222.117C189.322 219.484 166.094 208.022 159.3 176.579C154.56 154.429 155.982 140.179 160.88 126.083C164.04 116.79 168.781 107.651 174.153 96.6537C186.478 71.2511 193.114 47.5524 192.798 28.9652L168.148 26.9515C168.148 26.9515 164.672 58.24 157.562 73.5745C151.715 86.1209 135.283 116.325 137.811 148.698C138.285 155.823 139.865 162.948 142.393 169.763C155.192 204.46 188.058 219.175 195.642 222.117Z" fill="#F76251"/>
<path d="M833.052 256.659L833.21 279.738C833.21 280.977 832.42 282.061 831.156 282.526C828.786 283.3 816.461 283.61 804.768 277.879C793.076 272.148 788.493 263.164 787.861 258.672C787.861 258.672 786.281 243.338 785.649 236.832C785.017 230.327 785.491 225.37 792.918 218.245C792.918 218.245 785.175 225.68 786.439 232.96C787.703 240.24 791.653 246.436 807.138 253.561C822.623 260.686 832.42 258.208 833.052 256.659Z" fill="#F5C940"/>
<path d="M789.915 303.437C786.913 296.931 786.597 289.496 789.283 282.836C790.863 278.963 793.076 275.556 795.762 272.303L796.078 271.993C798.764 274.317 801.766 276.33 804.926 277.879C808.718 279.738 812.669 280.977 816.619 281.752C804.926 284.849 795.288 292.749 789.915 303.437Z" fill="#DEA635"/>
<path d="M835.738 199.503V225.525C835.738 225.525 835.896 226.609 830.998 226.764C830.998 226.764 788.493 224.596 781.225 198.574C773.324 170.383 773.166 158.611 778.539 152.26C775.22 157.372 774.904 163.723 777.433 169.299C781.541 179.367 790.547 187.266 803.03 192.533C815.513 197.799 830.366 200.278 835.738 199.503Z" fill="#F5C940"/>
<path d="M788.809 223.357C789.757 221.808 790.864 220.259 792.128 218.865L792.918 218.09C793.708 217.471 794.498 216.851 795.288 216.232C807.613 223.976 823.73 226.145 829.102 226.609C803.03 230.017 792.602 244.267 792.602 244.267C789.283 241.169 787.071 237.142 786.439 232.805C786.123 230.172 786.597 227.384 787.861 225.06C788.177 224.596 788.493 224.131 788.809 223.357Z" fill="#DEA635"/>
<path d="M836.37 142.347C836.37 142.347 833.684 127.942 832.104 119.423C830.524 110.904 829.26 110.129 823.729 109.045C818.199 107.961 799.396 105.792 788.493 101.301C777.591 96.8086 774.588 93.8657 778.539 87.515C778.539 87.515 775.379 90.3031 776.327 101.301C777.275 113.692 778.223 117.564 778.855 122.056C778.855 122.056 779.013 125.309 786.439 129.181C793.234 132.589 800.66 134.758 808.244 135.842C814.091 136.461 835.264 138.01 836.37 142.347Z" fill="#F5C940"/>
<path d="M798.29 133.673C801.608 134.603 804.926 135.222 808.244 135.687C813.933 136.461 835.106 138.01 836.37 142.347C836.054 145.755 818.357 154.584 803.978 163.413C788.967 172.552 785.175 180.761 785.017 181.071C781.699 177.818 779.013 173.791 777.274 169.609C774.746 164.032 775.22 157.682 778.381 152.57L778.539 152.26C788.177 140.798 795.762 135.222 798.29 133.673Z" fill="#DEA635"/>
<path d="M809.983 79.9252C805.084 80.235 800.186 79.9252 795.446 78.841C792.128 78.0665 792.128 77.292 790.389 73.1099C788.651 68.9278 784.069 54.5227 784.069 54.5227C782.647 48.9465 783.911 48.6367 783.911 48.6367C782.489 52.1993 790.073 52.1993 796.394 52.1993C802.714 52.1993 807.296 52.664 814.091 53.1286C820.885 53.5933 821.201 57.001 823.413 64.7457C825.31 71.561 827.522 80.0801 828.154 82.0937C826.732 78.5312 816.145 79.6154 809.983 79.9252Z" fill="#F5C940"/>
<path d="M828.312 83.7975C828.312 83.9524 828.312 83.9524 828.312 84.1073C828.312 84.2622 828.312 84.2622 828.312 84.4171C828.154 84.7269 828.154 85.0367 827.838 85.3465C826.732 87.2052 823.413 89.8384 816.777 94.0205C807.77 99.7516 799.238 104.553 799.238 104.553C795.604 103.779 791.969 102.695 788.493 101.301C777.591 96.8086 774.588 93.8656 778.539 87.515C781.225 84.4171 791.653 77.7567 792.285 77.4469C793.076 78.3763 794.182 78.8409 795.446 78.9958C800.186 79.9252 805.084 80.3899 809.983 80.0801C816.145 79.7703 826.732 78.8409 827.996 82.4035C828.312 82.7133 828.47 83.178 828.312 83.7975Z" fill="#DEA635"/>
<path d="M844.429 40.4272C836.844 46.3132 828.47 51.2698 819.621 55.1421C818.041 53.7481 816.145 53.1285 814.091 53.1285C807.297 52.6638 802.714 52.354 796.394 52.1991C790.073 52.0443 782.489 52.1991 783.911 48.6366C789.915 41.2017 807.771 32.2179 824.836 22.9243C841.901 13.6306 846.009 0 846.009 0C848.853 7.28 848.379 22.9243 848.379 22.9243C859.282 27.1064 855.173 31.7532 844.429 40.4272Z" fill="#DEA635"/>
<path d="M867.291 25C882.934 44.5166 901.737 61.2451 923.068 74.566C939.027 84.3243 960.674 102.137 956.092 111.121C951.51 120.105 946.295 127.694 943.293 129.708C943.293 129.708 945.979 126.765 937.921 120.414C929.862 114.064 899.999 89.5906 883.566 71.9328C867.449 53.9651 850.858 28.0979 850.858 28.0979C856.23 27.0136 861.76 25.9294 867.291 25Z" fill="#F76251"/>
<path d="M942.029 153.562C934.445 146.282 926.228 139.621 917.538 133.426C904.265 123.977 892.414 117.472 893.52 111.895C890.676 119.95 887.99 128.159 885.462 136.214C881.511 148.45 881.827 144.578 894.626 153.252C908.373 161.461 958.62 196.467 937.763 211.957C937.763 211.957 944.399 209.014 948.507 188.723C953.722 164.095 946.611 157.899 942.029 153.562Z" fill="#F76251"/>
<path d="M874.401 210.098C873.453 218.462 872.663 226.826 871.715 235.191C871.557 235.346 870.135 241.696 892.572 254.707C912.955 266.479 943.767 279.8 931.759 293.431C931.759 293.431 936.657 289.403 938.079 274.843C939.817 255.482 939.501 252.539 927.334 244.484C915.168 236.43 896.206 225.897 896.206 225.897C896.206 225.897 874.243 215.519 874.401 210.098Z" fill="#F76251"/>
<path d="M872.821 295.289C872.821 295.289 872.821 309.23 873.295 315.581C873.769 321.931 874.559 327.507 886.884 331.689C899.524 335.407 930.652 343.461 925.754 359.57C925.754 359.57 927.65 356.472 926.07 334.323C924.332 309.23 898.418 309.54 891.94 307.526C885.62 305.203 872.821 302.415 872.821 295.289Z" fill="#F76251"/>
<path d="M919.908 470.164C919.592 480.542 919.434 490.92 919.118 501.143C919.118 500.833 891.624 493.089 877.087 473.262C862.55 453.126 862.076 419.049 862.392 418.895C861.76 419.824 867.291 451.267 919.908 470.164Z" fill="#F76251"/>
<path d="M937.605 120.569C944.241 125.681 943.609 128.624 943.293 129.553C943.293 129.708 943.135 129.708 943.135 129.863C940.133 133.735 918.96 132.032 915.483 131.877C903.159 123.358 892.73 117.162 893.678 111.895C897.628 106.474 921.804 107.249 921.804 107.403C928.756 113.444 934.761 118.246 937.605 120.569Z" fill="#BA2B1C"/>
<path d="M872.821 295.444C872.505 289.094 884.198 283.208 899.367 280.11C914.535 277.012 922.91 272.365 922.91 272.365C932.549 279.18 937.921 286.306 931.758 293.431C929.546 296.374 920.066 298.852 912.481 300.866C905.687 302.569 894.626 306.752 892.414 307.526L891.94 307.371C885.62 305.203 872.979 302.414 872.821 295.444Z" fill="#BA2B1C"/>
<path d="M874.401 210.098C875.033 205.296 878.983 202.818 898.576 197.861C919.276 192.75 936.183 187.484 936.183 187.484C942.977 196.467 945.505 205.141 938.869 211.182L937.921 211.957C920.856 222.335 896.206 226.052 896.206 226.207C896.206 226.362 874.243 215.519 874.401 210.098Z" fill="#BA2B1C"/>
<path d="M893.678 362.823C909.795 353.065 916.432 343.151 916.59 342.842C917.696 343.616 918.802 344.391 919.908 345.165L920.224 345.475L921.014 346.094L921.488 346.404L922.12 347.024L922.594 347.488C922.752 347.643 922.91 347.953 923.068 348.108L923.542 348.573C923.7 348.728 923.858 348.883 924.016 349.192C924.174 349.347 924.332 349.502 924.49 349.812C924.648 349.967 924.806 350.122 924.806 350.277C924.964 350.586 925.28 351.051 925.438 351.361L925.596 351.826C925.754 352.135 925.912 352.29 925.912 352.6L926.07 353.065C926.07 353.374 926.228 353.529 926.228 353.839C926.228 354.149 926.228 354.149 926.386 354.304C926.544 354.459 926.544 354.768 926.544 355.078V355.543C926.544 355.853 926.544 356.008 926.544 356.317C926.544 356.627 926.544 356.627 926.544 356.782C926.544 356.937 926.544 357.402 926.544 357.711C926.544 357.866 926.544 358.021 926.544 358.176C926.544 358.641 926.386 359.106 926.228 359.57C922.278 371.342 906.793 381.41 888.148 401.546C873.611 417.5 869.977 429.737 868.713 434.229C865.71 429.737 863.656 424.78 862.55 419.514C859.864 395.041 877.877 372.117 893.678 362.823Z" fill="#BA2B1C"/>
<path d="M675.605 509.797C675.605 509.797 707.681 547.746 704.678 573.613C701.676 599.481 691.722 605.212 691.722 605.212C691.722 605.212 704.836 586.625 681.925 557.505C659.014 528.385 642.739 512.121 645.741 506.545C648.743 500.968 658.856 498.025 658.856 498.025L675.605 509.797Z" fill="#6DB3A9"/>
<path d="M719.531 31.176C719.531 31.176 691.722 79.9675 671.655 122.253C651.587 164.539 630.414 220.146 636.102 284.427C636.102 284.427 618.879 198.461 652.219 112.96C685.559 27.4585 704.995 31.0211 704.995 31.0211L719.531 31.176Z" fill="#92E2D8"/>
<path d="M722.376 484.085C722.376 484.085 714.475 497.251 712.737 500.194C710.999 503.137 707.997 510.572 697.884 510.727C687.772 510.881 681.135 511.036 669.917 508.713C658.698 506.39 647.321 503.447 646.057 506.544L657.276 485.634C657.276 485.634 658.856 481.607 667.072 483.465C674.973 485.324 682.873 486.563 690.932 487.338C701.202 488.267 716.687 491.675 722.376 484.085Z" fill="#92E2D8"/>
<path d="M707.839 488.577L707.997 488.887C712.579 488.887 716.687 488.422 719.847 486.408L720.005 486.253C720.321 486.098 720.479 485.789 720.795 485.634C723.166 483.62 724.43 480.677 724.588 477.579C725.22 458.682 680.819 386.967 657.75 339.104C632.784 287.525 636.26 241.212 636.26 241.212C626.622 282.878 656.96 391.304 676.237 430.182C694.566 467.666 706.891 487.028 707.839 488.577Z" fill="#6DB3A9"/>
<path d="M691.88 605.367C691.88 605.367 683.821 615.899 648.269 626.432C612.717 636.965 596.126 623.179 596.126 623.179L588.858 646.878C588.858 646.878 612.875 665.465 652.219 648.117C685.085 633.557 699.306 595.144 699.306 595.144C695.672 603.043 691.88 605.367 691.88 605.367Z" fill="#92E2D8"/>
<path d="M425.684 151.767L344.417 180.467C351.006 191.041 360.294 198.427 370.522 200.785C371.304 200.977 371.956 201.45 372.398 201.998C372.841 202.545 373.141 203.025 372.593 203.454C370.742 204.815 371.172 205.014 371.172 205.014C371.393 205.288 371.615 205.562 371.967 205.554C372.384 205.406 372.814 205.606 373.1 205.739C373.53 205.939 373.817 206.072 374.091 205.857C374.364 205.643 375.159 206.182 375.368 206.109C375.576 206.035 376.501 206.293 376.554 205.805C376.606 205.317 375.082 204.097 375.812 202.899C376.216 202.404 376.555 202.049 377.181 201.827C377.741 201.746 378.159 201.598 378.862 201.583L378.719 201.517C398.893 200.466 418.867 180.708 425.084 152.684C425.566 152.396 425.553 152.048 425.684 151.767Z" fill="#DEA635"/>
<path d="M348.575 258.563C348.627 258.075 351.474 245.564 360.535 237.305C365.92 232.461 366.195 228.491 366.575 225.422C366.576 223.544 367.215 221.792 368.219 220.379C371.335 217.044 372.092 214.663 370.921 211.558C369.632 209.081 370.298 206.146 372.632 204.497L373.973 206.486C373.764 206.56 372.122 207.846 373.215 210.745C375.154 215.573 372.82 219.1 370.108 221.939C369.443 222.997 368.999 224.328 369.051 225.718C368.749 228.993 368.356 233.592 362.359 239.005C353.845 246.836 351.129 259.066 351.129 259.066L348.575 258.563Z" fill="#231F20"/>
<path d="M385.824 89.0307C356.961 85.5348 333.596 110.72 333.763 141.878C333.769 155.373 337.437 168.859 344.417 180.467L425.54 151.701C431.823 121.658 414.401 92.3936 385.824 89.0307ZM392.585 94.7312C366.132 91.6714 343.709 109.951 336.711 135.904C339.109 109.352 360.048 89.0172 385.301 92.0327C389.758 92.5649 394.24 93.7921 398.188 95.7957C396.481 95.3447 394.566 94.9677 392.585 94.7312Z" fill="#F5C940"/>
</svg>
